<?xml version="1.0" encoding="UTF-8"?>
<svg width="28px" height="28px" viewBox="0 0 28 28" version="1.1" xmlns="http://www.w3.org/2000/svg" xmlns:xlink="http://www.w3.org/1999/xlink">
    <title>back</title>
    <g id="back" stroke="none" stroke-width="1" fill="none" fill-rule="evenodd">
        <path d="M27,14.5227815 C27,14.0551346 26.8163681,13.6081302 26.4899066,13.2780266 C26.163445,12.9479229 25.7213931,12.7622286 25.2589182,12.7622286 L6.16316838,12.7622286 L13.2415364,6.08973301 C13.5985931,5.77682113 13.8128289,5.32979034 13.8383357,4.85184424 C13.8621407,4.37561467 13.6938129,3.9079678 13.3707682,3.55893819 C13.0477148,3.20992177 12.5988596,3.0087654 12.1261559,3 C11.6534957,2.99330774 11.1978111,3.1807098 10.864568,3.51941377 L0.552575834,13.2332645 C0.200620502,13.5668057 0,14.0327316 0,14.5210209 C0,15.0093103 0.20063356,15.4752406 0.552575834,15.8087774 L10.864568,25.5261492 C11.5684874,26.1897896 12.6702439,26.1519818 13.3265447,25.4401858 C13.9828455,24.7301108 13.9437582,23.6143164 13.2415321,22.950676 L6.16316403,16.283462 L25.2589139,16.283462 C25.7213887,16.283462 26.1634494,16.0977765 26.4899022,15.7676641 C26.816355,15.4375516 27,14.990556 27,14.5229091 L27,14.5227815 Z" id="Fill-1-Copy" fill="#FFFFFF"></path>
    </g>
</svg>