<svg xmlns="http://www.w3.org/2000/svg" width="399.723" height="264.376"><defs><style>.cls-2{fill:#b98b7b}.cls-3{fill:#455f6d}.cls-4{fill:#cfd4d6}.cls-5{fill:#44799c}.cls-11,.cls-13,.cls-14,.cls-8{fill:none;stroke-miterlimit:10}.cls-14{stroke:#cfd4d6}.cls-8{stroke-width:.875px}.cls-8{stroke:#b3babc}.cls-11{stroke:#a5b8c5}.cls-11,.cls-14{stroke-width:1.75px}.cls-13{stroke:#71604b;stroke-width:3.5px}.cls-16{fill:#c1da63}</style></defs><g style="isolation:isolate"><g id="Building_G" data-name="Building G"><g id="Building"><path class="cls-2" d="M128.704 56.763h44.711v104.795h-44.711z"/><path class="cls-3" d="M144.394 68.63h88.061v43.33h-88.061zM161.45 116.901h71.006v53.973H161.45z"/><path class="cls-4" d="M215.993 0a228.547 228.547 0 0 0-51.542 5.592v41.373c15.134-3.549 32.738-2.9 51.542-2.9 19.453 0 37.633-.876 53.109 2.9V5.956A227.028 227.028 0 0 0 215.993 0Z"/><path class="cls-5" d="M262.1 14.6v32.365h7V16.147a177.472 177.472 0 0 0-7-1.547ZM251.017 12.659v34.306h9.122V14.2q-4.448-.855-9.122-1.541ZM239.931 11.331v35.634h9.122V12.393q-4.473-.612-9.122-1.062ZM228.845 10.525v36.44h9.122V11.15q-4.491-.394-9.122-.625ZM217.759 10.209v36.756h9.122v-36.54q-4.505-.19-9.122-.216ZM206.673 10.368v36.6h9.127V10.193q-4.619.007-9.127.175ZM195.587 11.009v35.956h9.122v-36.52q-4.624.204-9.122.564ZM184.5 12.181v34.784h9.122V11.187q-4.643.413-9.122.994ZM173.415 13.915v33.05h9.122V12.447q-4.668.653-9.122 1.468ZM164.451 15.783v31.182h7V14.276a187.04 187.04 0 0 0-7 1.507Z"/><path d="M215.993 10.191a228.547 228.547 0 0 0-51.542 5.592v41.373c15.134-3.549 32.738-40.907 51.542-40.907 19.453 0 37.633 37.129 53.109 40.907V16.147a227.028 227.028 0 0 0-53.109-5.956Z" style="opacity:.69;mix-blend-mode:multiply;fill:#cfd4d6"/><path d="M269.1 24.961a226.975 226.975 0 0 0-53.109-5.956 228.607 228.607 0 0 0-51.54 5.595" style="stroke-width:.875px;stroke:#cfd4d6;fill:none;stroke-miterlimit:10"/><path class="cls-4" d="M138.527 44.063H293.46v26.25H138.527z"/><path class="cls-8" d="M138.527 61.563H293.65"/><path class="cls-4" d="M138.527 109.626H293.46v17.5H138.527z"/><path class="cls-2" d="M242.148 53.807h157.575v157.575H242.148z"/><path class="cls-4" d="M198.628 134.386v36.488h34.968v-36.718l-34.968.23z"/><path style="fill:#a5b8c5" d="M230.555 65.969h83.24v145.194h-83.24z"/><path style="fill:#39515b" d="M234.356 71.291h75.258v139.873h-75.258z"/><path class="cls-11" d="M259.442 68.63v145.574M284.528 68.63v145.574M234.356 68.63v145.574M309.614 68.63v145.574M232.456 82.693h81.339M232.456 94.856h81.339M232.456 107.019h81.339M232.456 119.182h81.339M232.456 131.345h81.339M232.456 143.508h81.339M232.456 155.671h81.339M232.456 168.214h81.339M232.456 180.756h81.339M232.456 193.299h81.339M232.456 205.842h81.339"/><path d="M283.854 142.566c8.024.167 27.059.917 24.307 12.841s4.127 18.8 15.134 16.969c7.8-1.834 24.651 2.637 13.3 23.963s-8.943 21.326-4.471 24.078-14.676 24.765-48.27 16.854-47.354-25.453-31.874-29.925 9.287-18.918-.688-29.581 9.287-17.886 19.606-13.414-4.815-8.6-2.408-14.447 11.494-7.418 15.364-7.338Z" style="fill:#e2c751"/><path class="cls-13" d="M292.097 155.639v108.009M268.75 176.963l23.04 30.268M317.307 201.213l-24.594 22.126"/><path class="cls-8" d="M138.527 52.813H293.65M138.527 118.376h93.929"/><path class="cls-14" d="M160.686 65.969v45.991M176.979 65.969v45.991M176.979 125.829v45.991M193.271 125.829v45.991M193.271 65.969v45.991M209.563 65.969v45.991M225.856 65.969v45.991"/><path d="M230.555 70.313h-86.161v41.647c33.579-31.337 72.378-34.289 86.161-34.562Z" style="opacity:.4;mix-blend-mode:multiply;fill:#455f6d"/><path class="cls-16" d="M170.517 175.245h-15.6c-3.706 0-5.416-9.692-1.71-11.117s11.086 2.28 11.244-3.706 5.4-7.507 8.964-4.751 4.308 7.031 9.439 7.031 9.146 5.113 5.571 7.8-2.308 4.743-17.908 4.743Z"/><path class="cls-16" d="M151.193 169.724h-15.6c-3.706 0-5.417-9.692-1.711-11.117s11.086 2.28 11.245-3.706 5.4-7.507 8.963-4.751 4.308 7.031 9.439 7.031 9.147 5.113 5.571 7.8-2.307 4.743-17.907 4.743Z"/><path style="fill:#bfc2c4" d="M195.587 170.874 93.201 264.376v-10.642l102.386-86.281v3.421z"/><path style="fill:#b3babc" d="m85.076 253.354 8.125.38 102.386-86.281h-3.611l-106.9 85.901z"/><path d="M63.329 57.193c13.3.276 44.85 1.52 40.289 21.285s6.842 31.167 25.082 28.122c12.923-3.041 40.86 4.371 22.045 39.72s-14.823 35.348-7.411 39.909-24.326 41.05-80.009 27.937-78.489-42.19-52.833-49.6 15.394-31.358-1.14-49.032S24.75 85.889 41.854 93.3s-7.982-14.253-3.991-23.946 19.052-12.295 25.466-12.161Z" style="fill:#f3b64b"/><path class="cls-13" d="M73.313 82.305v179.029M34.824 112.007l38.189 50.172M113.584 153.482l-40.765 36.675"/></g></g></g></svg>