<svg xmlns="http://www.w3.org/2000/svg" width="491.046" height="200.843"><defs><clipPath id="clip-path"><path class="cls-1" d="m71.017 122.791 250.876 14.792v32.627L71.017 187.346v-64.555z"/></clipPath><clipPath id="clip-path-2"><path class="cls-1" d="M341.809 88.54v46.315L48.786 115.403v-97.88L341.809 88.54z"/></clipPath><style>.cls-1,.cls-21,.cls-22,.cls-25,.cls-7{fill:none}.cls-3{fill:#738c99}.cls-4{fill:#587380}.cls-5{fill:#99b1bf}.cls-7{stroke:#4c565c}.cls-21,.cls-22,.cls-25,.cls-7{stroke-miterlimit:10}.cls-7{stroke-width:.711px}.cls-22{stroke-width:1.422px}.cls-21{stroke:#587380;stroke-width:1.156px}.cls-22{stroke:#99b1bf}.cls-24{fill:#bac751}.cls-25{stroke:#685e45;stroke-width:2.132px}.cls-26{fill:#b1c4ce}</style></defs><g style="isolation:isolate"><g id="Chilliwack-CEP-A"><g id="Building-2" data-name="Building"><path class="cls-3" d="m71.017 122.791-32.575-.518L0 128.017l20.945 1.898v51.717l50.072 4.18v-55.897"/><path class="cls-4" d="m301.72 74.07 143.141-14.323v115.326L301.72 163.957V74.07z"/><path class="cls-5" d="m71.017 122.791 250.876 14.792v32.627L71.017 187.346v-64.555z"/><g style="clip-path:url(#clip-path)"><path class="cls-7" d="M316.49 120.034v71.944M309.156 120.034v71.944M301.72 120.034v71.944M292.946 120.034v71.944M284.841 120.034v71.944M276.504 120.034v71.944M267.704 120.034v71.944M257.978 120.034v71.944M248.946 120.034v71.944M238.293 120.034v71.944"/><path style="stroke-width:.782px;stroke-miterlimit:10;stroke:#4c565c;fill:none" d="M227.641 120.034v71.944"/><path style="stroke-width:.853px;stroke-miterlimit:10;stroke:#4c565c;fill:none" d="M215.83 120.034v71.944"/><path style="stroke-width:.924px;stroke-miterlimit:10;stroke:#4c565c;fill:none" d="M203.094 120.034v71.944"/><path style="stroke-width:1.351px;stroke-miterlimit:10;stroke:#4c565c;fill:none" d="M109.768 120.034v71.944"/><path style="stroke-width:1.279px;stroke-miterlimit:10;stroke:#4c565c;fill:none" d="M126.905 120.034v71.944"/><path style="stroke-width:1.208px;stroke-miterlimit:10;stroke:#4c565c;fill:none" d="M143.424 120.034v71.944"/><path style="stroke-width:1.137px;stroke-miterlimit:10;stroke:#4c565c;fill:none" d="M159.982 120.034v71.944"/><path style="stroke-width:1.066px;stroke-miterlimit:10;stroke:#4c565c;fill:none" d="M175.382 120.034v71.944"/><path style="stroke-width:.995px;stroke-miterlimit:10;stroke:#4c565c;fill:none" d="M189.238 120.034v71.944"/><path style="stroke-width:1.422px;stroke-miterlimit:10;stroke:#4c565c;fill:none" d="M89.852 120.034v71.944"/></g><path style="fill:#4c565c" d="M321.893 134.855v6.871L71.017 131.073v-12.968l250.876 16.75z"/><path style="fill:#3a4247" d="M20.945 129.915v4.94l50.072-3.782v-12.968l-50.072 11.81z"/><path class="cls-5" d="m344.028 137.583-305.586-15.31V0l305.586 82.673v54.91z"/><path class="cls-3" d="M341.809 88.54v46.315L48.786 115.403v-97.88L341.809 88.54zM38.442 0 0 23.853v104.164l38.442-5.744V0z"/><path class="cls-4" d="m48.786 24.029 284.686 66.672v43.537h8.337V88.54L48.786 17.523v6.506"/><path class="cls-5" d="M444.861 59.747v115.326l46.184-7.642V86.842l-46.184-27.095z"/><g style="clip-path:url(#clip-path-2)"><path class="cls-21" d="M263.999 20.61v116.256M243.002 20.61v116.256M219.845 20.61v116.256M128.448 20.61v116.256M165.347 20.61v116.256M196.224 20.61v116.256M87.691 20.61v116.256M282.525 20.61v116.256M298.735 20.61v116.256M314.328 20.61v116.256M327.914 20.61v116.256"/></g><path class="cls-22" d="M333.472 94.715 48.786 33.836M333.472 103.701 48.786 50.149M333.472 112.006 48.786 67.441M333.472 120.652 48.786 84.346M333.472 127.754 48.786 100.659"/><path d="M334.849 172.062c-5.4-1.361-16.682-7.247-125.5 3.011s-119.168 8.327-128.76 7.642c-30.259-2.162-20.842 13.431 0 17.137s84.075-3.7 124.589-10.19c22.743-3.641 84.063-8.8 94.02-8.8s54.011-4.168 35.651-8.8Z" style="fill:#876359"/><path class="cls-5" d="M349.837 95.95V83.538l95.873-7.349v13.277l-95.873 6.484zM349.837 127.32v-12.412l95.873-5.217v13.277l-95.873 4.352zM349.837 167.694v-24.261l95.873-1.662v33.302l-95.873-7.379z"/><path class="cls-24" d="M362.037 88.754c5.71.119 19.255.653 17.3 9.138s2.937 13.38 10.77 12.075c5.548-1.3 17.541 1.877 9.464 17.052s-6.364 15.175-3.182 17.134-10.443 17.623-34.349 11.993-33.7-18.113-22.681-21.294 6.608-13.463-.49-21.05 6.609-12.728 13.952-9.546-3.427-6.119-1.714-10.28 8.176-5.276 10.93-5.222Z"/><path class="cls-25" d="M368.566 117.41V185"/><path class="cls-26" d="M491.046 107.323v-8.857l-46.185-22.277v13.277l46.185 17.857zM491.046 131.584v-9.568l-46.185-12.325v13.277l46.185 8.616zM491.046 167.694v-22.839l-46.185-3.084v33.302l46.185-7.379z"/><path class="cls-24" d="M147.109 166.258c3.167.046 8.415.573 6.885 5.209s2.459 4.043 3.407 3.777c1.122-.314 7.522-3.949 1.074 7.212s-21.2.114-21.2-2.69 3.619-2.895 5.056-3c3.469-.259 1.392-4.438.736-5.7s-3.936-4.922 4.042-4.808Z"/><path class="cls-25" d="m349.837 114.908 18.729 19.947M368.566 147.044l21.948-24.253"/><path d="M112.846 188.449c-4.218-1.349-9.646-13.638-3.489-10.545s1.3-11.056 9.122-7.146 9.991 14.292 14.769 7.146 14.335-12.793 16.941-4.106-1.3 13.664-9.991 14.651-18.215 2.922-27.352 0Z" style="fill:#1d5e2f"/></g><path id="Hover" d="M491.046 107.323V86.842l-46.185-27.095-116.369 11.644-1.155.116-12.431 1.244-1.155.116-4.359.436-10.079-2.727-1.156-.313L283.1 66.19l-1.155-.312-17.371-4.7-1.155-.312L243.58 55.5l-1.155-.313-22-5.952-1.155-.313-22.47-6.08-1.155-.312-29.722-8.041-1.155-.312-35.743-9.67-1.155-.313L38.442 0 0 23.852v104.166l20.945 1.9v51.717l41.861 3.494c-5.271 4.194 3.613 12.206 17.783 14.726 20.411 3.628 81.473-3.4 122.043-9.786l.923-.146 1.623-.258c2.858-.458 6.327-.939 10.226-1.432l.853-.106c3.395-.424 7.1-.854 10.993-1.284l.782-.086c3.2-.35 6.521-.7 9.906-1.041l.711-.072c3.277-.331 6.609-.655 9.942-.971l.711-.067c2.787-.262 5.57-.517 8.32-.764l.711-.063c3.067-.273 6.087-.535 9.015-.781l.711-.059c2.8-.234 5.507-.454 8.089-.656l.711-.056c2.705-.21 5.262-.4 7.626-.569l.711-.05c2.775-.195 5.265-.356 7.395-.478l.711-.04c2.639-.145 4.663-.225 5.9-.225.6 0 1.334-.015 2.166-.045l.711-.028c1.874-.08 4.183-.223 6.726-.422l.711-.056c2.1-.17 4.345-.377 6.622-.615l.711-.075c14.673-1.576 30.273-4.464 18-7.559a56.867 56.867 0 0 0-12.956-2.313v-4.225l27.944 2.17h.007l17.655 1.371 2.133.166 75.229 5.842.276-.044.573.044v-.136l45.336-7.243V107.323Z" style="mix-blend-mode:hue;fill:#1d5e2f"/></g></g></svg>