<svg xmlns="http://www.w3.org/2000/svg" width="412.131" height="277.788"><defs><style>.cls-2{fill:#ddd7c8}.cls-3{fill:#8d8a85}.cls-4{fill:#876359}.cls-5{fill:#aa957e}.cls-6{fill:#957163}.cls-7{fill:#1f3c49}.cls-8{fill:#b9b5b6}.cls-9{fill:#a07c70}.cls-10{fill:#ebf2f8}.cls-12{fill:#19262f}</style></defs><g style="isolation:isolate"><g id="Baker_House" data-name="Baker House"><g id="Building"><path class="cls-2" d="M323.593 64.594h84.966v199.055h-84.966z"/><path class="cls-3" d="M102.49 73.705h221.143v190.296H102.49z"/><path class="cls-2" d="M17.523 64.594h84.966v199.055H17.523z"/><path class="cls-4" d="M17.523 182.331h154.473v81.317H17.523zM253.314 132.896h70.279v130.753h-70.279z"/><path class="cls-5" d="M17.523 182.331h391.036v3.912H17.523z"/><path class="cls-6" d="M171.996 28.297h81.317v235.352h-81.317z"/><path class="cls-6" d="M253.314 41.322 212.326 0l-40.33 40.659v31.819l40.33 40.659 40.988-41.321V41.322z"/><path class="cls-7" d="M181.535 56.569h62.239v62.239h-62.239z"/><path class="cls-8" d="M181.535 56.569h62.239v8.025h-62.239zM181.535 116.92h62.239v2.675h-62.239zM181.535 73.352h62.239v2.675h-62.239zM181.535 108.051h62.239v1.338h-62.239z"/><path class="cls-8" transform="rotate(90 197.095 88.082)" d="M165.582 86.075h63.027v4.013h-63.027z"/><path class="cls-8" transform="rotate(90 212.655 88.082)" d="M181.141 86.075h63.027v4.013h-63.027z"/><path class="cls-8" transform="rotate(90 228.215 88.082)" d="M196.701 86.075h63.027v4.013h-63.027z"/><path class="cls-8" transform="rotate(90 242.772 88.082)" d="M211.258 87.079h63.027v2.006h-63.027z"/><path class="cls-8" transform="rotate(90 182.538 88.082)" d="M151.025 87.079h63.027v2.006h-63.027z"/><path class="cls-5" d="M181.535 56.569h62.239v5.35h-62.239z"/><path class="cls-7" d="M181.535 138.585h62.239v30.268h-62.239z"/><path class="cls-8" d="M181.535 132.896h62.239v8.025h-62.239zM181.535 166.178h62.239v2.675h-62.239z"/><path class="cls-8" d="M181.535 138.585h62.239v2.675h-62.239zM181.535 158.098h62.239v1.338h-62.239z"/><path class="cls-8" transform="rotate(90 197.095 153.05)" d="M182.63 151.044h28.93v4.013h-28.93z"/><path class="cls-8" transform="rotate(90 212.654 153.05)" d="M198.19 151.044h28.93v4.013h-28.93z"/><path class="cls-8" transform="rotate(90 228.214 153.05)" d="M213.749 151.044h28.93v4.013h-28.93z"/><path class="cls-8" transform="rotate(90 242.772 153.05)" d="M228.306 152.047h28.93v2.006h-28.93z"/><path class="cls-8" transform="rotate(90 182.538 153.05)" d="M168.073 152.047h28.93v2.006h-28.93z"/><path class="cls-5" d="M181.535 132.896h62.239v5.35h-62.239z"/><path class="cls-7" d="M334.956 138.585h62.239v30.268h-62.239z"/><path class="cls-8" d="M334.956 132.896h62.239v8.025h-62.239zM334.956 166.178h62.239v2.675h-62.239z"/><path class="cls-8" d="M334.956 138.585h62.239v2.675h-62.239zM334.956 158.098h62.239v1.338h-62.239z"/><path class="cls-8" transform="rotate(90 350.516 153.05)" d="M336.051 151.044h28.93v4.013h-28.93z"/><path class="cls-8" transform="rotate(90 366.075 153.05)" d="M351.611 151.044h28.93v4.013h-28.93z"/><path class="cls-8" transform="rotate(90 381.636 153.05)" d="M367.17 151.044h28.93v4.013h-28.93z"/><path class="cls-8" transform="rotate(90 396.193 153.05)" d="M381.727 152.047h28.93v2.006h-28.93z"/><path class="cls-8" transform="rotate(90 335.959 153.05)" d="M321.494 152.047h28.93v2.006h-28.93z"/><path class="cls-5" d="M334.956 132.896h62.239v5.35h-62.239z"/><path class="cls-7" d="M334.956 200.428h62.239v30.268h-62.239z"/><path class="cls-8" d="M334.956 194.739h62.239v8.025h-62.239zM334.956 228.021h62.239v2.675h-62.239z"/><path class="cls-8" d="M334.956 200.428h62.239v2.675h-62.239zM334.956 219.941h62.239v1.338h-62.239z"/><path class="cls-8" transform="rotate(90 350.516 214.894)" d="M336.051 212.887h28.93v4.013h-28.93z"/><path class="cls-8" transform="rotate(90 366.076 214.894)" d="M351.611 212.887h28.93v4.013h-28.93z"/><path class="cls-8" transform="rotate(90 381.635 214.894)" d="M367.17 212.887h28.93v4.013h-28.93z"/><path class="cls-8" transform="rotate(90 396.192 214.894)" d="M381.727 213.89h28.93v2.006h-28.93z"/><path class="cls-8" transform="rotate(90 335.96 214.894)" d="M321.494 213.89h28.93v2.006h-28.93z"/><path class="cls-5" d="M334.956 194.739h62.239v5.35h-62.239z"/><path class="cls-7" d="M334.956 95.574h62.239v30.268h-62.239z"/><path class="cls-8" d="M334.956 89.884h62.239v8.025h-62.239zM334.956 123.166h62.239v2.675h-62.239z"/><path class="cls-8" d="M334.956 95.573h62.239v2.675h-62.239zM334.956 115.087h62.239v1.338h-62.239z"/><path class="cls-8" transform="rotate(90 350.516 110.039)" d="M336.051 108.032h28.93v4.013h-28.93z"/><path class="cls-8" transform="rotate(90 366.075 110.039)" d="M351.611 108.032h28.93v4.013h-28.93z"/><path class="cls-8" transform="rotate(90 381.636 110.039)" d="M367.17 108.032h28.93v4.013h-28.93z"/><path class="cls-8" transform="rotate(90 396.193 110.039)" d="M381.727 109.036h28.93v2.006h-28.93z"/><path class="cls-8" transform="rotate(90 335.959 110.039)" d="M321.494 109.036h28.93v2.006h-28.93z"/><path class="cls-5" d="M334.956 89.884h62.239v5.35h-62.239z"/><path class="cls-7" d="M28.887 138.585h62.239v30.268H28.887z"/><path class="cls-8" d="M28.887 132.896h62.239v8.025H28.887zM28.887 166.178h62.239v2.675H28.887z"/><path class="cls-8" d="M28.887 138.585h62.239v2.675H28.887zM28.887 158.098h62.239v1.338H28.887z"/><path class="cls-8" transform="rotate(90 44.447 153.05)" d="M29.981 151.044h28.93v4.013h-28.93z"/><path class="cls-8" transform="rotate(90 60.006 153.05)" d="M45.541 151.044h28.93v4.013h-28.93z"/><path class="cls-8" transform="rotate(90 75.567 153.05)" d="M61.101 151.044h28.93v4.013h-28.93z"/><path class="cls-8" transform="rotate(90 90.123 153.05)" d="M75.658 152.047h28.93v2.006h-28.93z"/><path class="cls-8" transform="rotate(90 29.89 153.05)" d="M15.425 152.047h28.93v2.006h-28.93z"/><path class="cls-5" d="M28.887 132.896h62.239v5.35H28.887z"/><path class="cls-7" d="M28.887 95.574h62.239v30.268H28.887z"/><path class="cls-8" d="M28.887 89.884h62.239v8.025H28.887zM28.887 123.166h62.239v2.675H28.887z"/><path class="cls-8" d="M28.887 95.573h62.239v2.675H28.887zM28.887 115.087h62.239v1.338H28.887z"/><path class="cls-8" transform="rotate(90 44.447 110.039)" d="M29.981 108.032h28.93v4.013h-28.93z"/><path class="cls-8" transform="rotate(90 60.006 110.038)" d="M45.541 108.032h28.93v4.013h-28.93z"/><path class="cls-8" transform="rotate(90 75.566 110.039)" d="M61.101 108.032h28.93v4.013h-28.93z"/><path class="cls-8" transform="rotate(90 90.123 110.039)" d="M75.658 109.036h28.93v2.006h-28.93z"/><path class="cls-8" transform="rotate(90 29.89 110.039)" d="M15.425 109.036h28.93v2.006h-28.93z"/><path class="cls-5" d="M28.887 89.884h62.239v5.35H28.887z"/><path class="cls-7" d="M272.893 138.585h31.12v30.268h-31.12z"/><path class="cls-8" d="M272.893 132.896h31.12v8.025h-31.12zM272.893 166.178h31.12v2.675h-31.12z"/><path class="cls-8" d="M272.893 138.585h31.12v2.675h-31.12zM272.893 158.098h31.12v1.338h-31.12z"/><path class="cls-8" transform="rotate(90 288.453 153.05)" d="M273.988 151.044h28.93v4.013h-28.93z"/><path class="cls-8" transform="rotate(90 303.01 153.05)" d="M288.545 152.047h28.93v2.006h-28.93z"/><path class="cls-8" transform="rotate(90 273.897 153.05)" d="M259.431 152.047h28.93v2.006h-28.93z"/><path class="cls-5" d="M272.893 132.896h31.12v5.35h-31.12z"/><path class="cls-7" d="M122.678 138.585h31.12v30.268h-31.12z"/><path class="cls-8" d="M122.678 132.896h31.12v8.025h-31.12zM122.678 166.178h31.12v2.675h-31.12z"/><path class="cls-8" d="M122.678 138.585h31.12v2.675h-31.12zM122.678 158.098h31.12v1.338h-31.12z"/><path class="cls-8" transform="rotate(90 138.238 153.05)" d="M123.772 151.044h28.93v4.013h-28.93z"/><path class="cls-8" transform="rotate(90 152.795 153.05)" d="M138.329 152.047h28.93v2.006h-28.93z"/><path class="cls-8" transform="rotate(90 123.681 153.05)" d="M109.216 152.047h28.93v2.006h-28.93z"/><path class="cls-5" d="M122.678 132.896h31.12v5.35h-31.12z"/><path class="cls-7" d="M122.678 200.428h31.12v30.268h-31.12z"/><path class="cls-8" d="M122.678 194.739h31.12v8.025h-31.12zM122.678 228.021h31.12v2.675h-31.12z"/><path class="cls-8" d="M122.678 200.428h31.12v2.675h-31.12zM122.678 219.941h31.12v1.338h-31.12z"/><path class="cls-8" transform="rotate(90 138.237 214.894)" d="M123.772 212.887h28.93v4.013h-28.93z"/><path class="cls-8" transform="rotate(90 152.794 214.894)" d="M138.329 213.89h28.93v2.006h-28.93z"/><path class="cls-8" transform="rotate(90 123.68 214.894)" d="M109.216 213.89h28.93v2.006h-28.93z"/><path class="cls-5" d="M122.678 194.739h31.12v5.35h-31.12z"/><path class="cls-7" d="M122.678 94.208h31.12v30.268h-31.12z"/><path class="cls-8" d="M122.678 88.519h31.12v8.025h-31.12zM122.678 121.801h31.12v2.675h-31.12z"/><path class="cls-8" d="M122.678 94.208h31.12v2.675h-31.12zM122.678 113.721h31.12v1.338h-31.12z"/><path class="cls-8" transform="rotate(90 138.238 108.674)" d="M123.772 106.667h28.93v4.013h-28.93z"/><path class="cls-8" transform="rotate(90 152.794 108.674)" d="M138.329 107.67h28.93v2.006h-28.93z"/><path class="cls-8" transform="rotate(90 123.68 108.674)" d="M109.216 107.67h28.93v2.006h-28.93z"/><path class="cls-5" d="M122.678 88.519h31.12v5.35h-31.12z"/><path class="cls-7" d="M272.877 94.208h31.12v30.268h-31.12z"/><path class="cls-8" d="M272.877 88.519h31.12v8.025h-31.12zM272.877 121.801h31.12v2.675h-31.12z"/><path class="cls-8" d="M272.877 94.208h31.12v2.675h-31.12zM272.877 113.721h31.12v1.338h-31.12z"/><path class="cls-8" transform="rotate(90 288.438 108.674)" d="M273.972 106.667h28.93v4.013h-28.93z"/><path class="cls-8" transform="rotate(90 302.993 108.674)" d="M288.529 107.67h28.93v2.006h-28.93z"/><path class="cls-8" transform="rotate(90 273.88 108.674)" d="M259.415 107.67h28.93v2.006h-28.93z"/><path class="cls-5" d="M272.877 88.519h31.12v5.35h-31.12z"/><path class="cls-7" d="M181.535 188.021h62.239v30.268h-62.239z"/><path class="cls-8" d="M181.535 182.331h62.239v8.025h-62.239zM181.535 215.613h62.239v2.675h-62.239z"/><path class="cls-8" d="M181.535 188.021h62.239v2.675h-62.239zM181.535 207.534h62.239v1.338h-62.239z"/><path class="cls-8" transform="rotate(90 197.095 202.486)" d="M182.63 200.48h28.93v4.013h-28.93z"/><path class="cls-8" transform="rotate(90 212.655 202.486)" d="M198.19 200.48h28.93v4.013h-28.93z"/><path class="cls-8" transform="rotate(90 228.214 202.486)" d="M213.749 200.48h28.93v4.013h-28.93z"/><path class="cls-8" transform="rotate(90 242.772 203.845)" d="M228.306 202.841h28.93v2.006h-28.93z"/><path class="cls-8" transform="rotate(90 182.538 202.486)" d="M168.073 201.483h28.93v2.006h-28.93z"/><path class="cls-5" d="M181.535 182.331h62.239v5.35h-62.239z"/><path class="cls-5" transform="rotate(-45 212.655 24.514)" d="M209.98 21.839h5.35v5.35h-5.35z"/><path class="cls-5" transform="rotate(-45 212.655 32.08)" d="M209.98 29.405h5.35v5.35h-5.35z"/><path class="cls-9" d="M117.784 242.733h81.317v35.055h-81.317z"/><path class="cls-8" d="M117.784 239.192h81.317v3.541h-81.317z"/><path class="cls-3" d="M234.414 186.243h177.717v9.363H234.414z"/><path class="cls-7" d="M253.645 199.518h63.802v64.483h-63.802zM17.523 199.518h84.966v64.483H17.523z"/><path class="cls-9" d="M243.775 195.606h9.539v68.395h-9.539zM92.951 195.606h9.539v68.395h-9.539zM17.523 195.606h9.539v68.395h-9.539zM55.237 195.606h9.539v68.395h-9.539zM317.447 195.606h9.539v68.395h-9.539z"/><path class="cls-5" d="M412.131 195.606H234.414l2.822 3.973H409.31l2.821-3.973z"/><path class="cls-2" d="M13.279 186.243h100.769v9.363H13.279z"/><path class="cls-5" d="M114.049 195.606H13.279l1.6 3.912h97.57l1.6-3.912z"/><path class="cls-10" d="M30.662 204.969H89.35v12.093H30.662z"/><path class="cls-8" transform="rotate(90 286.617 231.614)" d="M254.581 229.607h64.07v4.013h-64.07z"/><path d="M17.523 266.127c-17.489 0-19.078-21.084-16.606-23.187s8.147 3.419 9.761-.029-6.73-12.028-7.437-14.306.366-4.64 5.759-2.105 4.939-3.574 3.089-6.611c-1.589-2.608-6.508-9.914-2.666-9.859 2.29.033 3.787 7.172 6 2.457 2.672-5.689-.276-14.975 2.1-15.092 2.372.117 3.958 5.125 2.6 11.5-1.082 5.094 3.653-.242 5.492 1.136 3.075 2.305-1.405 8.419-2.665 9.859s-2.308 7.775 3.089 5.244 6.469-.17 5.762 2.108-7.2 7.309-5.582 10.757 5.434-1.714 7.906.389.887 27.739-16.602 27.739Z" style="fill:#bac751"/><path class="cls-12" d="M36.62 213.748v-5.211a.1.1 0 0 1 .093-.1H38.5a1.488 1.488 0 0 1 1.625 1.426 1.074 1.074 0 0 1-.415.875 1.519 1.519 0 0 1 .907 1.359 1.711 1.711 0 0 1-1.891 1.746h-2.013a.1.1 0 0 1-.093-.095Zm2.355-3.762a.472.472 0 0 0-.469-.477H37.8v.949h.711a.47.47 0 0 0 .464-.472Zm.359 2.1a.633.633 0 0 0-.687-.625H37.8v1.247h.852a.631.631 0 0 0 .682-.625ZM41.065 211.142a2.809 2.809 0 1 1 2.809 2.785 2.8 2.8 0 0 1-2.809-2.785Zm4.348 0a1.542 1.542 0 1 0-1.539 1.59 1.54 1.54 0 0 0 1.539-1.59ZM47.174 211.142a2.809 2.809 0 1 1 2.809 2.785 2.8 2.8 0 0 1-2.809-2.785Zm4.348 0a1.542 1.542 0 1 0-1.539 1.59 1.54 1.54 0 0 0 1.539-1.59ZM53.706 213.736v-5.192c0-.14.293-.14.589-.14s.586 0 .586.14v1.993l1.684-2.032c.062-.1.418-.1.773-.1.3 0 .606 0 .606.117a.124.124 0 0 1-.027.07l-1.946 2.367 2.219 2.727a.127.127 0 0 1 .027.07c0 .121-.308.121-.617.121-.363 0-.723 0-.793-.1l-1.926-2.363v2.32c0 .144-.293.144-.586.144s-.589-.002-.589-.142ZM58.569 213.162a.109.109 0 0 1-.024-.071 1 1 0 0 1 .227-.429c.141-.188.3-.371.4-.371a.056.056 0 0 1 .043.015 2.174 2.174 0 0 0 1.254.492c.563 0 .84-.211.84-.48 0-.317-.4-.485-.852-.672-.7-.289-1.671-.691-1.671-1.688 0-.925.8-1.6 2.011-1.6a2.655 2.655 0 0 1 1.727.586.108.108 0 0 1 .027.078 1.06 1.06 0 0 1-.191.445c-.137.207-.293.418-.422.418a.129.129 0 0 1-.07-.023 1.835 1.835 0 0 0-1.068-.362c-.5 0-.742.179-.742.433s.352.4.77.567c.718.289 1.761.71 1.761 1.82 0 .93-.925 1.609-2.117 1.609a2.64 2.64 0 0 1-1.903-.767ZM64.635 213.736v-4.16h-1.511c-.137 0-.137-.285-.137-.571s0-.566.14-.566h4.192c.14 0 .14.281.14.566s0 .571-.14.571h-1.508v4.156c0 .144-.3.144-.59.144s-.586 0-.586-.14ZM67.432 211.142a2.809 2.809 0 1 1 2.809 2.785 2.8 2.8 0 0 1-2.809-2.785Zm4.348 0a1.542 1.542 0 1 0-1.539 1.59 1.54 1.54 0 0 0 1.539-1.59ZM73.963 213.736v-5.2a.1.1 0 0 1 .094-.1H76.3a1.659 1.659 0 0 1 1.653 1.727 1.617 1.617 0 0 1-.844 1.472L78.2 213.7a.138.138 0 0 1 .015.058c0 .121-.273.121-.543.121-.312 0-.625 0-.675-.105l-.946-1.879h-.91v1.844c0 .14-.3.14-.59.14s-.588-.003-.588-.143Zm2.75-3.567a.589.589 0 0 0-.589-.593h-.985v1.187h.985a.589.589 0 0 0 .589-.594ZM78.975 213.744v-5.2a.094.094 0 0 1 .094-.1h3.539c.148 0 .152.281.152.566s0 .571-.152.571h-2.457v.953h2.055c.14 0 .144.25.144.5s0 .5-.141.5h-2.058v1.183h2.457c.148 0 .152.281.152.57s0 .57-.152.57h-3.539a.1.1 0 0 1-.094-.113Z"/><path class="cls-10" d="M129.914 247.562h58.688v24.522h-58.688z"/><path class="cls-7" d="M137.478 259.474a.183.183 0 0 1-.051-.125v-9.462a.179.179 0 0 1 .051-.124.158.158 0 0 1 .119-.054h3.243a3.571 3.571 0 0 1 1.429.295 2.614 2.614 0 0 1 1.1.884 2.353 2.353 0 0 1 .422 1.411 2.235 2.235 0 0 1-.195.905 1.556 1.556 0 0 1-.557.684 2.451 2.451 0 0 1 .829.564 2.9 2.9 0 0 1 .6.875 2.513 2.513 0 0 1 .221 1.029 3.112 3.112 0 0 1-.483 1.784 2.879 2.879 0 0 1-1.262 1.05 4.222 4.222 0 0 1-1.688.336H137.6a.16.16 0 0 1-.122-.052Zm3.978-6.349a.833.833 0 0 0 .249-.607.846.846 0 0 0-.249-.613.817.817 0 0 0-.6-.251h-1.291v1.723h1.291a.81.81 0 0 0 .6-.252Zm.288 4.192a1.07 1.07 0 0 0 .449-.4 1.1 1.1 0 0 0-.449-1.585 1.41 1.41 0 0 0-.635-.142h-1.546v2.262h1.546a1.448 1.448 0 0 0 .635-.135ZM145.248 259.544c-.177-.026-.266-.091-.266-.195a.236.236 0 0 1 .022-.091l4.525-9.583a.193.193 0 0 1 .131-.107 1.182 1.182 0 0 1 .245-.021 1.122 1.122 0 0 1 .24.021.194.194 0 0 1 .129.107l4.524 9.583a.329.329 0 0 1 .028.091c0 .1-.091.164-.276.192a5.614 5.614 0 0 1-.8.041c-.392 0-.693-.011-.908-.034s-.337-.081-.375-.171l-.624-1.517h-3.873l-.632 1.517c-.037.09-.164.147-.378.171s-.52.034-.911.034a6.032 6.032 0 0 1-.801-.038Zm5.841-3.423-1.171-2.73-1.176 2.73ZM156.065 259.541c-.178-.028-.266-.1-.266-.214V249.9c0-.114.088-.185.266-.213a7.491 7.491 0 0 1 1.6 0c.177.028.266.1.266.213v3.617l3.057-3.688c.052-.081.19-.131.417-.153s.557-.032.987-.032a7.45 7.45 0 0 1 .823.035c.184.025.277.084.277.178a.234.234 0 0 1-.05.128l-3.533 4.3 4.029 4.951a.227.227 0 0 1 .049.127c0 .1-.093.161-.279.185a7.544 7.544 0 0 1-.84.034c-.441 0-.777-.009-1.009-.031s-.375-.071-.432-.152l-3.5-4.291v4.213c0 .118-.089.192-.266.22a7.855 7.855 0 0 1-1.6 0ZM164.954 259.474a.188.188 0 0 1-.05-.131V249.9a.18.18 0 0 1 .05-.129.173.173 0 0 1 .12-.049l6.428-.008c.116 0 .192.089.227.264a4.658 4.658 0 0 1 .049.766 4.713 4.713 0 0 1-.049.773c-.035.175-.111.262-.227.262h-4.462v1.731l3.73-.007c.114 0 .186.076.216.231a5 5 0 0 1 0 1.353c-.03.155-.1.232-.209.232h-3.737v2.148l4.462-.007c.116 0 .192.088.227.263a6.1 6.1 0 0 1 0 1.543c-.035.176-.111.265-.227.265h-6.428a.164.164 0 0 1-.12-.057ZM173.639 259.541c-.178-.028-.266-.1-.266-.214v-9.44a.173.173 0 0 1 .049-.124.162.162 0 0 1 .121-.054h4.071a2.949 2.949 0 0 1 2.588 1.5 3.225 3.225 0 0 1 .413 1.633 3.09 3.09 0 0 1-.419 1.606 2.769 2.769 0 0 1-1.113 1.067l1.978 3.739a.23.23 0 0 1 .028.105c0 .1-.083.161-.247.185a5.869 5.869 0 0 1-.738.034 8.587 8.587 0 0 1-.866-.031c-.2-.021-.319-.074-.361-.159l-1.717-3.413h-1.652v3.348c0 .113-.091.186-.271.214a5.5 5.5 0 0 1-.8.041 5.441 5.441 0 0 1-.798-.037Zm4.2-5.756a1.088 1.088 0 0 0 .389-1.472 1.081 1.081 0 0 0-.389-.394 1.065 1.065 0 0 0-.539-.145h-1.788v2.156h1.788a1.065 1.065 0 0 0 .535-.145ZM137.346 270.759v-8.781c0-.231.5-.238 1-.238s.991.007.991.238v3.211h4.327v-3.211c0-.231.5-.238.991-.238s.991.007.991.238v8.775c0 .237-.5.244-.991.244s-.991-.007-.991-.238v-3.647h-4.327v3.641c0 .237-.5.244-.991.244s-1-.007-1-.238ZM147 266.372a4.751 4.751 0 1 1 4.751 4.711 4.729 4.729 0 0 1-4.751-4.711Zm7.355 0a2.608 2.608 0 1 0-2.6 2.689 2.606 2.606 0 0 0 2.595-2.689ZM157.808 268.182v-6.2c0-.238.5-.238.991-.238s.991 0 .991.245v5.622a1.716 1.716 0 0 0 3.389 0v-5.629c0-.238.5-.238 1-.238s.991 0 .991.245v6.2c0 1.619-1.481 2.894-3.681 2.894-2.334-.007-3.681-1.374-3.681-2.901ZM166.267 269.788a.182.182 0 0 1-.04-.119 1.685 1.685 0 0 1 .383-.727c.239-.317.509-.628.681-.628a.1.1 0 0 1 .072.027 3.682 3.682 0 0 0 2.121.833c.951 0 1.421-.358 1.421-.814 0-.535-.674-.819-1.44-1.136-1.19-.489-2.828-1.17-2.828-2.854 0-1.566 1.361-2.709 3.4-2.709a4.489 4.489 0 0 1 2.921.991.179.179 0 0 1 .046.132 1.782 1.782 0 0 1-.323.753c-.232.35-.5.707-.714.707a.216.216 0 0 1-.119-.039 3.1 3.1 0 0 0-1.811-.614c-.846 0-1.255.3-1.255.733s.595.674 1.3.958c1.216.488 2.979 1.2 2.979 3.078 0 1.573-1.565 2.723-3.581 2.723a4.468 4.468 0 0 1-3.213-1.295ZM174.421 270.772v-8.8a.159.159 0 0 1 .159-.165l5.985-.006c.251 0 .258.475.258.958s-.007.964-.258.964h-4.155v1.613l3.475-.007c.238 0 .245.423.245.846s-.007.845-.238.845h-3.482v2l4.155-.007c.251 0 .258.476.258.965s-.007.965-.258.965h-5.985a.168.168 0 0 1-.159-.171Z"/></g><path id="Hover" d="M408.559 186.243V64.594h-84.966v9.111h-70.28V28.3h-12.919L212.326 0l-28.068 28.3H172v45.405h-69.51v-9.111H17.523v121.649h-4.244v9.363l1.6 3.912h1.662c-.145 3.1.782 8.93-1.114 12.966-2.213 4.715-3.71-2.424-6-2.457-3.843-.055 1.076 7.251 2.665 9.859 1.85 3.037 2.307 9.142-3.089 6.611s-6.469-.17-5.763 2.108 9.05 10.859 7.437 14.306-7.289-2.074-9.761.029-.883 23.187 16.606 23.187A14.662 14.662 0 0 0 25.334 264h92.45v13.787H199.1V264h127.886v-.352h81.573v-64.07h.751l2.821-3.973v-9.363Z" style="fill:#1f5e30;mix-blend-mode:hue"/></g></g></svg>