<svg xmlns="http://www.w3.org/2000/svg" width="347.38" height="300.501" viewBox="0 0 347.38 300.501"><defs><style>.cls-1 {
  isolation: isolate;
}

.cls-2 {
  fill: #b3c9df;
}

.cls-3 {
  fill: #496d80;
}

.cls-4 {
  fill: #744b51;
}

.cls-5 {
  fill: #513740;
}

.cls-6, .cls-8 {
  fill: #75919e;
}

.cls-7 {
  fill: #97b2bc;
}

.cls-8 {
  mix-blend-mode: multiply;
}

.cls-9 {
  fill: #658096;
}

.cls-10 {
  fill: #7c575d;
}

.cls-11 {
  fill: none;
  stroke: #496d80;
  stroke-linecap: round;
  stroke-miterlimit: 10;
  stroke-width: 1.75px;
}

.cls-12 {
  fill: #c5c2b5;
}

.cls-13 {
  fill: #273918;
}

.cls-14 {
  fill: #1f5e30;
  mix-blend-mode: hue;
}

</style></defs><g class="cls-1"><g id="Building_B" data-name="Building B"><g id="Building"><rect class="cls-2" x="1.421" y="109.695" width="94.832" height="125.81"></rect><path class="cls-3" d="M263.151,246.338H9.973S30.4,259.451,43.564,300.5c111.129-36.489,218.979-33.486,218.979-33.486Z"></path><rect class="cls-4" x="96.254" y="83.889" width="160.398" height="155.037"></rect><polygon class="cls-4" points="136.163 85.94 136.163 254.765 176.603 254.765 174.932 82.139 136.163 85.94"></polygon><polygon class="cls-5" points="213.701 85.94 213.701 254.765 174.932 254.765 174.932 82.139 213.701 85.94"></polygon><rect class="cls-6" x="138.729" y="104.564" width="15.964" height="64.425"></rect><rect class="cls-6" x="157.638" y="104.564" width="15.964" height="64.425"></rect><polygon class="cls-7" points="154.693 131.671 138.729 138.671 138.729 104.564 154.693 104.564 154.693 131.671"></polygon><polygon class="cls-7" points="173.602 122.921 157.638 129.921 157.638 104.564 173.602 104.564 173.602 122.921"></polygon><rect class="cls-6" x="176.548" y="104.564" width="15.964" height="64.425"></rect><rect class="cls-6" x="195.457" y="104.564" width="15.964" height="64.425"></rect><polygon class="cls-4" points="176.833 0 96.254 79.059 256.652 79.059 176.833 0"></polygon><rect class="cls-6" x="120.199" y="112.356" width="15.964" height="56.633"></rect><polygon class="cls-8" points="136.163 168.99 120.199 168.99 120.199 145.671 136.163 138.671 136.163 168.99"></polygon><polygon class="cls-5" points="136.163 166.975 123.114 166.975 123.114 115.305 136.163 115.305 136.163 109.695 117.919 109.695 117.919 172.41 136.163 172.41 136.163 166.975"></polygon><rect class="cls-6" x="213.701" y="112.356" width="15.964" height="56.633" transform="translate(443.367 281.346) rotate(-180)"></rect><polygon class="cls-8" points="213.701 168.99 229.665 168.99 229.665 145.671 213.701 138.671 213.701 168.99"></polygon><polygon class="cls-5" points="213.701 166.975 226.751 166.975 226.751 115.305 213.701 115.305 213.701 109.695 231.946 109.695 231.946 172.41 213.701 172.41 213.701 166.975"></polygon><polygon class="cls-5" points="136.163 103.377 136.163 109.695 174.932 105.895 174.932 99.433 136.163 103.377"></polygon><polygon class="cls-5" points="213.701 103.377 213.701 109.695 174.932 105.895 174.932 99.433 213.701 103.377"></polygon><polygon class="cls-2" points="136.163 79.621 136.163 85.94 174.932 82.139 174.932 75.678 136.163 79.621"></polygon><polygon class="cls-9" points="213.701 79.621 213.701 85.94 174.932 82.139 174.932 75.678 213.701 79.621"></polygon><polygon class="cls-5" points="136.163 169.227 136.163 175.546 174.932 171.745 174.932 165.284 136.163 169.227"></polygon><polygon class="cls-5" points="213.701 169.227 213.701 175.546 174.932 171.745 174.932 165.284 213.701 169.227"></polygon><polygon class="cls-10" points="176.603 40.092 136.163 79.621 174.932 75.678 176.603 40.092"></polygon><polygon class="cls-5" points="213.701 79.621 176.603 40.092 174.932 75.678 213.701 79.621"></polygon><polygon class="cls-4" points="9.973 225.118 117.919 225.118 117.919 238.231 262.543 238.231 262.543 254.765 9.973 254.765 9.973 225.118"></polygon><rect class="cls-3" x="1.421" y="217.831" width="261.122" height="5.131"></rect><line class="cls-11" x1="21.946" y1="220.397" x2="21.946" y2="235.505"></line><line class="cls-11" x1="65.181" y1="220.397" x2="65.181" y2="235.505"></line><line class="cls-11" x1="86.799" y1="220.397" x2="86.799" y2="235.505"></line><line class="cls-11" x1="108.417" y1="220.397" x2="108.417" y2="235.505"></line><line class="cls-11" x1="43.564" y1="220.397" x2="43.564" y2="235.505"></line><rect class="cls-10" x="1.421" y="138.833" width="90.651" height="30.787"></rect><rect class="cls-3" y="143.419" width="87.128" height="21.615"></rect><rect class="cls-10" x="1.421" y="178.332" width="90.651" height="30.787"></rect><rect class="cls-3" y="182.918" width="87.128" height="21.615"></rect><path class="cls-12" d="M262.543,267.015h0Z"></path><path class="cls-12" d="M174.057,268.177v4.1l1.75-.207v-3.886l39.274.26c17.635-1.171,31.266-1.452,39.305-1.489L27.235,265.452c.377.57.757,1.158,1.137,1.758l14.317.1v6.526L32.31,273.9q.469.857.937,1.744l9.442-.063v22.291c.293.869.588,1.733.875,2.628h0c.291-.1.582-.187.874-.282V275.569l14.671-.1V295.64c.584-.174,1.167-.341,1.75-.512V275.459l14.671-.1v15.65c.584-.156,1.167-.309,1.75-.463v-15.2l14.671-.1v11.606l1.75-.417v-11.2l14.671-.1v8c.583-.124,1.169-.252,1.75-.374v-7.643l14.671-.1v4.819c.586-.11,1.166-.215,1.75-.323V275.02l14.671-.1v2.036c.583-.1,1.169-.194,1.75-.288V274.91l11.954-.08q6.87-1,13.452-1.841l-8.984.061v-4.97ZM59.11,273.721l-14.671.1v-6.5l14.671.1Zm16.421-.11-14.671.1v-6.283l14.671.1Zm16.421-.11-14.671.1v-6.064l14.671.1Zm16.421-.11-14.671.1v-5.845l14.671.1Zm16.421-.11-14.671.1v-5.626l14.671.1Zm16.421-.11-14.671.1v-5.408l14.671.1Zm16.422-.11-14.672.1v-5.189l14.672.1Z"></path><path class="cls-13" d="M280.069,289.174c67.179,0,73.284-80.987,63.787-89.066s-31.294,13.134-37.492-.11,25.851-46.2,28.565-54.954-1.4-17.822-22.135-8.1-18.973-13.726-11.865-25.393c6.1-10.017,25-38.082,10.238-37.87-8.794.126-14.544,27.547-23.047,9.438-10.263-21.855,1.06-57.523-8.051-57.972-9.111.449-15.2,19.685-10,44.169,4.158,19.569-14.031-.931-21.1,4.365-11.81,8.852,5.4,32.339,10.238,37.87s8.865,29.866-11.865,20.143-24.85-.653-22.135,8.1,27.641,28.074,21.443,41.318-20.874-6.583-30.37,1.5S212.891,289.174,280.069,289.174Z"></path><rect class="cls-2" x="96.732" y="78.813" width="39.304" height="5.565"></rect><rect class="cls-2" x="213.949" y="78.813" width="39.304" height="5.565"></rect></g><path id="Hover" class="cls-14" d="M343.856,200.108c-9.5-8.079-31.294,13.135-37.492-.11s25.851-46.2,28.565-54.953-1.4-17.823-22.135-8.1-18.973-13.726-11.865-25.393c6.1-10.017,25-38.082,10.238-37.87-8.794.126-14.544,27.547-23.047,9.438-10.263-21.855,1.06-57.523-8.051-57.971-9.111.448-15.2,19.684-10,44.168,3.886,18.289-11.745,1.583-19.574,3.64L176.833,0,96.254,79.059h.478v4.83h-.478V109.7H1.421v33.724H0v21.614H1.421v17.885H0v21.615H1.421v30.972H9.973v19.26h9.1a95.827,95.827,0,0,1,8.764,11.622c.177.275.354.542.532.823h0q1.953,3.075,3.939,6.691.468.855.936,1.743h0A153.578,153.578,0,0,1,43.564,300.5h0c.291-.1.582-.187.874-.282h0q7.35-2.4,14.671-4.578h0c.584-.174,1.167-.341,1.75-.512h0q7.367-2.166,14.671-4.118h0c.584-.156,1.167-.309,1.75-.463h0q7.383-1.95,14.671-3.691h0l1.75-.417h0q7.4-1.749,14.671-3.294h0c.58-.123,1.162-.25,1.741-.372q7.426-1.562,14.68-2.924h0l.594-.109c10.17-1.906,20.046-3.528,29.535-4.912q6.864-1,13.441-1.839c1.929-.246,3.844-.485,5.733-.712l1.71-.2h0c14.5-1.711,27.742-2.86,39.274-3.626h0c7.244-.481,13.8-.81,19.583-1.035,10.4,12.767,25.112,21.76,45.405,21.76C347.248,289.174,353.353,208.187,343.856,200.108Zm-87.2-66.2V108.378c1.01,1.333,1.9,2.424,2.557,3.175C263.127,116.031,266.507,132.829,256.652,133.905Zm-42.7-50.016H213.7V79.621l-.527-.562h.775Zm-21.167,0h0l-17.85-1.75Zm-56.746-4.83h.7l-.575.562v4.268h-.127Z"></path></g></g></svg>