<svg xmlns="http://www.w3.org/2000/svg" width="490.148" height="336.738" viewBox="0 0 490.148 336.738"><defs><style>.cls-1 {
  isolation: isolate;
}

.cls-2 {
  fill: #c2c1c0;
}

.cls-3 {
  fill: #1f3c49;
}

.cls-4 {
  fill: #8e4e2c;
}

.cls-5 {
  fill: #496d80;
}

.cls-6 {
  fill: #bed7e0;
}

.cls-7 {
  fill: #69a394;
}

.cls-8 {
  fill: #9f5f3a;
}

.cls-9 {
  fill: #7abcac;
}

.cls-10 {
  fill: #618493;
}

.cls-11, .cls-12, .cls-13 {
  fill: none;
  stroke-miterlimit: 10;
}

.cls-11 {
  stroke: #bed7e0;
}

.cls-11, .cls-13 {
  stroke-width: 1.9px;
}

.cls-12, .cls-13 {
  stroke: #375866;
}

.cls-12 {
  stroke-width: .95px;
}

.cls-14 {
  fill: #6d3a24;
}

.cls-15 {
  fill: #b2b3b2;
}

.cls-16 {
  fill: #e4e5e3;
}

.cls-17 {
  fill: #dce1e5;
  mix-blend-mode: multiply;
}

</style></defs><g class="cls-1"><g id="Building_S" data-name="Building S"><g id="Building"><polygon class="cls-2" points="0 234.271 0 143.299 211.431 63.757 243.784 0 460.435 83.192 457.477 220.299 463.337 220.299 481.688 336.738 254.926 262.71 175.921 261.659 5.137 234.396 0 234.271"></polygon><polygon class="cls-3" points="481.688 38.791 462.912 173.321 433.266 54.472 481.688 38.791"></polygon><polygon class="cls-2" points="481.688 38.791 391.633 62.29 416.074 70.154 481.688 52.409 481.688 38.791"></polygon><polygon class="cls-3" points="394.202 248.22 457.031 254.41 457.477 106.569 388.464 88.208 394.202 248.22"></polygon><rect class="cls-4" x="433.266" y="65.504" width="30.883" height="136.299"></rect><polygon class="cls-4" points="5.137 234.396 5.137 146.085 212.215 76.137 245.641 19.189 417.724 76.137 217.167 250.696 28.371 230.888 5.137 234.396"></polygon><polygon class="cls-5" points="394.202 248.22 254.926 269.266 254.926 33.958 394.202 77.375 394.202 248.22"></polygon><polygon class="cls-6" points="28.371 143.299 28.371 230.888 211.431 250.094 211.431 84.803 28.371 143.299"></polygon><polygon class="cls-7" points="30.538 146.085 30.538 161.25 202.621 122.563 202.621 95.017 30.538 146.085"></polygon><polygon class="cls-8" points="68.606 130.442 68.606 157.227 77.582 155.989 77.582 127.574 68.606 130.442"></polygon><polygon class="cls-9" points="30.538 179.201 30.538 192.51 202.621 179.201 202.621 151.965 30.538 179.201"></polygon><polygon class="cls-8" points="30.538 173.011 30.538 198.081 59.012 197.131 59.012 168.059 30.538 173.011"></polygon><polygon class="cls-7" points="32.699 178.859 32.865 192.33 202.621 179.201 202.621 151.965 32.699 178.859"></polygon><polygon class="cls-8" points="107.294 165.914 107.294 202.724 111.008 202.724 111.008 165.313 107.294 165.914"></polygon><rect class="cls-8" x="54.369" y="172.857" width="4.643" height="21.665"></rect><polygon class="cls-8" points="140.411 107.497 140.411 113.479 202.724 95.739 202.621 122.563 211.431 120.757 211.431 84.803 140.411 107.497"></polygon><polygon class="cls-10" points="253.069 33.013 217.167 87.486 217.167 250.696 253.069 269.885 253.069 33.013"></polygon><polyline class="cls-11" points="211.431 216.519 253.482 224.079 306.716 220.778"></polyline><line class="cls-12" x1="283.401" y1="43.33" x2="283.401" y2="266.79"></line><line class="cls-12" x1="335.087" y1="63.757" x2="335.087" y2="257.01"></line><line class="cls-12" x1="413.734" y1="63.757" x2="413.734" y2="250.094"></line><line class="cls-12" x1="355.428" y1="70.154" x2="355.428" y2="248.857"></line><line class="cls-12" x1="394.202" y1="77.375" x2="394.202" y2="248.22"></line><line class="cls-13" x1="253.998" y1="33.958" x2="253.998" y2="266.79"></line><line class="cls-12" x1="243.165" y1="51.996" x2="243.165" y2="266.79"></line><line class="cls-12" x1="233.261" y1="67.648" x2="233.261" y2="261.659"></line><line class="cls-12" x1="225.833" y1="76.637" x2="225.833" y2="257.505"></line><polygon class="cls-6" points="217.167 87.486 253.069 33.013 386.465 74.59 386.465 81.708 253.069 46.116 217.167 95.017 217.167 87.486"></polygon><line class="cls-11" x1="211.431" y1="206.747" x2="306.716" y2="206.747"></line><polyline class="cls-11" points="211.431 201.803 253.069 199.319 306.716 200.402"></polyline><polyline class="cls-11" points="211.431 197.073 253.379 192.819 306.716 192.819"></polyline><polyline class="cls-11" points="211.431 192.51 253.998 186.01 306.716 187.558"></polyline><polygon class="cls-6" points="305.272 56.02 305.272 261.659 314.139 260.319 314.394 56.02 305.272 56.02"></polygon><polyline class="cls-11" points="305.272 113.484 253.276 105.437 211.184 140.514"></polyline><polyline class="cls-11" points="305.272 119.88 253.069 112.659 211.184 144.64"></polyline><polyline class="cls-11" points="305.272 125.451 252.863 118.23 210.358 149.592"></polyline><polyline class="cls-11" points="305.272 131.641 252.863 124.42 211.184 153.306"></polyline><polyline class="cls-11" points="305.272 144.64 252.863 140.514 211.184 162.798"></polyline><polygon class="cls-14" points="437.945 111.421 433.266 173.94 324.564 184.463 324.564 126.017 471.887 63.757 437.945 111.421"></polygon><polygon class="cls-15" points="315.382 117.611 315.382 192.716 330.238 192.716 330.238 126.017 392.139 100.278 437.945 111.421 426.39 134.53 426.39 181.987 437.945 176.622 437.945 129.991 487.465 52.409 315.382 117.611"></polygon><path class="cls-15" d="M490.148,161.25s-5.881,24.652-49.83,42.812c-48.9,1.447-124.936.361-124.936.361Z"></path><path class="cls-16" d="M308.78,108.326v95.736s77.375,7.018,168.988-30.741l12.173-11.968L321.16,180.336V124.213l166.3-71.8-2.888-4.952S386.774,60.662,308.78,108.326Z"></path><polygon class="cls-6" points="319.509 219.54 319.509 259.507 384.711 249.655 384.711 216.651 319.509 219.54"></polygon><polygon class="cls-3" points="340.071 253.55 353.679 251.494 353.679 223.009 340.071 223.799 340.071 253.55"></polygon><polygon class="cls-3" points="367.782 222.191 356.03 222.873 356.03 251.138 367.782 249.363 367.782 222.191"></polygon><polygon class="cls-3" points="368.957 222.123 368.957 249.185 380.591 247.427 380.591 221.448 368.957 222.123"></polygon><polygon class="cls-3" points="338.895 223.867 324.564 224.698 324.564 255.893 338.895 253.728 338.895 223.867"></polygon><polygon class="cls-7" points="324.564 155.989 324.564 179.953 433.266 167.728 433.266 149.799 378.915 143.299 324.564 155.989"></polygon><path class="cls-16" d="M401.033,97.8,357.681,284.741s.928,3.405,4.023,4.024,6.191.309,7.429-1.238S407.2,97.8,407.2,97.8Z"></path><path class="cls-16" d="M429.176,107.707s-.31,153.822,0,161.869c6.19,4.642,10.832,0,10.832,0l-5.485-161.869Z"></path><ellipse class="cls-16" cx="404.117" cy="97.802" rx="3.084" ry="1.315"></ellipse><ellipse class="cls-16" cx="431.857" cy="107.707" rx="2.666" ry="1.137"></ellipse><rect class="cls-4" x="211.431" y="132.263" width="5.737" height="103.113"></rect><polygon class="cls-17" points="375.768 206.747 386.703 201.803 387.196 199.319 377.203 200.561 375.768 206.747"></polygon><polygon class="cls-17" points="392.545 172.308 383.536 173.321 384.749 168.02 393.391 168.02 392.545 172.308"></polygon><polygon class="cls-17" points="429.082 165.686 436.488 165.686 436.488 167.365 429.082 168.02 429.082 165.686"></polygon><polygon class="cls-17" points="437.231 187.608 429.082 189.925 429.082 192.716 437.231 189.673 437.231 187.608"></polygon><polygon class="cls-16" points="457.031 73.352 405.963 95.017 441.865 103.993 457.031 73.352"></polygon><polygon class="cls-5" points="448.708 76.88 429.828 84.89 443.101 88.208 448.708 76.88"></polygon><polygon class="cls-7" points="202.621 209.842 202.621 248.857 30.764 231.15 30.538 208.075 202.621 209.842"></polygon></g></g></g></svg>