<svg xmlns="http://www.w3.org/2000/svg" width="449.167" height="266.5" viewBox="0 0 449.167 266.5"><defs><style>.cls-1 {
  isolation: isolate;
}

.cls-2 {
  fill: #bd8f3f;
}

.cls-3 {
  fill: #c69c55;
}

.cls-4 {
  fill: #eac473;
}

.cls-5 {
  fill: #e5bb5b;
}

.cls-6 {
  fill: #b08243;
}

.cls-7 {
  fill: #f0d49a;
}

.cls-11, .cls-8 {
  fill: #bd462b;
}

.cls-12, .cls-13, .cls-8 {
  mix-blend-mode: multiply;
}

.cls-13, .cls-8 {
  opacity: .5;
}

.cls-9 {
  fill: #e0bb7f;
}

.cls-10 {
  fill: #f3daab;
}

.cls-12 {
  fill: #231f20;
  opacity: .89;
}

</style></defs><g class="cls-1"><g id="Indigenous_Gathering" data-name="Indigenous Gathering"><g id="Building"><polygon class="cls-2" points="115.493 123.946 196.452 110.589 300.705 135.349 209.158 166.136 115.493 123.946"></polygon><polygon class="cls-3" points="109.303 121.123 115.493 123.946 196.452 110.589 196.452 101.521 123.964 111.512 123.964 118.951 109.303 121.123"></polygon><polygon class="cls-3" points="333.447 128.507 196.452 101.521 196.452 110.589 300.705 135.349 306.488 133.313 315.04 135.349 333.447 128.507"></polygon><polygon class="cls-4" points="200.584 176.925 74.851 111.973 200.362 96.417 359.185 123.946 352.099 126.634 342.814 125.005 333.447 128.507 196.452 101.521 123.964 111.512 117.855 109.123 90.814 112.734 209.158 166.136 306.488 133.313 315.04 135.349 200.584 176.925"></polygon><polyline class="cls-3" points="90.814 112.734 97.227 115.627 117.855 112.734 117.855 109.123 90.814 112.734"></polyline><polygon class="cls-5" points="100.506 117.107 97.227 115.627 117.855 112.734 120.787 114.091 100.506 117.107"></polygon><polygon class="cls-5" points="105.873 119.529 120.787 117.308 123.964 118.951 109.426 121.132 105.873 119.529"></polygon><polygon class="cls-3" points="120.787 114.091 120.787 117.308 105.873 119.529 100.506 117.107 120.787 114.091"></polygon><polygon class="cls-6" points="117.855 109.123 117.855 112.734 120.787 114.091 120.787 117.308 123.964 118.951 123.964 111.512 117.855 109.123"></polygon><polygon class="cls-3" points="56.769 102.851 74.851 111.973 200.362 96.417 359.185 123.946 361.14 122.969 361.14 118.435 375.067 113.195 200.769 88.435 113.05 97.231 113.05 103.991 86.335 107.168 86.335 100.001 56.769 102.851"></polygon><polygon class="cls-7" points="35.348 100.652 203.782 85.014 403.438 109.937 403.438 114.39 388.207 112.489 384.759 113.847 376.778 112.489 375.067 113.195 200.769 88.435 113.05 97.231 107.837 95.657 82.534 98.046 86.335 100.001 56.769 102.851 200.584 176.925 342.814 125.005 352.099 126.634 180.488 193.448 35.348 100.652"></polygon><path class="cls-8" d="M207.081,66c-.076.511-.156,2.405-.326,3.054a13.071,13.071,0,0,1-7.045,8.471c2.6-.224,4.072-.326,4.072-.326l14.05,1.3S208.424,75.946,207.081,66Z"></path><polyline class="cls-9" points="384.759 113.847 376.778 112.489 361.14 118.435 369.339 119.711 384.759 113.847"></polyline><polygon class="cls-3" points="86.335 101.059 107.837 98.901 107.837 95.657 82.534 98.046 86.335 100.001 86.335 101.059"></polygon><polygon class="cls-9" points="86.335 102.566 110.646 99.96 107.837 98.901 86.335 101.059 86.335 102.566"></polygon><polygon class="cls-3" points="86.335 105.783 110.646 102.933 110.646 99.96 86.335 102.566 86.335 105.783"></polygon><polygon class="cls-9" points="86.335 107.168 86.335 105.783 110.646 102.933 113.05 103.991 86.335 107.168"></polygon><polygon class="cls-6" points="107.837 95.657 107.837 98.901 110.646 99.96 110.646 102.933 113.05 103.991 113.05 97.231 107.837 95.657"></polygon><polygon class="cls-3" points="35.348 100.652 17.837 89.738 78.19 85.666 78.19 93.485 103.602 91.449 103.602 84.118 203.782 77.195 425.402 97.72 403.438 106.679 403.438 109.937 203.782 85.014 35.348 100.652"></polygon><polygon class="cls-3" points="425.918 109.394 425.918 116.779 403.438 114.39 403.438 106.679 425.918 109.394"></polygon><polygon class="cls-10" points="412.995 115.405 388.207 112.489 180.488 193.448 17.837 89.738 78.19 85.666 73.303 84.525 0 89.304 172.235 242.751 412.995 115.405"></polygon><polygon class="cls-2" points="0 89.304 0 98.358 170.063 266.5 412.995 123.946 412.995 115.405 172.235 242.751 0 89.304"></polygon><polygon class="cls-6" points="103.602 84.118 100.127 83.174 100.127 87.105 101.267 87.512 101.267 90.688 103.602 91.449 103.602 84.118"></polygon><polygon class="cls-10" points="78.19 93.485 103.602 91.449 101.267 90.688 78.19 92.304 78.19 93.485"></polygon><polygon class="cls-3" points="101.267 87.512 101.267 90.688 78.19 92.304 78.19 88.869 101.267 87.512"></polygon><polygon class="cls-10" points="103.602 84.118 100.127 83.174 204.488 75.946 449.167 97.453 425.918 109.394 403.438 106.679 425.402 97.72 203.782 77.195 103.602 84.118"></polygon><polygon class="cls-2" points="425.918 109.394 425.918 116.779 449.167 104.019 449.167 97.453 425.918 109.394"></polygon><polygon class="cls-2" points="361.14 118.435 361.14 122.969 369.339 119.711 361.14 118.435"></polygon><polygon class="cls-2" points="196.452 101.521 196.452 110.589 205.483 112.734 196.452 101.521"></polygon><polygon class="cls-2" points="200.769 88.435 200.362 96.417 208.392 97.809 200.769 88.435"></polygon><polygon class="cls-2" points="203.782 77.195 203.782 85.014 211.461 85.973 203.782 77.195"></polygon><path class="cls-11" d="M191.443.535c1.412-.393,4.29,3.8,6.353,7a79.2,79.2,0,0,1,10.914,0,51.14,51.14,0,0,1,3.751-5.663,4.068,4.068,0,0,1,3.8-1.83c1.876.346,2.281,3.638,2.281,5.919v8.85s.814,1.683.163,6.082a34.951,34.951,0,0,1,0,6.292,28.223,28.223,0,0,1,.529,5.68c-.04,3.055.448,13.6.57,16.127s.123,7.371,0,9.163c.408,1.629.448,2.158-.081,6.719,0,0,3.136,2.444,3.921,8.471,1.414,10.851-2.533,15.728-2.533,15.728L200.782,87.2l-9.661.668s-2.569-7.275-2.23-13.211c.326-5.7,2.077-8.022,2.077-8.022a15.761,15.761,0,0,1-.082-6.72,116.5,116.5,0,0,1-.57-14.416c.041-2-.08-7.738-.019-10.466s-.144-5.539.223-6.638c-.489-1.425-.2-5.5.081-6.638a15.771,15.771,0,0,1-.346-6.8,82.726,82.726,0,0,1-.509-11.158C189.746,2.53,190.126.9,191.443.535Z"></path><path class="cls-8" d="M195.407,70.783s-1.334,5.035-1.583,16.893c-1.314.091-1.838.13-1.838.13S191.172,70.661,195.407,70.783Z"></path><path class="cls-8" d="M211.981,70.213l5.608,18.539,1.967.194S218.66,70.621,211.981,70.213Z"></path><path class="cls-12" d="M210.19,7.794c.9-2.219,3.724-5.24,5.959-4.49,2.124.713,1.792,9.122,1.737,10.48.277.468.506.824.7,1.155-.029-.08-.049-.124-.049-.124V5.965c0-2.281-.405-5.573-2.281-5.919a4.068,4.068,0,0,0-3.8,1.83,51.24,51.24,0,0,0-3.736,5.637C209.1,7.581,209.591,7.673,210.19,7.794Z"></path><path class="cls-12" d="M190.255,14.951a72.391,72.391,0,0,1-.6-9.584c0-1.14-.108-4.724,1.683-4.887s3.2,2.362,3.693,3.448,2.117,3.662,2.117,3.662a5.917,5.917,0,0,0-2.307.275c-1.3-2.7-2.77-4.643-3.869-4.52s-1.1,2.4-.977,4.846a47.294,47.294,0,0,0,.651,5.294Z"></path><path class="cls-8" d="M190.9,6.67c-.134-.6.733,3.584,0,5.973.76-2.579,2.016-4.141,3.258-4.534A2.358,2.358,0,0,1,190.9,6.67Z"></path><path class="cls-8" d="M215.66,6.182a3.6,3.6,0,0,1-3.855,1.9c3.664.668,4.5,2.576,5.484,4.561A13.929,13.929,0,0,1,215.66,6.182Z"></path><path class="cls-8" d="M190.886,17.313c-.04-1.249.386-4.072,3.811-2.878s6.737,5.919,6.737,5.919-.38,7.982-.38,9.339a12.2,12.2,0,0,0,.38,3.706c-1.059-1.507-.9-5.62-.815-7.656s.123-4.846.123-4.846-3.069-5.94-7.345-5.335A4.34,4.34,0,0,0,190.886,17.313Z"></path><path class="cls-12" d="M192.963,17.211c-.289.89.713,2.3,2.4,2.4C198.814,19.36,193.826,15.261,192.963,17.211Z"></path><path class="cls-8" d="M196.55,17.863c.282.488.492,1.283,0,1.669a2.805,2.805,0,0,1,2.217.087A18.671,18.671,0,0,1,196.55,17.863Z"></path><path class="cls-8" d="M203.986,33.4a84.53,84.53,0,0,1,0-8.756c.163-2.769.326-3.909.38-4.561s2.272-3.746,4.313-5.131,5.407-1.439,6.764-.353,1.73,2.208,1.463,2.715c-2.359,4.474-9.391,2.661-10.5,3.258C205.254,21.188,204.583,24.155,203.986,33.4Z"></path><path class="cls-12" d="M198.1,11.978c.488,2.084,2.117,4.276,3.705,4.276,2.4,0,2.24-3.611.489-3.611C200.945,12.643,201.332,13.383,198.1,11.978Z"></path><path class="cls-12" d="M196.058,54.575a20,20,0,0,1-.9,8.1c1.752-1.757,2.607-5.986,2.729-7.248.244,3.2-1.507,8.036-1.507,8.036s5.579-1.8,6.516-9.085C200.294,54.83,197.484,55.023,196.058,54.575Z"></path><path class="cls-12" d="M204.3,54.759a11.705,11.705,0,0,0,6.18,8.572l.567-.163a11.04,11.04,0,0,1-3.119-7.819,28.69,28.69,0,0,0,4.045,7.63c.55-.083.912-.126.912-.126a17.282,17.282,0,0,1-2.258-8.257C205.242,55.431,204.3,54.759,204.3,54.759Z"></path><path class="cls-8" d="M193.126,27.141a14.113,14.113,0,0,1-2.532-5.354c-.282,1.177-.556,5.16-.079,6.586C191.037,27.367,191.9,26.537,193.126,27.141Z"></path><path class="cls-8" d="M214.954,25.3a3.154,3.154,0,0,1,3.747,1.893,49.363,49.363,0,0,0,0-6.291c.069-.467.119-.9.157-1.3A11.122,11.122,0,0,1,214.954,25.3Z"></path><path class="cls-8" d="M211.167,53.761c-.941-5.348,1.385-11.108.285-9.652C209.823,46.431,209.782,52.458,211.167,53.761Z"></path><path class="cls-8" d="M194.7,44.109c1.458-.977,1.458,7.371,1.195,10.127C195.286,47.286,193.886,44.539,194.7,44.109Z"></path><path class="cls-8" d="M219.8,58.159c.087-1.276.112-4.1.075-6.529a12.042,12.042,0,0,0-.631,3.258,24.815,24.815,0,0,1-1.086,6.461c-.489,1.086-1.358,1.249-2.389.434a16.5,16.5,0,0,1-4.643-7.371c-.407.367-4.44.693-5.7.611a3.085,3.085,0,0,1-1.129-.254v-.01c-.336-1.588-1.07-7.2-.133-10.528a5.662,5.662,0,0,1,5.824-4.214c4.337,0,4.642,5.762,4.968,7.717s.815,6.23,2.688,9.855a114.792,114.792,0,0,1-3.095-26.15c-.407,7.539-1.994,8.109-3.685,8.028s-5.111-.326-7.636,4.113c-1.792-4.073-5.453-4.9-8.064-3.747a4.391,4.391,0,0,0-.918.554,32.505,32.505,0,0,1-1.688-8.169c-.109-1.336.176,7.261.088,10.6A18.887,18.887,0,0,0,192.353,49a79.953,79.953,0,0,1-.428,9c.652-.916.9-2.932,1.14-7.737s.055-9.543,4.758-9.543a4.6,4.6,0,0,1,4.507,3.393,31.169,31.169,0,0,1,.57,10.273c-.006.031-.006.058-.011.088a5.476,5.476,0,0,1-1.618.35c-1.71.2-4.683.081-5.213-.245s-.57,3.8-1.629,5.994-2.28,1.54-2.769.726a9.446,9.446,0,0,1-.936-4.032,1.954,1.954,0,0,0-.164-.665c.083,1.184.188,2.319.326,3.312a15.761,15.761,0,0,0,.082,6.72,5.429,5.429,0,0,1,5.416-3.163c1.955.271,6.082,1.113,7.493,6.746a10.311,10.311,0,0,1,5.593-6.529c1.358-.652,6.186-2.048,9.566.558a4.72,4.72,0,0,1,.683.636C220.2,60.7,220.2,59.737,219.8,58.159Z"></path><g class="cls-13"><path class="cls-11" d="M202.9,34.417a2.855,2.855,0,0,1-3.095-1.873c-.6-1.846-1.446-3.2-2.147-3.068-1.058.2-.417,1.274-.3,1.493.182.33,2.009,3.964,5.538,3.882s5.61-3.851,6.109-5.077c.59-1.451-1-2.1-1.656-1C206.564,30.079,206.022,34.091,202.9,34.417Z"></path><path class="cls-11" d="M202.3,36.046c2.111.2,3.366-.923,4.507-2.172s2.986-3.367,3.529-4.072,2.28-2.335,1.737-2.933S208,30.29,207.461,30.942s-2.606,3.475-4.561,3.475a5.212,5.212,0,0,1-4.235-2.389,16.7,16.7,0,0,0-2.973-3.394c-.407-.366-1.67-.733-.53.733s2.851,3.584,3.543,4.6A5.555,5.555,0,0,0,202.3,36.046Z"></path></g><path class="cls-11" d="M208.4,18.574c-.439.2-.89.428-1.348.685l-.066.035a6.361,6.361,0,0,1,2.308.129C208.676,19.246,208.447,18.911,208.4,18.574Z"></path><path class="cls-11" d="M215.226,16.906a2.968,2.968,0,0,0-1.878.135,1.962,1.962,0,0,1-.269,1.378A10.947,10.947,0,0,1,215.226,16.906Z"></path><path class="cls-11" d="M206.592,19.139c1.249-.93,4.738-4.2,8.715-2.478-.977-1.194-2.228-1.493-4.1-1.194C209.773,15.7,207.791,17.2,206.592,19.139Z"></path><path class="cls-12" d="M208.924,18.453c-.3-.7,1.02-1.935,2.08-2.2s1.932.2,2.01.815-.637,1.588-1.7,1.914C210.506,19.231,209.272,19.268,208.924,18.453Z"></path><path class="cls-8" d="M191.443,18.419c-1.191.124,1.548,2.5,7.792,2.26C192.914,20.381,191.769,18.385,191.443,18.419Z"></path></g></g></g></svg>