<svg xmlns="http://www.w3.org/2000/svg" width="449.167" height="266.5"><defs><style>.cls-2{fill:#bd8f3f}.cls-3{fill:#c69c55}.cls-5{fill:#e5bb5b}.cls-6{fill:#b08243}.cls-11,.cls-8{fill:#bd462b}.cls-12,.cls-8{mix-blend-mode:multiply}.cls-8{opacity:.5}.cls-9{fill:#e0bb7f}.cls-10{fill:#f3daab}.cls-12{fill:#231f20;opacity:.89}</style></defs><g style="isolation:isolate"><g id="Indigenous_Gathering" data-name="Indigenous Gathering"><g id="Building"><path class="cls-2" d="m115.493 123.946 80.959-13.357 104.253 24.76-91.547 30.787-93.665-42.19z"/><path class="cls-3" d="m109.303 121.123 6.19 2.823 80.959-13.357v-9.068l-72.488 9.991v7.439l-14.661 2.172zM333.447 128.507l-136.995-26.986v9.068l104.253 24.76 5.783-2.036 8.552 2.036 18.407-6.842z"/><path style="fill:#eac473" d="M200.584 176.925 74.851 111.973l125.511-15.556 158.823 27.529-7.086 2.688-9.285-1.629-9.367 3.502-136.995-26.986-72.488 9.991-6.109-2.389-27.041 3.611 118.344 53.402 97.33-32.823 8.552 2.036-114.456 41.576z"/><path class="cls-3" d="m90.814 112.734 6.413 2.893 20.628-2.893v-3.611l-27.041 3.611"/><path class="cls-5" d="m100.506 117.107-3.279-1.48 20.628-2.893 2.932 1.357-20.281 3.016zM105.873 119.529l14.914-2.221 3.177 1.643-14.538 2.181-3.553-1.603z"/><path class="cls-3" d="M120.787 114.091v3.217l-14.914 2.221-5.367-2.422 20.281-3.016z"/><path class="cls-6" d="M117.855 109.123v3.611l2.932 1.357v3.217l3.177 1.643v-7.439l-6.109-2.389z"/><path class="cls-3" d="m56.769 102.851 18.082 9.122 125.511-15.556 158.823 27.529 1.955-.977v-4.534l13.927-5.24-174.298-24.76-87.719 8.796v6.76l-26.715 3.177v-7.167l-29.566 2.85z"/><path style="fill:#f0d49a" d="m35.348 100.652 168.434-15.638 199.656 24.923v4.453l-15.231-1.901-3.448 1.358-7.981-1.358-1.711.706-174.298-24.76-87.719 8.796-5.213-1.574-25.303 2.389 3.801 1.955-29.566 2.85 143.815 74.074 142.23-51.92 9.285 1.629-171.611 66.814-145.14-92.796z"/><path class="cls-8" d="M207.081 66c-.076.511-.156 2.405-.326 3.054a13.071 13.071 0 0 1-7.045 8.471c2.6-.224 4.072-.326 4.072-.326l14.05 1.3S208.424 75.946 207.081 66Z"/><path class="cls-9" d="m384.759 113.847-7.981-1.358-15.638 5.946 8.199 1.276 15.42-5.864"/><path class="cls-3" d="m86.335 101.059 21.502-2.158v-3.244l-25.303 2.389 3.801 1.955v1.058z"/><path class="cls-9" d="m86.335 102.566 24.311-2.606-2.809-1.059-21.502 2.158v1.507z"/><path class="cls-3" d="m86.335 105.783 24.311-2.85V99.96l-24.311 2.606v3.217z"/><path class="cls-9" d="M86.335 107.168v-1.385l24.311-2.85 2.404 1.058-26.715 3.177z"/><path class="cls-6" d="M107.837 95.657v3.244l2.809 1.059v2.973l2.404 1.058v-6.76l-5.213-1.574z"/><path class="cls-3" d="M35.348 100.652 17.837 89.738l60.353-4.072v7.819l25.412-2.036v-7.331l100.18-6.923 221.62 20.525-21.964 8.959v3.258L203.782 85.014 35.348 100.652z"/><path class="cls-3" d="M425.918 109.394v7.385l-22.48-2.389v-7.711l22.48 2.715z"/><path class="cls-10" d="m412.995 115.405-24.788-2.916-207.719 80.959L17.837 89.738l60.353-4.072-4.887-1.141L0 89.304l172.235 153.447 240.76-127.346z"/><path class="cls-2" d="M0 89.304v9.054L170.063 266.5l242.932-142.554v-8.541l-240.76 127.346L0 89.304z"/><path class="cls-6" d="m103.602 84.118-3.475-.944v3.931l1.14.407v3.176l2.335.761v-7.331z"/><path class="cls-10" d="m78.19 93.485 25.412-2.036-2.335-.761-23.077 1.616v1.181z"/><path class="cls-3" d="M101.267 87.512v3.176L78.19 92.304v-3.435l23.077-1.357z"/><path class="cls-10" d="m103.602 84.118-3.475-.944 104.361-7.228 244.679 21.507-23.249 11.941-22.48-2.715 21.964-8.959-221.62-20.525-100.18 6.923z"/><path class="cls-2" d="M425.918 109.394v7.385l23.249-12.76v-6.566l-23.249 11.941zM361.14 118.435v4.534l8.199-3.258-8.199-1.276zM196.452 101.521v9.068l9.031 2.145-9.031-11.213zM200.769 88.435l-.407 7.982 8.03 1.392-7.623-9.374zM203.782 77.195v7.819l7.679.959-7.679-8.778z"/><path class="cls-11" d="M191.443.535c1.412-.393 4.29 3.8 6.353 7a79.2 79.2 0 0 1 10.914 0 51.14 51.14 0 0 1 3.751-5.663 4.068 4.068 0 0 1 3.8-1.83c1.876.346 2.281 3.638 2.281 5.919v8.85s.814 1.683.163 6.082a34.951 34.951 0 0 1 0 6.292 28.223 28.223 0 0 1 .529 5.68c-.04 3.055.448 13.6.57 16.127s.123 7.371 0 9.163c.408 1.629.448 2.158-.081 6.719 0 0 3.136 2.444 3.921 8.471 1.414 10.851-2.533 15.728-2.533 15.728L200.782 87.2l-9.661.668s-2.569-7.275-2.23-13.211c.326-5.7 2.077-8.022 2.077-8.022a15.761 15.761 0 0 1-.082-6.72 116.5 116.5 0 0 1-.57-14.416c.041-2-.08-7.738-.019-10.466s-.144-5.539.223-6.638c-.489-1.425-.2-5.5.081-6.638a15.771 15.771 0 0 1-.346-6.8 82.726 82.726 0 0 1-.509-11.158c0-1.269.38-2.899 1.697-3.264Z"/><path class="cls-8" d="M195.407 70.783s-1.334 5.035-1.583 16.893c-1.314.091-1.838.13-1.838.13s-.814-17.145 3.421-17.023ZM211.981 70.213l5.608 18.539 1.967.194s-.896-18.325-7.575-18.733Z"/><path class="cls-12" d="M210.19 7.794c.9-2.219 3.724-5.24 5.959-4.49 2.124.713 1.792 9.122 1.737 10.48.277.468.506.824.7 1.155a1.881 1.881 0 0 0-.049-.124v-8.85c0-2.281-.405-5.573-2.281-5.919a4.068 4.068 0 0 0-3.8 1.83 51.24 51.24 0 0 0-3.736 5.637c.38.068.871.16 1.47.281ZM190.255 14.951a72.391 72.391 0 0 1-.6-9.584c0-1.14-.108-4.724 1.683-4.887s3.2 2.362 3.693 3.448 2.117 3.662 2.117 3.662a5.917 5.917 0 0 0-2.307.275c-1.3-2.7-2.77-4.643-3.869-4.52s-1.1 2.4-.977 4.846a47.294 47.294 0 0 0 .651 5.294Z"/><path class="cls-8" d="M190.9 6.67c-.134-.6.733 3.584 0 5.973.76-2.579 2.016-4.141 3.258-4.534A2.358 2.358 0 0 1 190.9 6.67ZM215.66 6.182a3.6 3.6 0 0 1-3.855 1.9c3.664.668 4.5 2.576 5.484 4.561a13.929 13.929 0 0 1-1.629-6.461ZM190.886 17.313c-.04-1.249.386-4.072 3.811-2.878s6.737 5.919 6.737 5.919-.38 7.982-.38 9.339a12.2 12.2 0 0 0 .38 3.706c-1.059-1.507-.9-5.62-.815-7.656s.123-4.846.123-4.846-3.069-5.94-7.345-5.335a4.34 4.34 0 0 0-2.511 1.751Z"/><path class="cls-12" d="M192.963 17.211c-.289.89.713 2.3 2.4 2.4 3.451-.251-1.537-4.35-2.4-2.4Z"/><path class="cls-8" d="M196.55 17.863c.282.488.492 1.283 0 1.669a2.805 2.805 0 0 1 2.217.087 18.671 18.671 0 0 1-2.217-1.756ZM203.986 33.4a84.53 84.53 0 0 1 0-8.756c.163-2.769.326-3.909.38-4.561s2.272-3.746 4.313-5.131 5.407-1.439 6.764-.353 1.73 2.208 1.463 2.715c-2.359 4.474-9.391 2.661-10.5 3.258-1.152.616-1.823 3.583-2.42 12.828Z"/><path class="cls-12" d="M198.1 11.978c.488 2.084 2.117 4.276 3.705 4.276 2.4 0 2.24-3.611.489-3.611-1.349 0-.962.74-4.194-.665ZM196.058 54.575a20 20 0 0 1-.9 8.1c1.752-1.757 2.607-5.986 2.729-7.248.244 3.2-1.507 8.036-1.507 8.036s5.579-1.8 6.516-9.085c-2.602.452-5.412.645-6.838.197ZM204.3 54.759a11.705 11.705 0 0 0 6.18 8.572l.567-.163a11.04 11.04 0 0 1-3.119-7.819 28.69 28.69 0 0 0 4.045 7.63c.55-.083.912-.126.912-.126a17.282 17.282 0 0 1-2.258-8.257c-5.385.835-6.327.163-6.327.163Z"/><path class="cls-8" d="M193.126 27.141a14.113 14.113 0 0 1-2.532-5.354c-.282 1.177-.556 5.16-.079 6.586.522-1.006 1.385-1.836 2.611-1.232ZM214.954 25.3a3.154 3.154 0 0 1 3.747 1.893 49.363 49.363 0 0 0 0-6.291c.069-.467.119-.9.157-1.3a11.122 11.122 0 0 1-3.904 5.698ZM211.167 53.761c-.941-5.348 1.385-11.108.285-9.652-1.629 2.322-1.67 8.349-.285 9.652ZM194.7 44.109c1.458-.977 1.458 7.371 1.195 10.127-.609-6.95-2.009-9.697-1.195-10.127Z"/><path class="cls-8" d="M219.8 58.159c.087-1.276.112-4.1.075-6.529a12.042 12.042 0 0 0-.631 3.258 24.815 24.815 0 0 1-1.086 6.461c-.489 1.086-1.358 1.249-2.389.434a16.5 16.5 0 0 1-4.643-7.371c-.407.367-4.44.693-5.7.611a3.085 3.085 0 0 1-1.129-.254v-.01c-.336-1.588-1.07-7.2-.133-10.528a5.662 5.662 0 0 1 5.824-4.214c4.337 0 4.642 5.762 4.968 7.717s.815 6.23 2.688 9.855a114.792 114.792 0 0 1-3.095-26.15c-.407 7.539-1.994 8.109-3.685 8.028s-5.111-.326-7.636 4.113c-1.792-4.073-5.453-4.9-8.064-3.747a4.391 4.391 0 0 0-.918.554 32.505 32.505 0 0 1-1.688-8.169c-.109-1.336.176 7.261.088 10.6a18.887 18.887 0 0 0-.293 6.182 79.953 79.953 0 0 1-.428 9c.652-.916.9-2.932 1.14-7.737s.055-9.543 4.758-9.543a4.6 4.6 0 0 1 4.507 3.393 31.169 31.169 0 0 1 .57 10.273c-.006.031-.006.058-.011.088a5.476 5.476 0 0 1-1.618.35c-1.71.2-4.683.081-5.213-.245s-.57 3.8-1.629 5.994-2.28 1.54-2.769.726a9.446 9.446 0 0 1-.936-4.032 1.954 1.954 0 0 0-.164-.665c.083 1.184.188 2.319.326 3.312a15.761 15.761 0 0 0 .082 6.72 5.429 5.429 0 0 1 5.416-3.163c1.955.271 6.082 1.113 7.493 6.746a10.311 10.311 0 0 1 5.593-6.529c1.358-.652 6.186-2.048 9.566.558a4.72 4.72 0 0 1 .683.636c.481-4.182.481-5.145.081-6.723Z"/><g style="opacity:.5;mix-blend-mode:multiply"><path class="cls-11" d="M202.9 34.417a2.855 2.855 0 0 1-3.095-1.873c-.6-1.846-1.446-3.2-2.147-3.068-1.058.2-.417 1.274-.3 1.493.182.33 2.009 3.964 5.538 3.882s5.61-3.851 6.109-5.077c.59-1.451-1-2.1-1.656-1-.785 1.305-1.327 5.317-4.449 5.643Z"/><path class="cls-11" d="M202.3 36.046c2.111.2 3.366-.923 4.507-2.172s2.986-3.367 3.529-4.072 2.28-2.335 1.737-2.933-4.073 3.421-4.612 4.073-2.606 3.475-4.561 3.475a5.212 5.212 0 0 1-4.235-2.389 16.7 16.7 0 0 0-2.973-3.394c-.407-.366-1.67-.733-.53.733s2.851 3.584 3.543 4.6a5.555 5.555 0 0 0 3.595 2.079Z"/></g><path class="cls-11" d="M208.4 18.574c-.439.2-.89.428-1.348.685l-.066.035a6.361 6.361 0 0 1 2.308.129c-.618-.177-.847-.512-.894-.849ZM215.226 16.906a2.968 2.968 0 0 0-1.878.135 1.962 1.962 0 0 1-.269 1.378 10.947 10.947 0 0 1 2.147-1.513Z"/><path class="cls-11" d="M206.592 19.139c1.249-.93 4.738-4.2 8.715-2.478-.977-1.194-2.228-1.493-4.1-1.194-1.434.233-3.416 1.733-4.615 3.672Z"/><path class="cls-12" d="M208.924 18.453c-.3-.7 1.02-1.935 2.08-2.2s1.932.2 2.01.815-.637 1.588-1.7 1.914c-.808.249-2.042.286-2.39-.529Z"/><path class="cls-8" d="M191.443 18.419c-1.191.124 1.548 2.5 7.792 2.26-6.321-.298-7.466-2.294-7.792-2.26Z"/></g></g></g></svg>