<svg xmlns="http://www.w3.org/2000/svg" width="490.148" height="336.738"><defs><style>.cls-2{fill:#c2c1c0}.cls-3{fill:#1f3c49}.cls-4{fill:#8e4e2c}.cls-5{fill:#496d80}.cls-6{fill:#bed7e0}.cls-7{fill:#69a394}.cls-8{fill:#9f5f3a}.cls-11,.cls-12{fill:none;stroke-miterlimit:10}.cls-11{stroke:#bed7e0}.cls-11{stroke-width:1.9px}.cls-12{stroke:#375866}.cls-12{stroke-width:.95px}.cls-15{fill:#b2b3b2}.cls-16{fill:#e4e5e3}.cls-17{fill:#dce1e5;mix-blend-mode:multiply}</style></defs><g style="isolation:isolate"><g id="Building_S" data-name="Building S"><g id="Building"><path class="cls-2" d="M0 234.271v-90.972l211.431-79.542L243.784 0l216.651 83.192-2.958 137.107h5.86l18.351 116.439-226.762-74.028-79.005-1.051L5.137 234.396 0 234.271z"/><path class="cls-3" d="m481.688 38.791-18.776 134.53-29.646-118.849 48.422-15.681z"/><path class="cls-2" d="M481.688 38.791 391.633 62.29l24.441 7.864 65.614-17.745V38.791z"/><path class="cls-3" d="m394.202 248.22 62.829 6.19.446-147.841-69.013-18.361 5.738 160.012z"/><path class="cls-4" d="M433.266 65.504h30.883v136.299h-30.883zM5.137 234.396v-88.311l207.078-69.948 33.426-56.948 172.083 56.948-200.557 174.559-188.796-19.808-23.234 3.508z"/><path class="cls-5" d="m394.202 248.22-139.276 21.046V33.958l139.276 43.417V248.22z"/><path class="cls-6" d="M28.371 143.299v87.589l183.06 19.206V84.803l-183.06 58.496z"/><path class="cls-7" d="M30.538 146.085v15.165l172.083-38.687V95.017L30.538 146.085z"/><path class="cls-8" d="M68.606 130.442v26.785l8.976-1.238v-28.415l-8.976 2.868z"/><path style="fill:#7abcac" d="M30.538 179.201v13.309l172.083-13.309v-27.236L30.538 179.201z"/><path class="cls-8" d="M30.538 173.011v25.07l28.474-.95v-29.072l-28.474 4.952z"/><path class="cls-7" d="m32.699 178.859.166 13.471 169.756-13.129v-27.236L32.699 178.859z"/><path class="cls-8" d="M107.294 165.914v36.81h3.714v-37.411l-3.714.601zM54.369 172.857h4.643v21.665h-4.643zM140.411 107.497v5.982l62.313-17.74-.103 26.824 8.81-1.806V84.803l-71.02 22.694z"/><path style="fill:#618493" d="m253.069 33.013-35.902 54.473v163.21l35.902 19.189V33.013z"/><path class="cls-11" d="m211.431 216.519 42.051 7.56 53.234-3.301"/><path class="cls-12" d="M283.401 43.33v223.46M335.087 63.757V257.01M413.734 63.757v186.337M355.428 70.154v178.703M394.202 77.375V248.22"/><path style="stroke:#375866;stroke-width:1.9px;fill:none;stroke-miterlimit:10" d="M253.998 33.958V266.79"/><path class="cls-12" d="M243.165 51.996V266.79M233.261 67.648v194.011M225.833 76.637v180.868"/><path class="cls-6" d="m217.167 87.486 35.902-54.473L386.465 74.59v7.118L253.069 46.116l-35.902 48.901v-7.531z"/><path class="cls-11" d="M211.431 206.747h95.285M211.431 201.803l41.638-2.484 53.647 1.083M211.431 197.073l41.948-4.254h53.337M211.431 192.51l42.567-6.5 52.718 1.548"/><path class="cls-6" d="M305.272 56.02v205.639l8.867-1.34.255-204.299h-9.122z"/><path class="cls-11" d="m305.272 113.484-51.996-8.047-42.092 35.077"/><path class="cls-11" d="m305.272 119.88-52.203-7.221-41.885 31.981"/><path class="cls-11" d="m305.272 125.451-52.409-7.221-42.505 31.362"/><path class="cls-11" d="m305.272 131.641-52.409-7.221-41.679 28.886"/><path class="cls-11" d="m305.272 144.64-52.409-4.126-41.679 22.284"/><path style="fill:#6d3a24" d="m437.945 111.421-4.679 62.519-108.702 10.523v-58.446l147.323-62.26-33.942 47.664z"/><path class="cls-15" d="M315.382 117.611v75.105h14.856v-66.699l61.901-25.739 45.806 11.143-11.555 23.109v47.457l11.555-5.365v-46.631l49.52-77.582-172.083 65.202z"/><path class="cls-15" d="M490.148 161.25s-5.881 24.652-49.83 42.812c-48.9 1.447-124.936.361-124.936.361Z"/><path class="cls-16" d="M308.78 108.326v95.736s77.375 7.018 168.988-30.741l12.173-11.968-168.781 18.983v-56.123l166.3-71.8-2.888-4.952s-97.798 13.201-175.792 60.865Z"/><path class="cls-6" d="M319.509 219.54v39.967l65.202-9.852v-33.004l-65.202 2.889z"/><path class="cls-3" d="m340.071 253.55 13.608-2.056v-28.485l-13.608.79v29.751zM367.782 222.191l-11.752.682v28.265l11.752-1.775v-27.172zM368.957 222.123v27.062l11.634-1.758v-25.979l-11.634.675zM338.895 223.867l-14.331.831v31.195l14.331-2.165v-29.861z"/><path class="cls-7" d="M324.564 155.989v23.964l108.702-12.225v-17.929l-54.351-6.5-54.351 12.69z"/><path class="cls-16" d="m401.033 97.8-43.352 186.941s.928 3.405 4.023 4.024 6.191.309 7.429-1.238S407.2 97.8 407.2 97.8ZM429.176 107.707s-.31 153.822 0 161.869c6.19 4.642 10.832 0 10.832 0l-5.485-161.869Z"/><ellipse class="cls-16" cx="404.117" cy="97.802" rx="3.084" ry="1.315"/><ellipse class="cls-16" cx="431.857" cy="107.707" rx="2.666" ry="1.137"/><path class="cls-4" d="M211.431 132.263h5.737v103.113h-5.737z"/><path class="cls-17" d="m375.768 206.747 10.935-4.944.493-2.484-9.993 1.242-1.435 6.186zM392.545 172.308l-9.009 1.013 1.213-5.301h8.642l-.846 4.288zM429.082 165.686h7.406v1.679l-7.406.655v-2.334zM437.231 187.608l-8.149 2.317v2.791l8.149-3.043v-2.065z"/><path class="cls-16" d="m457.031 73.352-51.068 21.665 35.902 8.976 15.166-30.641z"/><path class="cls-5" d="m448.708 76.88-18.88 8.01 13.273 3.318 5.607-11.328z"/><path class="cls-7" d="M202.621 209.842v39.015L30.764 231.15l-.226-23.075 172.083 1.767z"/></g></g></g></svg>