<svg xmlns="http://www.w3.org/2000/svg" width="393.733" height="294.191"><defs><clipPath id="clip-path"><path style="fill:none" d="m84.735 115.34 14.768-1.172 14.534 1.172 14.769 2.813 10.548 4.219 7.267 5.392 1.641 6.329v147.918l-113.95.938V140.891l50.423-25.551z"/></clipPath><style>.cls-6{fill:#496d80}.cls-9{fill:#fff}.cls-11{fill:#cbced4}.cls-12{fill:#c2c3c6}.cls-15{fill:#5196c7;mix-blend-mode:multiply}.cls-15{opacity:.48}</style></defs><g style="isolation:isolate"><g id="Chilliwack-TTC"><g id="Building"><path d="M370.431 275.355c-23.595 0-25.739-28.444-22.4-31.282s10.992 4.613 13.168-.038-9.079-16.227-10.032-19.3.493-6.26 7.774-2.845 6.664-4.82 4.167-8.918c-2.143-3.518-8.779-13.376-3.595-13.3 3.088.044 5.108 9.675 8.094 3.315 3.605-7.676-.372-20.2 2.828-20.361 3.2.157 5.34 6.914 3.513 15.513-1.46 6.873 4.928-.327 7.409 1.533 4.148 3.109-1.9 11.358-3.6 13.3s-3.113 10.489 4.168 7.074 8.727-.229 7.774 2.845-9.708 9.86-7.531 14.512 7.331-2.312 10.666.525 1.192 37.427-22.403 37.427Z" style="fill:#273918"/><path style="fill:#d2d5e3" d="M34.312 18.302v65.006l309.689 141.974v-18.754L34.312 18.302z"/><path style="fill:#f3b64b" d="M298.993 225.282v52.978l-153.778 6.989V177.461l153.778 47.821z"/><path class="cls-6" d="m233.029 250.14-88.094-10.151v28.309l88.094 1.264V250.14z"/><path style="stroke:#fff;stroke-miterlimit:10;stroke-width:1.079px;fill:none" d="m233.825 250.14-88.89-10.151v28.309l88.89 1.264V250.14z"/><path class="cls-9" d="m298.592 250.728-151.803-22.816.602-3.854 151.534 24.537-.333 2.133z" style="opacity:.2"/><path style="fill:#b9b9bc" d="m34.312 83.308 309.689 141.974h-45.008L.465 132.534"/><path class="cls-11" d="m254.219 196.449-6.329-2.579 22.973 75.951v14.534h6.095v-14.626l-22.739-73.28z"/><path class="cls-12" d="m307.44 221.512-.487-10.152-6.253.637.763 9.426 5.977.089z"/><path class="cls-11" d="m309.156 212.447-2.203-1.087.487 10.152 2.285.034-.569-9.099zM316.013 220.301l-3.282-1.114 18.519 50.4v9.845h2.637v-10.08l-17.874-49.051z"/><path class="cls-12" d="M233.825 184.61v13.186l8.087-1.054v-14.066l-8.087 1.934z"/><path class="cls-11" d="m246.132 184.962-4.22-2.286v14.066h5.099l-.879-11.78z"/><path class="cls-12" d="m300.776 220.594 3.985 58.838h26.489v-9.845l-18.519-50.4-11.955 1.407z"/><path class="cls-11" d="m345.759 231.88-1.875-1.08 15.472 38.176v7.385h1.406v-7.619l-15.003-36.862z"/><path class="cls-12" d="m334.742 225.14.586 6.74h4.571l-.469-7.273-4.688.533z"/><path class="cls-11" d="m340.602 225.375-1.172-.768.469 7.273h1.348l-.645-6.505z"/><path class="cls-12" d="m334.214 231.88 3.868 44.481h21.274v-7.385L343.884 230.8l-9.67 1.08zM231.949 196.214l1.08 88.141h37.834v-14.534L247.89 193.87l-15.941 2.344z"/><path style="fill:#b3c5ce" d="m84.735 115.34 14.768-1.172 14.534 1.172 14.769 2.813 10.548 4.219 7.267 5.392 1.641 6.329v147.918l-113.95.938V140.891l50.423-25.551z"/><path style="opacity:.87;fill:#5196c7;mix-blend-mode:multiply" d="m85.614 287.637-51.302-4.688V140.771l51.302-25.665v172.531z"/><path class="cls-6" d="M279.536 255.624v14.621l19.457.28v-12.659l-19.457-2.242zM279.536 224.517v12.862l19.457 3.936v-11.579l-19.457-5.219z"/><path class="cls-15" d="m178.971 268.786-10.314-.148v-26.244l10.314 1.517v24.875zM206.163 269.177l-8.439-.293v-22.363l8.439.767v21.889zM227.73 269.587h-6.798v-20.849l6.798 1.022v19.827z"/><path class="cls-9" d="M168.117 242.394h1.079v26.244h-1.079zM178.431 243.391h1.079v25.395h-1.079zM197.185 246.521h1.079v23.065h-1.079zM205.624 246.716h1.079v22.87h-1.079zM220.392 248.496h1.079v21.091h-1.079zM227.19 249.53h1.079v20.057h-1.079z"/><path class="cls-9" transform="rotate(-85.802 198.192 253.47)" d="M197.653 223.855h1.08v59.232h-1.08z"/><path class="cls-15" d="M87.206 212.817v74.82h15.748v-83.745a165.173 165.173 0 0 1-15.748 8.925ZM104.545 202.849v84.788h12.166v-93.668q-5.68 4.581-12.166 8.88ZM118.3 192.676v94.961h10.511V183.121a152.956 152.956 0 0 1-10.511 9.555ZM130.405 181.506v106.131h10.511V169.52a152.96 152.96 0 0 1-10.511 11.986ZM142.508 167.465v120.172h5.754V159.384q-2.653 3.999-5.754 8.081Z"/><path d="M382.069 247.242c2.518.069 6.692.869 5.475 7.909s1.955 6.139 2.709 5.735c.892-.477 5.982-6 .854 10.95s-16.859.174-16.859-4.084 2.878-4.4 4.02-4.559c2.758-.395 1.107-6.739.586-8.651s-3.129-7.474 3.215-7.3Z" style="fill:#bac751"/><path style="fill:#e4e7ef" d="M26.002.036v19.282l317.999 190.258v-3.048L26.002.036z"/><g style="clip-path:url(#clip-path)"><path class="cls-15" d="M87.206 111.456h15.748v176.181H87.206zM104.545 111.456h12.166v176.181h-12.166zM142.508 111.456h5.755v176.181h-5.755zM130.405 111.456h10.511v176.181h-10.511zM118.303 111.456h10.511v176.181h-10.511z"/></g><path class="cls-12" d="M28.475 279.432v10.549l59.392 3.751s43.964 2.813 61.743-6.1v-13.6c-31.91 12.433-121.135 5.4-121.135 5.4Z"/></g><path id="Hover" d="m25.435 0 318.782 206.522-.26 18.782-3.392.261.783 5.478h2.352l.13-.26 1.957 1.108 14.934 36.718.131 7.695-22.826.066-3.783-44.479.978-.13-.521-6.522-16.957.131 16.174 43.956v10.044l-29.217.13-3.653-54.261h-2.152V278.2l-21.982 1.1.065 5.087h-43.956l-.131-3.065-83.282 3.652.065 2.609s-13.761 8.543-62.8 6.2L28.3 289.87l.131-10.435 5.739.391V143.13L0 132.435l34.174-49.044L34.3 24.3l-8.478-4.956Z" style="fill:#1d5e2f;mix-blend-mode:hue"/></g></g></svg>