<svg xmlns="http://www.w3.org/2000/svg" xmlns:xlink="http://www.w3.org/1999/xlink" width="393.733" height="294.191" viewBox="0 0 393.733 294.191"><defs><style>.cls-1, .cls-7 {
  fill: none;
}

.cls-2 {
  isolation: isolate;
}

.cls-3 {
  fill: #273918;
}

.cls-4 {
  fill: #d2d5e3;
}

.cls-5 {
  fill: #f3b64b;
}

.cls-6 {
  fill: #496d80;
}

.cls-7 {
  stroke: #fff;
  stroke-miterlimit: 10;
  stroke-width: 1.079px;
}

.cls-8 {
  opacity: .2;
}

.cls-9 {
  fill: #fff;
}

.cls-10 {
  fill: #b9b9bc;
}

.cls-11 {
  fill: #cbced4;
}

.cls-12 {
  fill: #c2c3c6;
}

.cls-13 {
  fill: #b3c5ce;
}

.cls-14, .cls-15 {
  fill: #5196c7;
  mix-blend-mode: multiply;
}

.cls-14 {
  opacity: .87;
}

.cls-15 {
  opacity: .48;
}

.cls-16 {
  fill: #bac751;
}

.cls-17 {
  fill: #e4e7ef;
}

.cls-18 {
  clip-path: url("#clip-path");
}

.cls-19 {
  fill: #1d5e2f;
  mix-blend-mode: hue;
}

</style><clipPath id="clip-path"><polygon class="cls-1" points="84.735 115.34 99.503 114.168 114.037 115.34 128.806 118.153 139.354 122.372 146.621 127.764 148.262 134.093 148.262 282.011 34.312 282.949 34.312 140.891 84.735 115.34"></polygon></clipPath></defs><g class="cls-2"><g id="Chilliwack-TTC"><g id="Building"><path class="cls-3" d="M370.431,275.355c-23.595,0-25.739-28.444-22.4-31.282s10.992,4.613,13.168-.038-9.079-16.227-10.032-19.3.493-6.26,7.774-2.845,6.664-4.82,4.167-8.918c-2.143-3.518-8.779-13.376-3.595-13.3,3.088.044,5.108,9.675,8.094,3.315,3.605-7.676-.372-20.2,2.828-20.361,3.2.157,5.34,6.914,3.513,15.513-1.46,6.873,4.928-.327,7.409,1.533,4.148,3.109-1.9,11.358-3.6,13.3s-3.113,10.489,4.168,7.074,8.727-.229,7.774,2.845-9.708,9.86-7.531,14.512,7.331-2.312,10.666.525S394.026,275.355,370.431,275.355Z"></path><polygon class="cls-4" points="34.312 18.302 34.312 83.308 344.001 225.282 344.001 206.528 34.312 18.302"></polygon><polygon class="cls-5" points="298.993 225.282 298.993 278.26 145.215 285.249 145.215 177.461 298.993 225.282"></polygon><polygon class="cls-6" points="233.029 250.14 144.935 239.989 144.935 268.298 233.029 269.562 233.029 250.14"></polygon><polygon class="cls-7" points="233.825 250.14 144.935 239.989 144.935 268.298 233.825 269.562 233.825 250.14"></polygon><g class="cls-8"><polygon class="cls-9" points="298.592 250.728 146.789 227.912 147.391 224.058 298.925 248.595 298.592 250.728"></polygon></g><polyline class="cls-10" points="34.312 83.308 344.001 225.282 298.993 225.282 0.465 132.534"></polyline><polygon class="cls-11" points="254.219 196.449 247.89 193.87 270.863 269.821 270.863 284.355 276.958 284.355 276.958 269.729 254.219 196.449"></polygon><polygon class="cls-12" points="307.44 221.512 306.953 211.36 300.7 211.997 301.463 221.423 307.44 221.512"></polygon><polygon class="cls-11" points="309.156 212.447 306.953 211.36 307.44 221.512 309.725 221.546 309.156 212.447"></polygon><polygon class="cls-11" points="316.013 220.301 312.731 219.187 331.25 269.587 331.25 279.432 333.887 279.432 333.887 269.352 316.013 220.301"></polygon><polygon class="cls-12" points="233.825 184.61 233.825 197.796 241.912 196.742 241.912 182.676 233.825 184.61"></polygon><polygon class="cls-11" points="246.132 184.962 241.912 182.676 241.912 196.742 247.011 196.742 246.132 184.962"></polygon><polygon class="cls-12" points="300.776 220.594 304.761 279.432 331.25 279.432 331.25 269.587 312.731 219.187 300.776 220.594"></polygon><polygon class="cls-11" points="345.759 231.88 343.884 230.8 359.356 268.976 359.356 276.361 360.762 276.361 360.762 268.742 345.759 231.88"></polygon><polygon class="cls-12" points="334.742 225.14 335.328 231.88 339.899 231.88 339.43 224.607 334.742 225.14"></polygon><polygon class="cls-11" points="340.602 225.375 339.43 224.607 339.899 231.88 341.247 231.88 340.602 225.375"></polygon><polygon class="cls-12" points="334.214 231.88 338.082 276.361 359.356 276.361 359.356 268.976 343.884 230.8 334.214 231.88"></polygon><polygon class="cls-12" points="231.949 196.214 233.029 284.355 270.863 284.355 270.863 269.821 247.89 193.87 231.949 196.214"></polygon><polygon class="cls-13" points="84.735 115.34 99.503 114.168 114.037 115.34 128.806 118.153 139.354 122.372 146.621 127.764 148.262 134.093 148.262 282.011 34.312 282.949 34.312 140.891 84.735 115.34"></polygon><polygon class="cls-14" points="85.614 287.637 34.312 282.949 34.312 140.771 85.614 115.106 85.614 287.637"></polygon><polygon class="cls-6" points="279.536 255.624 279.536 270.245 298.993 270.525 298.993 257.866 279.536 255.624"></polygon><polygon class="cls-6" points="279.536 224.517 279.536 237.379 298.993 241.315 298.993 229.736 279.536 224.517"></polygon><polygon class="cls-15" points="178.971 268.786 168.657 268.638 168.657 242.394 178.971 243.911 178.971 268.786"></polygon><polygon class="cls-15" points="206.163 269.177 197.724 268.884 197.724 246.521 206.163 247.288 206.163 269.177"></polygon><polygon class="cls-15" points="227.73 269.587 220.932 269.587 220.932 248.738 227.73 249.76 227.73 269.587"></polygon><rect class="cls-9" x="168.117" y="242.394" width="1.079" height="26.244"></rect><rect class="cls-9" x="178.431" y="243.391" width="1.079" height="25.395"></rect><rect class="cls-9" x="197.185" y="246.521" width="1.079" height="23.065"></rect><rect class="cls-9" x="205.624" y="246.716" width="1.079" height="22.87"></rect><rect class="cls-9" x="220.392" y="248.496" width="1.079" height="21.091"></rect><rect class="cls-9" x="227.19" y="249.53" width="1.079" height="20.057"></rect><rect class="cls-9" x="197.653" y="223.855" width="1.08" height="59.232" transform="translate(-69.107 432.576) rotate(-85.802)"></rect><path class="cls-15" d="M87.206,212.817v74.82h15.748V203.892A165.173,165.173,0,0,1,87.206,212.817Z"></path><path class="cls-15" d="M104.545,202.849v84.788h12.166V193.969Q111.031,198.55,104.545,202.849Z"></path><path class="cls-15" d="M118.3,192.676v94.961h10.511V183.121C125.566,186.359,122.068,189.557,118.3,192.676Z"></path><path class="cls-15" d="M130.405,181.506V287.637h10.511V169.52A152.96,152.96,0,0,1,130.405,181.506Z"></path><path class="cls-15" d="M142.508,167.465V287.637h5.754V159.384Q145.609,163.383,142.508,167.465Z"></path><path class="cls-16" d="M382.069,247.242c2.518.069,6.692.869,5.475,7.909s1.955,6.139,2.709,5.735c.892-.477,5.982-6,.854,10.95s-16.859.174-16.859-4.084,2.878-4.4,4.02-4.559c2.758-.395,1.107-6.739.586-8.651S375.725,247.068,382.069,247.242Z"></path><polygon class="cls-17" points="26.002 0.036 26.002 19.318 344.001 209.576 344.001 206.528 26.002 0.036"></polygon><g class="cls-18"><rect class="cls-15" x="87.206" y="111.456" width="15.748" height="176.181"></rect><rect class="cls-15" x="104.545" y="111.456" width="12.166" height="176.181"></rect><rect class="cls-15" x="142.508" y="111.456" width="5.755" height="176.181"></rect><rect class="cls-15" x="130.405" y="111.456" width="10.511" height="176.181"></rect><rect class="cls-15" x="118.303" y="111.456" width="10.511" height="176.181"></rect></g><path class="cls-12" d="M28.475,279.432v10.549l59.392,3.751s43.964,2.813,61.743-6.1v-13.6C117.7,286.465,28.475,279.432,28.475,279.432Z"></path></g><path id="Hover" class="cls-19" d="M25.435,0,344.217,206.522l-.26,18.782-3.392.261.783,5.478H343.7l.13-.26,1.957,1.108,14.934,36.718.131,7.695-22.826.066-3.783-44.479.978-.13-.521-6.522-16.957.131,16.174,43.956V279.37l-29.217.13-3.653-54.261h-2.152V278.2L276.913,279.3l.065,5.087H233.022l-.131-3.065-83.282,3.652.065,2.609s-13.761,8.543-62.8,6.2L28.3,289.87l.131-10.435,5.739.391V143.13L0,132.435,34.174,83.391,34.3,24.3l-8.478-4.956Z"></path></g></g></svg>