<svg xmlns="http://www.w3.org/2000/svg" width="347.38" height="300.501"><defs><style>.cls-2{fill:#b3c9df}.cls-3{fill:#496d80}.cls-4{fill:#744b51}.cls-5{fill:#513740}.cls-6,.cls-8{fill:#75919e}.cls-7{fill:#97b2bc}.cls-8{mix-blend-mode:multiply}.cls-10{fill:#7c575d}.cls-11{fill:none;stroke:#496d80;stroke-linecap:round;stroke-miterlimit:10;stroke-width:1.75px}.cls-12{fill:#c5c2b5}</style></defs><g style="isolation:isolate"><g id="Building_B" data-name="Building B"><g id="Building"><path class="cls-2" d="M1.421 109.695h94.832v125.81H1.421z"/><path class="cls-3" d="M263.151 246.338H9.973S30.4 259.451 43.564 300.5c111.129-36.489 218.979-33.486 218.979-33.486Z"/><path class="cls-4" d="M96.254 83.889h160.398v155.037H96.254z"/><path class="cls-4" d="M136.163 85.94v168.825h40.44l-1.671-172.626-38.769 3.801z"/><path class="cls-5" d="M213.701 85.94v168.825h-38.769V82.139l38.769 3.801z"/><path class="cls-6" d="M138.729 104.564h15.964v64.425h-15.964zM157.638 104.564h15.964v64.425h-15.964z"/><path class="cls-7" d="m154.693 131.671-15.964 7v-34.107h15.964v27.107zM173.602 122.921l-15.964 7v-25.357h15.964v18.357z"/><path class="cls-6" d="M176.548 104.564h15.964v64.425h-15.964zM195.457 104.564h15.964v64.425h-15.964z"/><path class="cls-4" d="M176.833 0 96.254 79.059h160.398L176.833 0z"/><path class="cls-6" d="M120.199 112.356h15.964v56.633h-15.964z"/><path class="cls-8" d="M136.163 168.99h-15.964v-23.319l15.964-7v30.319z"/><path class="cls-5" d="M136.163 166.975h-13.049v-51.67h13.049v-5.61h-18.244v62.715h18.244v-5.435z"/><path class="cls-6" transform="rotate(-180 221.684 140.673)" d="M213.701 112.356h15.964v56.633h-15.964z"/><path class="cls-8" d="M213.701 168.99h15.964v-23.319l-15.964-7v30.319z"/><path class="cls-5" d="M213.701 166.975h13.05v-51.67h-13.05v-5.61h18.245v62.715h-18.245v-5.435zM136.163 103.377v6.318l38.769-3.8v-6.462l-38.769 3.944z"/><path class="cls-5" d="M213.701 103.377v6.318l-38.769-3.8v-6.462l38.769 3.944z"/><path class="cls-2" d="M136.163 79.621v6.319l38.769-3.801v-6.461l-38.769 3.943z"/><path style="fill:#658096" d="M213.701 79.621v6.319l-38.769-3.801v-6.461l38.769 3.943z"/><path class="cls-5" d="M136.163 169.227v6.319l38.769-3.801v-6.461l-38.769 3.943z"/><path class="cls-5" d="M213.701 169.227v6.319l-38.769-3.801v-6.461l38.769 3.943z"/><path class="cls-10" d="m176.603 40.092-40.44 39.529 38.769-3.943 1.671-35.586z"/><path class="cls-5" d="m213.701 79.621-37.098-39.529-1.671 35.586 38.769 3.943z"/><path class="cls-4" d="M9.973 225.118h107.946v13.113h144.624v16.534H9.973v-29.647z"/><path class="cls-3" d="M1.421 217.831h261.122v5.131H1.421z"/><path class="cls-11" d="M21.946 220.397v15.108M65.181 220.397v15.108M86.799 220.397v15.108M108.417 220.397v15.108M43.564 220.397v15.108"/><path class="cls-10" d="M1.421 138.833h90.651v30.787H1.421z"/><path class="cls-3" d="M0 143.419h87.128v21.615H0z"/><path class="cls-10" d="M1.421 178.332h90.651v30.787H1.421z"/><path class="cls-3" d="M0 182.918h87.128v21.615H0z"/><path class="cls-12" d="M262.543 267.015ZM174.057 268.177v4.1l1.75-.207v-3.886l39.274.26c17.635-1.171 31.266-1.452 39.305-1.489l-227.151-1.503c.377.57.757 1.158 1.137 1.758l14.317.1v6.526l-10.379.064q.469.857.937 1.744l9.442-.063v22.291c.293.869.588 1.733.875 2.628.291-.1.582-.187.874-.282v-24.649l14.671-.1v20.171c.584-.174 1.167-.341 1.75-.512v-19.669l14.671-.1v15.65c.584-.156 1.167-.309 1.75-.463v-15.2l14.671-.1v11.606l1.75-.417v-11.2l14.671-.1v8c.583-.124 1.169-.252 1.75-.374v-7.643l14.671-.1v4.819c.586-.11 1.166-.215 1.75-.323v-4.494l14.671-.1v2.036c.583-.1 1.169-.194 1.75-.288v-1.758l11.954-.08q6.87-1 13.452-1.841l-8.984.061v-4.97ZM59.11 273.721l-14.671.1v-6.5l14.671.1Zm16.421-.11-14.671.1v-6.283l14.671.1Zm16.421-.11-14.671.1v-6.064l14.671.1Zm16.421-.11-14.671.1v-5.845l14.671.1Zm16.421-.11-14.671.1v-5.626l14.671.1Zm16.421-.11-14.671.1v-5.408l14.671.1Zm16.422-.11-14.672.1v-5.189l14.672.1Z"/><path d="M280.069 289.174c67.179 0 73.284-80.987 63.787-89.066s-31.294 13.134-37.492-.11 25.851-46.2 28.565-54.954-1.4-17.822-22.135-8.1-18.973-13.726-11.865-25.393c6.1-10.017 25-38.082 10.238-37.87-8.794.126-14.544 27.547-23.047 9.438-10.263-21.855 1.06-57.523-8.051-57.972-9.111.449-15.2 19.685-10 44.169 4.158 19.569-14.031-.931-21.1 4.365-11.81 8.852 5.4 32.339 10.238 37.87s8.865 29.866-11.865 20.143-24.85-.653-22.135 8.1 27.641 28.074 21.443 41.318-20.874-6.583-30.37 1.5-3.389 106.562 63.789 106.562Z" style="fill:#273918"/><path class="cls-2" d="M96.732 78.813h39.304v5.565H96.732zM213.949 78.813h39.304v5.565h-39.304z"/></g></g></g></svg>