<svg xmlns="http://www.w3.org/2000/svg" width="378.932" height="337.292"><defs><style>.cls-1{fill:#b3c9df}.cls-2{fill:#513740}.cls-3{fill:#496d80}.cls-7,.cls-9{fill:none;stroke-miterlimit:10}.cls-7{stroke:#273918;stroke-width:3px}.cls-9{stroke:#71604b;stroke-width:3.15px}</style></defs><g id="Building_A" data-name="Building A"><g id="Building"><path class="cls-1" d="M144.316 167.106h234.616v113.229H144.316z"/><path class="cls-2" d="M144.316 193.33h81.586v27.709h-81.586z"/><path class="cls-3" d="M143.037 197.457h78.415v19.453h-78.415z"/><path class="cls-2" d="M144.316 228.879h81.586v27.709h-81.586z"/><path class="cls-3" d="M143.037 233.007h78.415v19.453h-78.415z"/><path class="cls-2" d="M238.731 193.33h81.586v27.709h-81.586z"/><path class="cls-3" d="M237.451 197.457h78.415v19.453h-78.415z"/><path class="cls-2" d="M238.731 228.879h81.586v27.709h-81.586z"/><path class="cls-3" d="M237.451 233.007h78.415v19.453h-78.415z"/><path class="cls-1" d="m59.351 61.455 6.157 243.669h70.127l-4.447-250.562-71.837 6.893z"/><path style="fill:#658096" d="M154.792 64.532v240.592h-19.157l-4.447-250.562 23.604 9.97z"/><path style="fill:#744b51" d="M106.216 0 59.351 49.773l71.965-8.723L106.216 0z"/><path class="cls-2" d="M155.476 54.562 106.216 0l25.1 41.05 24.16 13.512M57.94 52.76l73.376-7.782v6.229L57.94 58.305V52.76z"/><path d="M46.181 123.662c14.867.408 39.51 5.131 32.327 46.694S90.051 206.6 94.5 204.222c5.268-2.819 35.32-35.4 5.045 64.653S0 269.9 0 244.759s16.993-25.953 23.738-26.918c16.285-2.33 6.536-39.788 3.457-51.077s-18.472-44.128 18.986-43.102Z" style="fill:#789c4a"/><path class="cls-7" d="M56.892 176.166v161.126M22.064 245.614l34.37 45.155M94.5 223.721l-36.688 33.008"/><circle cx="94.5" cy="89.1" r="21.893" style="fill:#d3afa3"/><path class="cls-9" d="M94.5 67.207v4.63M94.5 106.364v4.629M116.393 89.1h-4.63M77.236 89.1h-4.629"/><path class="cls-2" d="M131.188 44.932v6.275l23.698 10.205v-4.646l-23.698-11.834z"/></g></g></svg>