<svg xmlns="http://www.w3.org/2000/svg" width="591.763" height="160.696"><defs><style>.cls-11,.cls-12,.cls-2{fill:none;stroke-miterlimit:10}.cls-2{stroke:#71604b;stroke-width:3.5px}.cls-6{fill:#1f3c49}.cls-11,.cls-12{stroke:#bed7e0}.cls-11{stroke-width:1.25px}.cls-12{stroke-width:1.875px}.cls-13{fill:#bed7e0}.cls-14{fill:#c5c2b5}.cls-15{fill:#8e4e2c}</style></defs><g id="Building_E" data-name="Building E"><g id="Building"><path d="M510.508.559c9.459.2 31.9 1.081 28.654 15.138s4.865 22.166 17.84 20c9.191-2.162 29.059 3.109 15.679 28.248s-10.543 25.14-5.271 28.383-17.3 29.194-56.9 19.869-55.822-29.997-37.576-35.274 10.948-22.3-.811-34.87 10.948-21.085 23.112-15.814-5.676-10.139-2.835-17.03S505.946.464 510.508.559Z" style="fill:#e2c751"/><path class="cls-2" d="M520.225 15.97v127.323M492.703 41.107l27.16 35.681M549.943 69.694l-28.992 26.083"/><path style="fill:#cfd4d6" d="m468.749 71.51 25.521 3.258v-6.312h84.162v88.303H468.749V71.51z"/><path style="fill:#933" d="M99.747 4.695v156l377.217-2.85-2.203-106.565L99.747 4.695z"/><path style="fill:#69a394" d="M343.727 35.673v65.566h67.194V43.411l-67.194-7.738z"/><path class="cls-6" d="M106.307 104.496v56.199l370.657-2.85v-56.447l-370.657 3.098z"/><path style="fill:#848b8b" d="M0 89.225h591.763v6.471H0z"/><path style="fill:#676b6b" d="m0 94.475 26.444 13.846h539.184l22.805-13.846H0z"/><path style="fill:#98d2c2" d="m410.714 71.16-9.963-1.014-2.349-29.432-1.246.1 1.272 15.927-10.259-1.044-1.197-14.983-1.245.1 2.238 28.029-10.676-1.087-2.159-27.042-1.245.1 1.081 13.538-11.225-1.143-.997-12.495-1.246.1 2.04 25.543-10.918-1.113-1.959-24.53-1.245.1.88 11.026-6.234-.634-.127 1.242 6.462.658 2.307 28.882-8.642-.88-.127 1.243 8.87.903.481 6.02 1.245-.1-1.81-22.664 10.918 1.113 1.729 21.651 1.245-.1-2.771-34.699 11.225 1.143 2.688 33.656 1.245-.1-1.61-20.152 10.676 1.087 1.531 19.165 1.245-.1-2.572-32.211 10.259 1.044 2.496 31.267 1.245-.1-1.418-17.762 9.735.991.127-1.243z"/><path class="cls-6" d="M96.261 0v11.403l383.032 45.61v-5.429L96.261 0z"/><path style="stroke:#b3b9bb;stroke-width:.399px;fill:none;stroke-miterlimit:10" d="M293.939 116.205h60.057"/><path class="cls-11" d="M106.307 123.026h48.868M106.307 137.279h48.868M192.234 123.026h37.67M192.234 137.279h37.67M267.777 123.026h26.162M267.777 137.279h26.162M229.904 116.205h37.873M229.904 130.458h37.873M229.904 144.711h37.873M155.175 116.205h37.873M155.175 130.458h37.873M155.175 144.711h37.873M353.996 123.026h27.4M353.996 137.279h27.4M353.996 152.347h27.4M267.157 152.347h27.401M420.288 123.026h38.28M420.288 137.279h38.28M381.702 116.205h38.28M381.702 130.458h38.28M381.702 144.711h38.28"/><path class="cls-12" d="M106.307 109.383h375.264M267.777 109.383v51.312M229.904 109.383v51.312M192.234 109.383v51.312M155.175 109.383v51.312M117.709 109.383v51.312M293.939 109.383v51.312M324.383 109.383v51.312M353.996 109.064v51.312M381.396 109.064v51.312M420.288 109.064v51.312M458.568 109.064v51.312"/><path class="cls-13" d="M294.196 116.205h59.779v44.491h-59.779z"/><path class="cls-6" d="M295.902 120.343h56.366v40.353h-56.366z"/><path class="cls-13" d="M322.321 120.343h4.123v40.353h-4.123zM307.877 120.343h2.062v40.353h-2.062zM338.42 120.343h2.062v40.353h-2.062z"/><path class="cls-14" d="M99.747 152.347h188.451v8.348H99.747zM360.108 152.347h188.451v8.348H360.108z"/><path class="cls-15" d="M36.76 113.048h62.987v3.517H36.76z"/><path class="cls-15" transform="rotate(90 70.535 145.582)" d="M55.427 143.823h30.215v3.517H55.427z"/><path class="cls-15" transform="rotate(90 65.972 145.582)" d="M50.864 143.823h30.215v3.517H50.864z"/><path class="cls-15" transform="rotate(135 76.14 125.878)" d="M61.032 124.119h30.215v3.517H61.032z"/><path class="cls-15" transform="rotate(45 60.367 125.878)" d="M45.26 124.119h30.215v3.517H45.26z"/><path class="cls-15" d="M476.964 113.048h62.987v3.517h-62.987z"/><path class="cls-15" transform="rotate(90 510.738 145.582)" d="M495.631 143.823h30.215v3.517h-30.215z"/><path class="cls-15" transform="rotate(90 506.176 145.581)" d="M491.069 143.823h30.215v3.517h-30.215z"/><path class="cls-15" transform="rotate(135 516.343 125.878)" d="M501.236 124.119h30.215v3.517h-30.215z"/><path class="cls-15" transform="rotate(45 500.572 125.878)" d="M485.464 124.119h30.215v3.517h-30.215z"/></g></g></svg>