<svg xmlns="http://www.w3.org/2000/svg" width="378.932" height="337.292" viewBox="0 0 378.932 337.292"><defs><style>.cls-1 {
  isolation: isolate;
}

.cls-2 {
  fill: #b3c9df;
}

.cls-3 {
  fill: #513740;
}

.cls-4 {
  fill: #496d80;
}

.cls-5 {
  fill: #658096;
}

.cls-6 {
  fill: #744b51;
}

.cls-7 {
  fill: #789c4a;
}

.cls-10, .cls-8 {
  fill: none;
  stroke-miterlimit: 10;
}

.cls-8 {
  stroke: #273918;
  stroke-width: 3px;
}

.cls-9 {
  fill: #d3afa3;
}

.cls-10 {
  stroke: #71604b;
  stroke-width: 3.15px;
}

.cls-11 {
  fill: #1f5e30;
  mix-blend-mode: hue;
}

</style></defs><g class="cls-1"><g id="Building_A" data-name="Building A"><g id="Building"><rect class="cls-2" x="144.316" y="167.106" width="234.616" height="113.229"></rect><rect class="cls-3" x="144.316" y="193.33" width="81.586" height="27.709"></rect><rect class="cls-4" x="143.037" y="197.457" width="78.415" height="19.453"></rect><rect class="cls-3" x="144.316" y="228.879" width="81.586" height="27.709"></rect><rect class="cls-4" x="143.037" y="233.007" width="78.415" height="19.453"></rect><rect class="cls-3" x="238.731" y="193.33" width="81.586" height="27.709"></rect><rect class="cls-4" x="237.451" y="197.457" width="78.415" height="19.453"></rect><rect class="cls-3" x="238.731" y="228.879" width="81.586" height="27.709"></rect><rect class="cls-4" x="237.451" y="233.007" width="78.415" height="19.453"></rect><polygon class="cls-2" points="59.351 61.455 65.508 305.124 135.635 305.124 131.188 54.562 59.351 61.455"></polygon><polygon class="cls-5" points="154.792 64.532 154.792 305.124 135.635 305.124 131.188 54.562 154.792 64.532"></polygon><polygon class="cls-6" points="106.216 0 59.351 49.773 131.316 41.05 106.216 0"></polygon><polyline class="cls-3" points="155.476 54.562 106.216 0 131.316 41.05 155.476 54.562"></polyline><polygon class="cls-3" points="57.94 52.76 131.316 44.978 131.316 51.207 57.94 58.305 57.94 52.76"></polygon><path class="cls-7" d="M46.181,123.662c14.867.408,39.51,5.131,32.327,46.694S90.051,206.6,94.5,204.222c5.268-2.819,35.32-35.4,5.045,64.653S0,269.9,0,244.759s16.993-25.953,23.738-26.918c16.285-2.33,6.536-39.788,3.457-51.077S8.723,122.636,46.181,123.662Z"></path><line class="cls-8" x1="56.892" y1="176.166" x2="56.892" y2="337.292"></line><line class="cls-8" x1="22.064" y1="245.614" x2="56.434" y2="290.769"></line><line class="cls-8" x1="94.5" y1="223.721" x2="57.812" y2="256.729"></line><circle class="cls-9" cx="94.5" cy="89.1" r="21.893"></circle><line class="cls-10" x1="94.5" y1="67.207" x2="94.5" y2="71.837"></line><line class="cls-10" x1="94.5" y1="106.364" x2="94.5" y2="110.993"></line><line class="cls-10" x1="116.393" y1="89.1" x2="111.763" y2="89.1"></line><line class="cls-10" x1="77.236" y1="89.1" x2="72.607" y2="89.1"></line><polygon class="cls-3" points="131.188 44.932 131.188 51.207 154.886 61.412 154.886 56.766 131.188 44.932"></polygon></g><g id="Hover"><path class="cls-11" d="M378.932,167.106H154.792V64.532l-23.6-9.97L59.351,61.455l1.632,64.6a49.908,49.908,0,0,0-14.8-2.388c-37.458-1.026-22.064,31.814-18.986,43.1s12.828,48.747-3.457,51.077C16.993,218.806,0,219.616,0,244.759c0,15.837,27.483,60.985,55.393,67.234v25.3h3V312.511c7.432.9,14.826-1.131,21.67-7.387h74.729V280.335h224.14Z"></path><polygon class="cls-11" points="155.476 54.562 106.216 0 59.351 49.773 131.316 41.05 155.476 54.562"></polygon><polygon class="cls-11" points="154.886 61.412 154.886 56.766 131.316 44.996 131.316 44.978 131.286 44.981 131.188 44.932 131.188 44.992 57.94 52.76 57.94 58.305 131.211 51.217 154.886 61.412"></polygon></g></g></g></svg>