<?xml version="1.0" encoding="UTF-8"?>
<svg width="28px" height="28px" viewBox="0 0 28 28" version="1.1" xmlns="http://www.w3.org/2000/svg" xmlns:xlink="http://www.w3.org/1999/xlink">
    <title>emoji-stars</title>
    <g id="emoji-stars" stroke="none" stroke-width="1" fill="none" fill-rule="evenodd">
        <path d="M14,0 C6.26823077,0 0,6.27038462 0,14 C0,21.7296154 6.26823077,28 14,28 C21.7317692,28 28,21.7296154 28,14 C28,6.27038462 21.7317692,0 14,0 Z M3.2,8.18823529 L6.4,8.18823529 L8,4.8 L9.6,8.18823529 L12.8,8.18823529 L10.1333333,11.0117647 L11.2,14.4 L8,12.7058824 L4.8,14.4 L5.86666667,11.0117647 L3.2,8.18823529 Z M20.7845872,18.0154114 C20.7357872,18.3026863 20.6686853,18.5839543 20.5873521,18.8571429 C20.1501878,20.3115943 19.2595769,21.5731886 18.0782277,22.4772514 C16.837902,23.4335143 15.2864539,24 13.6008125,24 C11.915171,24 10.3637229,23.4334629 9.12339729,22.4772514 C7.94204803,21.5712343 7.05141636,20.3116457 6.61427289,18.8571429 C6.53090436,18.5839286 6.46380767,18.3026914 6.41500772,18.0154114 C6.30724181,17.3825829 6.79320605,16.8 7.44389291,16.8 L19.7576175,16.8 C20.4082836,16.8 20.894253,17.3825829 20.7844726,18.0154114 L20.7845872,18.0154114 Z M22.1333333,11.0117647 L23.2,14.4 L20,12.7058824 L16.8,14.4 L17.8666667,11.0117647 L15.2,8.18823529 L18.4,8.18823529 L20,4.8 L21.6,8.18823529 L24.8,8.18823529 L22.1333333,11.0117647 Z" id="Fill-1-Copy" fill="#FFFFFF"></path>
    </g>
</svg>