<?xml version="1.0" encoding="UTF-8"?>
<svg width="28px" height="28px" viewBox="0 0 28 28" version="1.1" xmlns="http://www.w3.org/2000/svg" xmlns:xlink="http://www.w3.org/1999/xlink">
    <title>emoji-homg</title>
    <g id="emoji-homg" stroke="none" stroke-width="1" fill="none" fill-rule="evenodd">
        <path d="M14.0007142,0 C6.26884326,0 0,6.26773461 0,14 C0,21.7322654 6.26884326,28 14.0007142,28 C21.7325851,28 28,21.7322654 28,14 C28,6.26773461 21.7325851,0 14.0007142,0 Z M8.47391914,12.5047573 C7.23104196,12.5047573 6.22252774,11.4975844 6.22252774,10.253251 C6.22252774,9.00891768 7.23104196,8.00174476 8.47391914,8.00174476 C9.71679633,8.00174476 10.7253105,9.01031044 10.7253105,10.253251 C10.7253105,11.4975844 9.71818901,12.5047573 8.47391914,12.5047573 Z M14.0007142,25.4459098 C12.0311083,25.4459098 10.4353118,23.0353799 10.4353118,20.0613218 C10.4353118,17.0872637 12.0311083,14.6767339 14.0007142,14.6767339 C15.9703201,14.6767339 17.5661166,17.0872637 17.5661166,20.0613218 C17.5661166,23.0353799 15.9703201,25.4459098 14.0007142,25.4459098 Z M19.5260809,12.5047573 C18.2832037,12.5047573 17.2746895,11.4975844 17.2746895,10.253251 C17.2746895,9.00891768 18.281811,8.00174476 19.5260809,8.00174476 C20.7703507,8.00174476 21.7774737,9.01031044 21.7774737,10.253251 C21.7788685,11.4975844 20.7703507,12.5047573 19.5260809,12.5047573 Z" id="Fill-1-Copy" fill="#FFFFFF"></path>
    </g>
</svg>