<?xml version="1.0" encoding="UTF-8"?>
<svg width="28px" height="28px" viewBox="0 0 28 28" version="1.1" xmlns="http://www.w3.org/2000/svg" xmlns:xlink="http://www.w3.org/1999/xlink">
    <title>emoji-smile</title>
    <g id="emoji-smile" stroke="none" stroke-width="1" fill="none" fill-rule="evenodd">
        <path d="M14,0 C6.29971201,0 0,6.29971201 0,14 C0,21.700288 6.29971201,28 14,28 C21.700288,28 28,21.700288 28,14 C28,6.29971201 21.700288,0 14,0 Z M6.4,10.8 C6.4,9.69971209 7.29971209,8.8 8.4,8.8 C9.50028791,8.8 10.4,9.69971209 10.4,10.8 C10.4,11.9002879 9.50028791,12.8 8.4,12.8 C7.29971209,12.7981238 6.4,11.8984165 6.4,10.8 Z M21.2901654,20.7114205 C19.4386664,22.3115874 16.8677983,23.2 14.399133,23.2 C11.9304676,23.2 9.35959955,22.3999166 7.50810054,20.7114205 C7.09729982,20.356384 7.09729982,19.8230079 7.50810054,19.4662774 C7.91890127,19.1112409 8.53605279,19.1112409 8.94881364,19.4662774 C11.9324426,22.0448929 16.8697733,22.0448929 19.8514273,19.4662774 C20.262228,19.1112409 20.8793795,19.1112409 21.2921403,19.4662774 C21.7029411,19.8229823 21.7029411,20.3563542 21.2902098,20.7114205 L21.2901654,20.7114205 Z M20.4,12.8 C19.2997121,12.8 18.4,11.9002879 18.4,10.8 C18.4,9.69971209 19.2997121,8.8 20.4,8.8 C21.5002879,8.8 22.4,9.69971209 22.4,10.8 C22.4,11.9002879 21.5002879,12.8 20.4,12.8 Z" id="Fill-1-Copy" fill="#FFFFFF"></path>
    </g>
</svg>