<?xml version="1.0" encoding="UTF-8"?>
<svg width="28px" height="28px" viewBox="0 0 28 28" version="1.1" xmlns="http://www.w3.org/2000/svg" xmlns:xlink="http://www.w3.org/1999/xlink">
    <title>sound-unmute</title>
    <g id="sound-unmute" stroke="none" stroke-width="1" fill="none" fill-rule="evenodd">
        <g id="Group-3-Copy" fill="#FFFFFF">
            <path d="M21.6,0.985909848 C21.6,0.597371309 21.3779158,0.263068128 21.0453304,0.0970279175 C20.6845733,-0.0701236732 20.2967482,-0.0136766699 19.9912362,0.207732505 L11.2,7.20915028 L21.5717673,17.6 L21.5717673,0.985698685 L21.6,0.985909848 Z" id="Fill-1"></path>
            <path d="M27.7297471,26.2638049 L1.68562376,0.293520598 C1.29357979,-0.0978401994 0.648546348,-0.0978401994 0.283864713,0.293520598 C-0.0808168095,0.684878597 -0.108179146,1.32878341 0.283864713,1.69282695 L6.59178128,7.98970551 L6.00259392,7.98970551 C5.38604422,7.98970551 4.85270294,8.26956678 4.48914271,8.71779259 C4.18030715,9.05340222 4.01276891,9.52894249 4.01276891,10.0056022 L4.01276891,18.0101914 C4.01276891,19.1012054 4.90967042,19.997657 6.00371533,19.997657 L10.6283988,19.9954685 L20.3849221,27.7758927 C20.5535706,27.9158233 20.7769661,28 21.0014718,28 C21.1416477,28 21.3103074,27.9715773 21.4504833,27.8884921 C21.7866812,27.7201387 22.0111869,27.3572035 22.0111869,26.99316 L22.0111869,23.3823888 L26.2997286,27.6916935 C26.4957562,27.8873781 26.74874,27.9715547 27.0006081,27.9715547 C27.2524874,27.9715547 27.5054656,27.8600468 27.7014876,27.6916935 C28.094625,27.3003354 28.094625,26.6564306 27.7299601,26.2639532 L27.7297471,26.2638049 Z" id="Fill-2"></path>
        </g>
    </g>
</svg>