<?xml version="1.0" encoding="UTF-8"?>
<svg width="28px" height="28px" viewBox="0 0 28 28" version="1.1" xmlns="http://www.w3.org/2000/svg" xmlns:xlink="http://www.w3.org/1999/xlink">
    <title>sound-mute</title>
    <g id="sound-mute" stroke="none" stroke-width="1" fill="none" fill-rule="evenodd">
        <g id="Group-3-Copy" fill="#FFFFFF">
            <path d="M18.0111869,0.985909848 C18.0111869,0.597371309 17.7891027,0.263068128 17.4565173,0.0970279175 C17.0957602,-0.0701236732 16.7079352,-0.0136766699 16.4024231,0.207732505 L7.61118692,7.20915028 L4.77611387,9.37515197 L18.0111869,22.9812617 L17.9829542,17.6 L17.9829542,0.985698685 L18.0111869,0.985909848 Z" id="Fill-1"></path>
            <path d="M18.0111869,20.8320084 L10,8.31103439 C9.73863735,8.05012719 7.26923111,7.94301756 2.59178128,7.98970551 L2.00259392,7.98970551 C1.38604422,7.98970551 0.852702935,8.26956678 0.489142708,8.71779259 C0.180307154,9.05340222 0.0127689118,9.52894249 0.0127689118,10.0056022 L0.0127689118,18.0101914 C0.0127689118,19.1012054 0.909670423,19.997657 2.00371533,19.997657 L6.62839879,19.9954685 L16.3849221,27.7758927 C16.5535706,27.9158233 16.7769661,28 17.0014718,28 C17.1416477,28 17.3103074,27.9715773 17.4504833,27.8884921 C17.7866812,27.7201387 18.0111869,27.3572035 18.0111869,26.99316 L18.0111869,23.3823888 L18.0111869,20.8320084 Z" id="Fill-2"></path>
        </g>
        <rect id="Rectangle" fill="#FFFFFF" x="21" y="8" width="2.5" height="12" rx="0.8"></rect>
        <rect id="Rectangle-Copy" fill="#FFFFFF" x="25.5" y="4" width="2.5" height="20" rx="0.8"></rect>
    </g>
</svg>