<svg width="32" height="32" xmlns="http://www.w3.org/2000/svg"><g id="icons/sound-mute" stroke="none" stroke-width="1" fill="none" fill-rule="evenodd"><g id="volume_off_black_36dp" fill="#FFF" fill-rule="nonzero"><path d="M24 16c0-3.147-1.813-5.849-4.444-7.164v3.928l4.355 4.356c.053-.356.089-.729.089-1.12Zm4.444 0c0 1.671-.355 3.236-.96 4.693l2.685 2.685A15.638 15.638 0 0 0 32 16C32 8.391 26.684 2.027 19.556.409V4.07C24.693 5.6 28.444 10.364 28.444 16ZM2.258 0 0 2.258l8.409 8.409H0v10.666h7.111L16 30.223V18.257l7.556 7.555c-1.192.925-2.525 1.654-4 2.098v3.662c2.453-.55 4.675-1.689 6.56-3.217L29.742 32 32 29.742l-16-16L2.258 0ZM16 1.778l-3.716 3.715L16 9.21V1.778Z" id="Shape"/></g></g></svg>