<svg width="32" height="29" xmlns="http://www.w3.org/2000/svg"><g id="icons/thumbs" stroke="none" stroke-width="1" fill="none" fill-rule="evenodd"><g id="Group-3" transform="matrix(-1 0 0 1 32 0)" fill="#FFF"><path d="M32 11.029v16.01a.463.463 0 0 1-.449.477l-7.573-.002c-.269 0-.449-.237-.449-.476l.002-16.01c0-.285.224-.475.449-.475h7.573c.267 0 .447.19.447.475Z" id="Fill-1"/><path d="m0 15.921.192 4.134c0 .048 1.055 4.275 1.055 4.275l.67 2.9c.239 1.14 1.293 1.946 2.443 1.946h9.964c.192 0 .383-.048.526-.19l3.88-2.945c.096-.048.144-.095.24-.095h2.106c.24 0 .432-.19.432-.427l.001-12.543a.428.428 0 0 0-.43-.427h-.67a.414.414 0 0 1-.383-.285C19.02 8.794 17.15 7.56 15.14 6.325l-.144-.142c-2.3-3.421-3.21-5.607-3.21-5.654-.192-.38-.527-.57-.958-.522C9.535.292 8.624.911 8.193 1.86c-.957 1.948.144 4.752 1.532 7.791.144.237-.048.57-.336.618l-.813.095c-.049 0 .048 0 0 0L3.21 9.936C1.724 9.888.528 10.982.336 12.407L0 15.921Z" id="Fill-2"/></g></g></svg>