<svg width="98" height="62" xmlns="http://www.w3.org/2000/svg"><defs><filter x="-15%" y="-27.3%" width="130%" height="154.5%" filterUnits="objectBoundingBox" id="filter-1"><feOffset dy="2" in="SourceAlpha" result="shadowOffsetOuter1"/><feGaussianBlur stdDeviation="2" in="shadowOffsetOuter1" result="shadowBlurOuter1"/><feColorMatrix values="0 0 0 0 0 0 0 0 0 0 0 0 0 0 0 0 0 0 0.239015379 0" in="shadowBlurOuter1" result="shadowMatrixOuter1"/><feMerge><feMergeNode in="shadowMatrixOuter1"/><feMergeNode in="SourceGraphic"/></feMerge></filter></defs><g id="toggle-list" stroke="none" stroke-width="1" fill="none" fill-rule="evenodd"><g id="Group-4-Copy-4" filter="url('#filter-1')" transform="translate(9 9)"><rect id="Rectangle" fill="#FFF" x="0" y="0" width="80" height="44" rx="22"/><rect id="Rectangle-Copy" stroke="#E6E6E6" stroke-width="2" x="6" y="6" width="68" height="32" rx="16"/><circle id="Oval" fill="#8DC63F" cx="58" cy="22" r="19"/><path d="m1.277 12.147.04.058c.048.071.1.141.15.218L7.26 20.62c.17.24.446.381.742.381a.908.908 0 0 0 .743-.381l5.777-8.19c.056-.076.109-.15.163-.218l.035-.053a7.784 7.784 0 0 0 1.201-5.386 7.848 7.848 0 0 0-2.676-4.843A8.072 8.072 0 0 0 8 0a8.07 8.07 0 0 0-5.244 1.93A7.845 7.845 0 0 0 .08 6.771a7.785 7.785 0 0 0 1.203 5.386l-.005-.01ZM8 5a3 3 0 1 1-.001 6A3 3 0 0 1 8 5Z" transform="translate(14 12)" id="location" fill="#000"/><g id="list" transform="translate(49 16)" fill="#FFF"><path d="M2.333 1.166c0 1.556-2.333 1.556-2.333 0 0-1.555 2.333-1.555 2.333 0" id="Fill-1"/><path id="Fill-2" d="M4.082 2.333h12.83V0H4.083z"/><path d="M2.333 6.416C2.333 7.97 0 7.97 0 6.416c0-1.556 2.333-1.556 2.333 0" id="Fill-3"/><path id="Fill-4" d="M4.082 7.582h12.83V5.249H4.083z"/><path d="M2.333 11.08c0 1.556-2.333 1.556-2.333 0 0-1.554 2.333-1.554 2.333 0" id="Fill-5"/><path id="Fill-6" d="M4.082 12.247h12.83V9.914H4.083z"/></g></g></g></svg>