<?xml version="1.0" encoding="UTF-8"?>
<svg width="175px" height="102px" viewBox="0 0 175 102" version="1.1" xmlns="http://www.w3.org/2000/svg" xmlns:xlink="http://www.w3.org/1999/xlink">
    <title>toggle-map</title>
    <defs>
        <rect id="path-1" x="7" y="4" width="160" height="88" rx="44"></rect>
        <filter x="-8.8%" y="-11.4%" width="117.5%" height="131.8%" filterUnits="objectBoundingBox" id="filter-2">
            <feOffset dx="0" dy="4" in="SourceAlpha" result="shadowOffsetOuter1"></feOffset>
            <feGaussianBlur stdDeviation="4" in="shadowOffsetOuter1" result="shadowBlurOuter1"></feGaussianBlur>
            <feColorMatrix values="0 0 0 0 0   0 0 0 0 0   0 0 0 0 0  0 0 0 0.5 0" type="matrix" in="shadowBlurOuter1"></feColorMatrix>
        </filter>
    </defs>
    <g id="toggle-map" stroke="none" stroke-width="1" fill="none" fill-rule="evenodd">
        <g id="Rectangle" fill-rule="nonzero">
            <use fill="black" fill-opacity="1" filter="url('#filter-2')" xlink:href="#path-1"></use>
            <use fill="#FFFFFF" xlink:href="#path-1"></use>
        </g>
        <rect id="Rectangle-Copy" stroke="#E6E6E6" stroke-width="4" x="19" y="16" width="136" height="64" rx="32"></rect>
        <circle id="Oval" fill="#8DC63F" fill-rule="nonzero" cx="51" cy="48" r="38"></circle>
        <g id="location_on_black_36dp" opacity="0.9" transform="translate(28.000000, 24.000000)">
            <polygon id="Path" points="0 0 52 0 52 52 0 52"></polygon>
            <path d="M23.1666667,4 C14.7816667,4 8,10.7816667 8,19.1666667 C8,30.5416667 23.1666667,47.3333333 23.1666667,47.3333333 C23.1666667,47.3333333 38.3333333,30.5416667 38.3333333,19.1666667 C38.3333333,10.7816667 31.5516667,4 23.1666667,4 Z M23.1666667,24.5833333 C20.1766667,24.5833333 17.75,22.1566667 17.75,19.1666667 C17.75,16.1766667 20.1766667,13.75 23.1666667,13.75 C26.1566667,13.75 28.5833333,16.1766667 28.5833333,19.1666667 C28.5833333,22.1566667 26.1566667,24.5833333 23.1666667,24.5833333 Z" id="Shape" fill="#FFFFFF" fill-rule="nonzero"></path>
        </g>
        <g id="list" transform="translate(107.000000, 36.000000)" fill="#262626" fill-rule="nonzero">
            <path d="M4.6656,2.3328 C4.6656,5.4432 0,5.4432 0,2.3328 C0,-0.7776 4.6656,-0.7776 4.6656,2.3328" id="Fill-1"></path>
            <polygon id="Fill-2" points="8.1648 4.6656 33.8256 4.6656 33.8256 0 8.1648 0"></polygon>
            <path d="M4.6656,12.8312187 C4.6656,15.9405271 0,15.9405271 0,12.8312187 C0,9.71972712 4.6656,9.71972712 4.6656,12.8312187" id="Fill-3"></path>
            <polygon id="Fill-4" points="8.1648 15.1632 33.8256 15.1632 33.8256 10.4976 8.1648 10.4976"></polygon>
            <path d="M4.6656,22.1607814 C4.6656,25.2722728 0,25.2722728 0,22.1607814 C0,19.0514729 4.6656,19.0514729 4.6656,22.1607814" id="Fill-5"></path>
            <polygon id="Fill-6" points="8.1648 24.4944 33.8256 24.4944 33.8256 19.8288 8.1648 19.8288"></polygon>
        </g>
    </g>
</svg>