<svg width="175" height="102" xmlns="http://www.w3.org/2000/svg" xmlns:xlink="http://www.w3.org/1999/xlink"><defs><filter x="-8.8%" y="-11.4%" width="117.5%" height="131.8%" filterUnits="objectBoundingBox" id="filter-2"><feOffset dy="4" in="SourceAlpha" result="shadowOffsetOuter1"/><feGaussianBlur stdDeviation="4" in="shadowOffsetOuter1" result="shadowBlurOuter1"/><feColorMatrix values="0 0 0 0 0 0 0 0 0 0 0 0 0 0 0 0 0 0 0.5 0" in="shadowBlurOuter1"/></filter><rect id="path-1" x="7" y="4" width="160" height="88" rx="44"/></defs><g id="toggle-map" stroke="none" stroke-width="1" fill="none" fill-rule="evenodd"><g id="Rectangle" fill-rule="nonzero"><use fill="#000" filter="url('#filter-2')" xlink:href="#path-1"/><use fill="#FFF" xlink:href="#path-1"/></g><rect id="Rectangle-Copy" stroke="#E6E6E6" stroke-width="4" x="19" y="16" width="136" height="64" rx="32"/><circle id="Oval" fill="#8DC63F" fill-rule="nonzero" cx="51" cy="48" r="38"/><g id="location_on_black_36dp" opacity=".9" transform="translate(28 24)"><path id="Path" d="M0 0h52v52H0z"/><path d="M23.167 4C14.782 4 8 10.782 8 19.167c0 11.375 15.167 28.166 15.167 28.166s15.166-16.791 15.166-28.166C38.333 10.782 31.552 4 23.167 4Zm0 20.583a5.419 5.419 0 0 1-5.417-5.416 5.419 5.419 0 0 1 5.417-5.417 5.419 5.419 0 0 1 5.416 5.417 5.419 5.419 0 0 1-5.416 5.416Z" id="Shape" fill="#FFF" fill-rule="nonzero"/></g><g id="list" transform="translate(107 36)" fill="#262626" fill-rule="nonzero"><path d="M4.666 2.333c0 3.11-4.666 3.11-4.666 0s4.666-3.11 4.666 0" id="Fill-1"/><path id="Fill-2" d="M8.165 4.666h25.66V0H8.166z"/><path d="M4.666 12.831c0 3.11-4.666 3.11-4.666 0 0-3.111 4.666-3.111 4.666 0" id="Fill-3"/><path id="Fill-4" d="M8.165 15.163h25.66v-4.665H8.166z"/><path d="M4.666 22.16c0 3.112-4.666 3.112-4.666 0 0-3.109 4.666-3.109 4.666 0" id="Fill-5"/><path id="Fill-6" d="M8.165 24.494h25.66V19.83H8.166z"/></g></g></svg>