<svg width="160" height="98" xmlns="http://www.w3.org/2000/svg"><defs><filter x="-12.5%" y="-22.7%" width="125%" height="145.5%" filterUnits="objectBoundingBox" id="filter-1"><feOffset dy="2" in="SourceAlpha" result="shadowOffsetOuter1"/><feGaussianBlur stdDeviation="4" in="shadowOffsetOuter1" result="shadowBlurOuter1"/><feColorMatrix values="0 0 0 0 0 0 0 0 0 0 0 0 0 0 0 0 0 0 0.5 0" in="shadowBlurOuter1" result="shadowMatrixOuter1"/><feMerge><feMergeNode in="shadowMatrixOuter1"/><feMergeNode in="SourceGraphic"/></feMerge></filter><filter x="-14.4%" y="-26.1%" width="128.8%" height="152.3%" filterUnits="objectBoundingBox" id="filter-2"><feOffset dy="4" in="SourceAlpha" result="shadowOffsetOuter1"/><feGaussianBlur stdDeviation="4" in="shadowOffsetOuter1" result="shadowBlurOuter1"/><feColorMatrix values="0 0 0 0 0 0 0 0 0 0 0 0 0 0 0 0 0 0 0.5 0" in="shadowBlurOuter1" result="shadowMatrixOuter1"/><feMerge><feMergeNode in="shadowMatrixOuter1"/><feMergeNode in="SourceGraphic"/></feMerge></filter></defs><g id="toggle-list" stroke="none" stroke-width="1" fill="none" fill-rule="evenodd"><g id="toggle-list.d10c675d" filter="url('#filter-1')"/><g id="toggle-list.d10c675d" filter="url('#filter-2')"><rect id="Rectangle" fill="#FFF" fill-rule="nonzero" x="0" y="0" width="160" height="88" rx="44"/><rect id="Rectangle-Copy" stroke="#E6E6E6" stroke-width="4" x="12" y="12" width="136" height="64" rx="32"/><circle id="Oval" fill="#8DC63F" fill-rule="nonzero" cx="116" cy="44" r="38"/></g><g id="location_on_black_36dp" transform="translate(21 20)"><path id="Path" d="M0 0h52v52H0z"/><path d="M23.167 4C14.782 4 8 10.782 8 19.167c0 11.375 15.167 28.166 15.167 28.166s15.166-16.791 15.166-28.166C38.333 10.782 31.552 4 23.167 4Zm0 20.583a5.419 5.419 0 0 1-5.417-5.416 5.419 5.419 0 0 1 5.417-5.417 5.419 5.419 0 0 1 5.416 5.417 5.419 5.419 0 0 1-5.416 5.416Z" id="Shape" fill="#262626" fill-rule="nonzero"/></g><g id="list" opacity=".9" transform="translate(100 32)" fill="#FFF" fill-rule="nonzero"><path d="M4.666 2.333c0 3.11-4.666 3.11-4.666 0s4.666-3.11 4.666 0" id="Fill-1"/><path id="Fill-2" d="M8.165 4.666h25.66V0H8.166z"/><path d="M4.666 12.831c0 3.11-4.666 3.11-4.666 0 0-3.111 4.666-3.111 4.666 0" id="Fill-3"/><path id="Fill-4" d="M8.165 15.163h25.66v-4.665H8.166z"/><path d="M4.666 22.16c0 3.112-4.666 3.112-4.666 0 0-3.109 4.666-3.109 4.666 0" id="Fill-5"/><path id="Fill-6" d="M8.165 24.494h25.66V19.83H8.166z"/></g></g></svg>