<svg xmlns="http://www.w3.org/2000/svg" xmlns:xlink="http://www.w3.org/1999/xlink" width="491.046" height="200.843" viewBox="0 0 491.046 200.843"><defs><style>.cls-1,.cls-10,.cls-11,.cls-12,.cls-13,.cls-14,.cls-15,.cls-16,.cls-17,.cls-21,.cls-22,.cls-25,.cls-7,.cls-8,.cls-9{fill:none;}.cls-2{isolation:isolate;}.cls-3{fill:#738c99;}.cls-4{fill:#587380;}.cls-5{fill:#99b1bf;}.cls-6{clip-path:url(#clip-path);}.cls-10,.cls-11,.cls-12,.cls-13,.cls-14,.cls-15,.cls-16,.cls-17,.cls-7,.cls-8,.cls-9{stroke:#4c565c;}.cls-10,.cls-11,.cls-12,.cls-13,.cls-14,.cls-15,.cls-16,.cls-17,.cls-21,.cls-22,.cls-25,.cls-7,.cls-8,.cls-9{stroke-miterlimit:10;}.cls-7{stroke-width:0.711px;}.cls-8{stroke-width:0.782px;}.cls-9{stroke-width:0.853px;}.cls-10{stroke-width:0.924px;}.cls-11{stroke-width:1.351px;}.cls-12{stroke-width:1.279px;}.cls-13{stroke-width:1.208px;}.cls-14{stroke-width:1.137px;}.cls-15{stroke-width:1.066px;}.cls-16{stroke-width:0.995px;}.cls-17,.cls-22{stroke-width:1.422px;}.cls-18{fill:#4c565c;}.cls-19{fill:#3a4247;}.cls-20{clip-path:url(#clip-path-2);}.cls-21{stroke:#587380;stroke-width:1.156px;}.cls-22{stroke:#99b1bf;}.cls-23{fill:#876359;}.cls-24{fill:#bac751;}.cls-25{stroke:#685e45;stroke-width:2.132px;}.cls-26{fill:#b1c4ce;}.cls-27,.cls-28{fill:#1d5e2f;}.cls-28{mix-blend-mode:hue;}</style><clipPath id="clip-path"><polygon class="cls-1" points="71.017 122.791 321.893 137.583 321.893 170.21 71.017 187.346 71.017 122.791"/></clipPath><clipPath id="clip-path-2"><polygon class="cls-1" points="341.809 88.54 341.809 134.855 48.786 115.403 48.786 17.523 341.809 88.54"/></clipPath></defs><g class="cls-2"><g id="Chilliwack-CEP-A"><g id="Building-2" data-name="Building"><polyline class="cls-3" points="71.017 122.791 38.442 122.273 0 128.017 20.945 129.915 20.945 181.632 71.017 185.812 71.017 129.915"/><polygon class="cls-4" points="301.72 74.07 444.861 59.747 444.861 175.073 301.72 163.957 301.72 74.07"/><polygon class="cls-5" points="71.017 122.791 321.893 137.583 321.893 170.21 71.017 187.346 71.017 122.791"/><g class="cls-6"><line class="cls-7" x1="316.49" y1="120.034" x2="316.49" y2="191.978"/><line class="cls-7" x1="309.156" y1="120.034" x2="309.156" y2="191.978"/><line class="cls-7" x1="301.72" y1="120.034" x2="301.72" y2="191.978"/><line class="cls-7" x1="292.946" y1="120.034" x2="292.946" y2="191.978"/><line class="cls-7" x1="284.841" y1="120.034" x2="284.841" y2="191.978"/><line class="cls-7" x1="276.504" y1="120.034" x2="276.504" y2="191.978"/><line class="cls-7" x1="267.704" y1="120.034" x2="267.704" y2="191.978"/><line class="cls-7" x1="257.978" y1="120.034" x2="257.978" y2="191.978"/><line class="cls-7" x1="248.946" y1="120.034" x2="248.946" y2="191.978"/><line class="cls-7" x1="238.293" y1="120.034" x2="238.293" y2="191.978"/><line class="cls-8" x1="227.641" y1="120.034" x2="227.641" y2="191.978"/><line class="cls-9" x1="215.83" y1="120.034" x2="215.83" y2="191.978"/><line class="cls-10" x1="203.094" y1="120.034" x2="203.094" y2="191.978"/><line class="cls-11" x1="109.768" y1="120.034" x2="109.768" y2="191.978"/><line class="cls-12" x1="126.905" y1="120.034" x2="126.905" y2="191.978"/><line class="cls-13" x1="143.424" y1="120.034" x2="143.424" y2="191.978"/><line class="cls-14" x1="159.982" y1="120.034" x2="159.982" y2="191.978"/><line class="cls-15" x1="175.382" y1="120.034" x2="175.382" y2="191.978"/><line class="cls-16" x1="189.238" y1="120.034" x2="189.238" y2="191.978"/><polyline class="cls-17" points="89.852 120.034 89.852 144.505 89.852 191.978"/></g><polygon class="cls-18" points="321.893 134.855 321.893 141.726 71.017 131.073 71.017 118.105 321.893 134.855"/><polygon class="cls-19" points="20.945 129.915 20.945 134.855 71.017 131.073 71.017 118.105 20.945 129.915"/><polygon class="cls-5" points="344.028 137.583 38.442 122.273 38.442 0 344.028 82.673 344.028 137.583"/><polygon class="cls-3" points="341.809 88.54 341.809 134.855 48.786 115.403 48.786 17.523 341.809 88.54"/><polygon class="cls-3" points="38.442 0 0 23.853 0 128.017 38.442 122.273 38.442 0"/><polyline class="cls-4" points="48.786 24.029 333.472 90.701 333.472 134.238 341.809 134.238 341.809 88.54 48.786 17.523 48.786 24.029"/><polygon class="cls-5" points="444.861 59.747 444.861 175.073 491.045 167.431 491.045 86.842 444.861 59.747"/><g class="cls-20"><line class="cls-21" x1="263.999" y1="20.61" x2="263.999" y2="136.866"/><line class="cls-21" x1="243.002" y1="20.61" x2="243.002" y2="136.866"/><line class="cls-21" x1="219.845" y1="20.61" x2="219.845" y2="136.866"/><line class="cls-21" x1="128.448" y1="20.61" x2="128.448" y2="136.866"/><line class="cls-21" x1="165.347" y1="20.61" x2="165.347" y2="136.866"/><line class="cls-21" x1="196.224" y1="20.61" x2="196.224" y2="136.866"/><line class="cls-21" x1="87.691" y1="20.61" x2="87.691" y2="136.866"/><line class="cls-21" x1="282.525" y1="20.61" x2="282.525" y2="136.866"/><line class="cls-21" x1="298.735" y1="20.61" x2="298.735" y2="136.866"/><line class="cls-21" x1="314.328" y1="20.61" x2="314.328" y2="136.866"/><line class="cls-21" x1="327.914" y1="20.61" x2="327.914" y2="136.866"/></g><line class="cls-22" x1="333.472" y1="94.715" x2="48.786" y2="33.836"/><line class="cls-22" x1="333.472" y1="103.701" x2="48.786" y2="50.149"/><line class="cls-22" x1="333.472" y1="112.006" x2="48.786" y2="67.441"/><line class="cls-22" x1="333.472" y1="120.652" x2="48.786" y2="84.346"/><line class="cls-22" x1="333.472" y1="127.754" x2="48.786" y2="100.659"/><path class="cls-23" d="M334.849,172.062c-5.4-1.361-16.682-7.247-125.5,3.011S90.181,183.4,80.589,182.715c-30.259-2.162-20.842,13.431,0,17.137s84.075-3.7,124.589-10.19c22.743-3.641,84.063-8.8,94.02-8.8S353.209,176.694,334.849,172.062Z"/><polygon class="cls-5" points="349.837 95.95 349.837 83.538 445.71 76.189 445.71 89.466 349.837 95.95"/><polygon class="cls-5" points="349.837 127.32 349.837 114.908 445.71 109.691 445.71 122.968 349.837 127.32"/><polygon class="cls-5" points="349.837 167.694 349.837 143.433 445.71 141.771 445.71 175.073 349.837 167.694"/><path class="cls-24" d="M362.037,88.754c5.71.119,19.255.653,17.3,9.138s2.937,13.38,10.77,12.075c5.548-1.3,17.541,1.877,9.464,17.052s-6.364,15.175-3.182,17.134-10.443,17.623-34.349,11.993-33.7-18.113-22.681-21.294,6.608-13.463-.49-21.05,6.609-12.728,13.952-9.546-3.427-6.119-1.714-10.28S359.283,88.7,362.037,88.754Z"/><path class="cls-25" d="M368.566,117.41V185"/><polygon class="cls-26" points="491.046 107.323 491.046 98.466 444.861 76.189 444.861 89.466 491.046 107.323"/><polygon class="cls-26" points="491.046 131.584 491.046 122.016 444.861 109.691 444.861 122.968 491.046 131.584"/><polygon class="cls-26" points="491.046 167.694 491.046 144.855 444.861 141.771 444.861 175.073 491.046 167.694"/><path class="cls-24" d="M147.109,166.258c3.167.046,8.415.573,6.885,5.209s2.459,4.043,3.407,3.777c1.122-.314,7.522-3.949,1.074,7.212s-21.2.114-21.2-2.69,3.619-2.895,5.056-3c3.469-.259,1.392-4.438.736-5.7S139.131,166.144,147.109,166.258Z"/><line class="cls-25" x1="349.837" y1="114.908" x2="368.566" y2="134.855"/><line class="cls-25" x1="368.566" y1="147.044" x2="390.514" y2="122.791"/><path class="cls-27" d="M112.846,188.449c-4.218-1.349-9.646-13.638-3.489-10.545s1.3-11.056,9.122-7.146,9.991,14.292,14.769,7.146,14.335-12.793,16.941-4.106-1.3,13.664-9.991,14.651S121.983,191.371,112.846,188.449Z"/></g><path id="Hover" class="cls-28" d="M491.046,107.323V98.466h0V86.842L444.861,59.747,328.492,71.391l-1.155.116-12.431,1.244-1.155.116-4.359.436-10.079-2.727-1.156-.313L283.1,66.19l-1.155-.312-17.371-4.7-1.155-.312L243.58,55.5l-1.155-.313-22-5.952-1.155-.313L196.8,42.842l-1.155-.312-29.722-8.041-1.155-.312-35.743-9.67-1.155-.313L38.442,0,0,23.852V128.018l20.945,1.9v51.717l41.861,3.494c-5.271,4.194,3.613,12.206,17.783,14.726,20.411,3.628,81.473-3.4,122.043-9.786l.923-.146,1.623-.258c2.858-.458,6.327-.939,10.226-1.432l.853-.106c3.395-.424,7.1-.854,10.993-1.284l.782-.086c3.2-.35,6.521-.7,9.906-1.041l.711-.072c3.277-.331,6.609-.655,9.942-.971l.711-.067c2.787-.262,5.57-.517,8.32-.764l.711-.063c3.067-.273,6.087-.535,9.015-.781l.711-.059c2.8-.234,5.507-.454,8.089-.656l.711-.056c2.705-.21,5.262-.4,7.626-.569l.711-.05c2.775-.195,5.265-.356,7.395-.478l.711-.04c2.639-.145,4.663-.225,5.9-.225.6,0,1.334-.015,2.166-.045l.711-.028c1.874-.08,4.183-.223,6.726-.422l.711-.056c2.1-.17,4.345-.377,6.622-.615l.711-.075c14.673-1.576,30.273-4.464,18-7.559a56.867,56.867,0,0,0-12.956-2.313v-4.225l27.944,2.17h.007l17.655,1.371,2.133.166,75.229,5.842.276-.044.573.044v-.136l45.336-7.243V144.855h0V131.584h0v-9.568h0V107.323Z"/></g></g></svg>