<svg xmlns="http://www.w3.org/2000/svg" width="399.723" height="264.376" viewBox="0 0 399.723 264.376"><defs><style>.cls-1{isolation:isolate;}.cls-2{fill:#b98b7b;}.cls-15,.cls-3{fill:#455f6d;}.cls-4,.cls-6{fill:#cfd4d6;}.cls-5{fill:#44799c;}.cls-15,.cls-6{mix-blend-mode:multiply;}.cls-6{opacity:0.69;}.cls-11,.cls-13,.cls-14,.cls-7,.cls-8{fill:none;stroke-miterlimit:10;}.cls-14,.cls-7{stroke:#cfd4d6;}.cls-7,.cls-8{stroke-width:0.875px;}.cls-8{stroke:#b3babc;}.cls-9{fill:#a5b8c5;}.cls-10{fill:#39515b;}.cls-11{stroke:#a5b8c5;}.cls-11,.cls-14{stroke-width:1.75px;}.cls-12{fill:#e2c751;}.cls-13{stroke:#71604b;stroke-width:3.5px;}.cls-15{opacity:0.4;}.cls-16{fill:#c1da63;}.cls-17{fill:#bfc2c4;}.cls-18{fill:#b3babc;}.cls-19{fill:#f3b64b;}.cls-20{fill:#1f5e30;mix-blend-mode:hue;}</style></defs><g class="cls-1"><g id="Building_G" data-name="Building G"><g id="Building"><rect class="cls-2" x="128.704" y="56.763" width="44.711" height="104.795"/><rect class="cls-3" x="144.394" y="68.63" width="88.061" height="43.33"/><rect class="cls-3" x="161.45" y="116.901" width="71.006" height="53.973"/><path class="cls-4" d="M215.993,0a228.547,228.547,0,0,0-51.542,5.592V46.965c15.134-3.549,32.738-2.9,51.542-2.9,19.453,0,37.633-.876,53.109,2.9V5.956A227.028,227.028,0,0,0,215.993,0Z"/><path class="cls-5" d="M262.1,14.6V46.965h7V16.147C266.83,15.593,264.487,15.081,262.1,14.6Z"/><path class="cls-5" d="M251.017,12.659V46.965h9.122V14.2Q255.691,13.345,251.017,12.659Z"/><path class="cls-5" d="M239.931,11.331V46.965h9.122V12.393Q244.58,11.781,239.931,11.331Z"/><path class="cls-5" d="M228.845,10.525v36.44h9.122V11.15Q233.476,10.756,228.845,10.525Z"/><path class="cls-5" d="M217.759,10.209V46.965h9.122V10.425Q222.376,10.235,217.759,10.209Z"/><path class="cls-5" d="M206.673,10.368v36.6H215.8V10.193Q211.181,10.2,206.673,10.368Z"/><path class="cls-5" d="M195.587,11.009V46.965h9.122V10.445Q200.085,10.649,195.587,11.009Z"/><path class="cls-5" d="M184.5,12.181V46.965h9.122V11.187Q188.979,11.6,184.5,12.181Z"/><path class="cls-5" d="M173.415,13.915v33.05h9.122V12.447Q177.869,13.1,173.415,13.915Z"/><path class="cls-5" d="M164.451,15.783V46.965h7V14.276C169.06,14.741,166.733,15.248,164.451,15.783Z"/><path class="cls-6" d="M215.993,10.191a228.547,228.547,0,0,0-51.542,5.592V57.156c15.134-3.549,32.738-40.907,51.542-40.907,19.453,0,37.633,37.129,53.109,40.907V16.147A227.028,227.028,0,0,0,215.993,10.191Z"/><path class="cls-7" d="M269.1,24.961a226.975,226.975,0,0,0-53.109-5.956A228.607,228.607,0,0,0,164.451,24.6"/><rect class="cls-4" x="138.527" y="44.063" width="154.933" height="26.25"/><line class="cls-8" x1="138.527" y1="61.563" x2="293.65" y2="61.563"/><rect class="cls-4" x="138.527" y="109.626" width="154.933" height="17.5"/><rect class="cls-2" x="242.148" y="53.807" width="157.575" height="157.575"/><polygon class="cls-4" points="198.628 134.386 198.628 170.874 233.596 170.874 233.596 134.156 198.628 134.386"/><rect class="cls-9" x="230.555" y="65.969" width="83.24" height="145.194"/><rect class="cls-10" x="234.356" y="71.291" width="75.258" height="139.873"/><line class="cls-11" x1="259.442" y1="68.63" x2="259.442" y2="214.204"/><line class="cls-11" x1="284.528" y1="68.63" x2="284.528" y2="214.204"/><line class="cls-11" x1="234.356" y1="68.63" x2="234.356" y2="214.204"/><line class="cls-11" x1="309.614" y1="68.63" x2="309.614" y2="214.204"/><line class="cls-11" x1="232.456" y1="82.693" x2="313.795" y2="82.693"/><line class="cls-11" x1="232.456" y1="94.856" x2="313.795" y2="94.856"/><line class="cls-11" x1="232.456" y1="107.019" x2="313.795" y2="107.019"/><line class="cls-11" x1="232.456" y1="119.182" x2="313.795" y2="119.182"/><line class="cls-11" x1="232.456" y1="131.345" x2="313.795" y2="131.345"/><line class="cls-11" x1="232.456" y1="143.508" x2="313.795" y2="143.508"/><line class="cls-11" x1="232.456" y1="155.671" x2="313.795" y2="155.671"/><line class="cls-11" x1="232.456" y1="168.214" x2="313.795" y2="168.214"/><line class="cls-11" x1="232.456" y1="180.756" x2="313.795" y2="180.756"/><line class="cls-11" x1="232.456" y1="193.299" x2="313.795" y2="193.299"/><line class="cls-11" x1="232.456" y1="205.842" x2="313.795" y2="205.842"/><path class="cls-12" d="M283.854,142.566c8.024.167,27.059.917,24.307,12.841s4.127,18.8,15.134,16.969c7.8-1.834,24.651,2.637,13.3,23.963s-8.943,21.326-4.471,24.078-14.676,24.765-48.27,16.854S236.5,211.818,251.98,207.346s9.287-18.918-.688-29.581,9.287-17.886,19.606-13.414-4.815-8.6-2.408-14.447S279.984,142.486,283.854,142.566Z"/><line class="cls-13" x1="292.097" y1="155.639" x2="292.097" y2="263.648"/><line class="cls-13" x1="268.75" y1="176.963" x2="291.79" y2="207.231"/><line class="cls-13" x1="317.307" y1="201.213" x2="292.713" y2="223.339"/><line class="cls-8" x1="138.527" y1="52.813" x2="293.65" y2="52.813"/><line class="cls-8" x1="138.527" y1="118.376" x2="232.456" y2="118.376"/><line class="cls-14" x1="160.686" y1="65.969" x2="160.686" y2="111.96"/><line class="cls-14" x1="176.979" y1="65.969" x2="176.979" y2="111.96"/><line class="cls-14" x1="176.979" y1="125.829" x2="176.979" y2="171.82"/><line class="cls-14" x1="193.271" y1="125.829" x2="193.271" y2="171.82"/><line class="cls-14" x1="193.271" y1="65.969" x2="193.271" y2="111.96"/><line class="cls-14" x1="209.563" y1="65.969" x2="209.563" y2="111.96"/><line class="cls-14" x1="225.856" y1="65.969" x2="225.856" y2="111.96"/><path class="cls-15" d="M230.555,70.313H144.394V111.96c33.579-31.337,72.378-34.289,86.161-34.562Z"/><path class="cls-16" d="M170.517,175.245h-15.6c-3.706,0-5.416-9.692-1.71-11.117s11.086,2.28,11.244-3.706,5.4-7.507,8.964-4.751,4.308,7.031,9.439,7.031,9.146,5.113,5.571,7.8S186.117,175.245,170.517,175.245Z"/><path class="cls-16" d="M151.193,169.724h-15.6c-3.706,0-5.417-9.692-1.711-11.117s11.086,2.28,11.245-3.706,5.4-7.507,8.963-4.751,4.308,7.031,9.439,7.031,9.147,5.113,5.571,7.8S166.793,169.724,151.193,169.724Z"/><polygon class="cls-17" points="195.587 170.874 93.201 264.376 93.201 253.734 195.587 167.453 195.587 170.874"/><polygon class="cls-18" points="85.076 253.354 93.201 253.734 195.587 167.453 191.976 167.453 85.076 253.354"/><path class="cls-19" d="M63.329,57.193c13.3.276,44.85,1.52,40.289,21.285S110.46,109.645,128.7,106.6c12.923-3.041,40.86,4.371,22.045,39.72s-14.823,35.348-7.411,39.909-24.326,41.05-80.009,27.937-78.489-42.19-52.833-49.6,15.394-31.358-1.14-49.032S24.75,85.889,41.854,93.3s-7.982-14.253-3.991-23.946S56.915,57.059,63.329,57.193Z"/><line class="cls-13" x1="73.313" y1="82.305" x2="73.313" y2="261.334"/><line class="cls-13" x1="34.824" y1="112.007" x2="73.013" y2="162.179"/><line class="cls-13" x1="113.584" y1="153.482" x2="72.819" y2="190.157"/></g><path id="Hover" class="cls-20" d="M399.723,211.382V53.807H293.46V53.25h.19v-.875h-.19V44.063H269.1v-19.1l.1-.426c-.034-.009-.069-.015-.1-.024V16.148h0V5.956A227.043,227.043,0,0,0,215.993,0a228.547,228.547,0,0,0-51.542,5.592V15.783h0v8.366l-.1.022.1.424V44.063H138.527v8.312h0v.875h0v3.513H128.7V106.6c-18.244,3.041-29.647-8.362-25.086-28.126S76.629,57.469,63.329,57.193c-6.414-.134-21.475,2.47-25.466,12.162s21.1,31.358,3.991,23.946-49.032,4.561-32.5,22.235,26.8,41.62,1.14,49.032-2.85,36.489,52.833,49.6c2.807.661,5.55,1.19,8.234,1.609v45.555h3.5V216.265c48.345,5.883,75.148-25.8,68.275-30.032-5.179-3.187-8.676-4.163-3.9-16.509h11.778c.328,2.781,1.734,5.521,3.7,5.521h15.6c7.8,0,11.387-.517,13.466-1.369L85.076,253.354l8.125.38v10.642l102.386-93.5h34.968v40.29h2.926v3.04h1.75v-3.04h6.917v.218h4.016c-3.4,7.026,10.764,19.548,37.69,25.889a65.6,65.6,0,0,0,6.493,1.186v25.191h3.5v-24.84c27.318,1.988,42.283-15.926,38.277-18.391-2.99-1.84-5.05-2.459-2.7-9.035Z"/></g></g></svg>