<svg xmlns="http://www.w3.org/2000/svg" width="412.131" height="277.788" viewBox="0 0 412.131 277.788"><defs><style>.cls-1{isolation:isolate;}.cls-2{fill:#ddd7c8;}.cls-3{fill:#8d8a85;}.cls-4{fill:#876359;}.cls-5{fill:#aa957e;}.cls-6{fill:#957163;}.cls-7{fill:#1f3c49;}.cls-8{fill:#b9b5b6;}.cls-9{fill:#a07c70;}.cls-10{fill:#ebf2f8;}.cls-11{fill:#bac751;}.cls-12{fill:#19262f;}.cls-13{fill:#1f5e30;mix-blend-mode:hue;}</style></defs><g class="cls-1"><g id="Baker_House" data-name="Baker House"><g id="Building"><rect class="cls-2" x="323.593" y="64.594" width="84.966" height="199.055"/><rect class="cls-3" x="102.49" y="73.705" width="221.143" height="190.296"/><rect class="cls-2" x="17.523" y="64.594" width="84.966" height="199.055"/><rect class="cls-4" x="17.523" y="182.331" width="154.473" height="81.317"/><rect class="cls-4" x="253.314" y="132.896" width="70.279" height="130.753"/><rect class="cls-5" x="17.523" y="182.331" width="391.036" height="3.912"/><rect class="cls-6" x="171.996" y="28.297" width="81.317" height="235.352"/><polygon class="cls-6" points="253.314 41.322 212.326 0 171.996 40.659 171.996 72.478 212.326 113.137 253.314 71.816 253.314 41.322"/><rect class="cls-7" x="181.535" y="56.569" width="62.239" height="62.239"/><rect class="cls-8" x="181.535" y="56.569" width="62.239" height="8.025"/><rect class="cls-8" x="181.535" y="116.92" width="62.239" height="2.675"/><rect class="cls-8" x="181.535" y="73.352" width="62.239" height="2.675"/><rect class="cls-8" x="181.535" y="108.051" width="62.239" height="1.338"/><rect class="cls-8" x="165.582" y="86.075" width="63.027" height="4.013" transform="translate(285.177 -109.013) rotate(90)"/><rect class="cls-8" x="181.141" y="86.075" width="63.027" height="4.013" transform="translate(300.737 -124.573) rotate(90)"/><rect class="cls-8" x="196.701" y="86.075" width="63.027" height="4.013" transform="translate(316.296 -140.133) rotate(90)"/><rect class="cls-8" x="211.258" y="87.079" width="63.027" height="2.006" transform="translate(330.853 -154.69) rotate(90)"/><rect class="cls-8" x="151.025" y="87.079" width="63.027" height="2.006" transform="translate(270.62 -94.457) rotate(90)"/><rect class="cls-5" x="181.535" y="56.569" width="62.239" height="5.35"/><rect class="cls-7" x="181.535" y="138.585" width="62.239" height="30.268"/><rect class="cls-8" x="181.535" y="132.896" width="62.239" height="8.025"/><rect class="cls-8" x="181.535" y="166.178" width="62.239" height="2.675"/><rect class="cls-8" x="181.535" y="138.585" width="62.239" height="2.675"/><rect class="cls-8" x="181.535" y="158.098" width="62.239" height="1.338"/><rect class="cls-8" x="182.63" y="151.044" width="28.93" height="4.013" transform="translate(350.145 -44.045) rotate(90)"/><rect class="cls-8" x="198.19" y="151.044" width="28.93" height="4.013" transform="translate(365.705 -59.604) rotate(90)"/><rect class="cls-8" x="213.749" y="151.044" width="28.93" height="4.013" transform="translate(381.265 -75.164) rotate(90)"/><rect class="cls-8" x="228.306" y="152.047" width="28.93" height="2.006" transform="translate(395.822 -89.721) rotate(90)"/><rect class="cls-8" x="168.073" y="152.047" width="28.93" height="2.006" transform="translate(335.589 -29.488) rotate(90)"/><rect class="cls-5" x="181.535" y="132.896" width="62.239" height="5.35"/><rect class="cls-7" x="334.956" y="138.585" width="62.239" height="30.268"/><rect class="cls-8" x="334.956" y="132.896" width="62.239" height="8.025"/><rect class="cls-8" x="334.956" y="166.178" width="62.239" height="2.675"/><rect class="cls-8" x="334.956" y="138.585" width="62.239" height="2.675"/><rect class="cls-8" x="334.956" y="158.098" width="62.239" height="1.338"/><rect class="cls-8" x="336.051" y="151.044" width="28.93" height="4.013" transform="translate(503.566 -197.466) rotate(90)"/><rect class="cls-8" x="351.611" y="151.044" width="28.93" height="4.013" transform="translate(519.126 -213.025) rotate(90)"/><rect class="cls-8" x="367.17" y="151.044" width="28.93" height="4.013" transform="translate(534.686 -228.585) rotate(90)"/><rect class="cls-8" x="381.727" y="152.047" width="28.93" height="2.006" transform="translate(549.243 -243.142) rotate(90)"/><rect class="cls-8" x="321.494" y="152.047" width="28.93" height="2.006" transform="translate(489.009 -182.909) rotate(90)"/><rect class="cls-5" x="334.956" y="132.896" width="62.239" height="5.35"/><rect class="cls-7" x="334.956" y="200.428" width="62.239" height="30.268"/><rect class="cls-8" x="334.956" y="194.739" width="62.239" height="8.025"/><rect class="cls-8" x="334.956" y="228.021" width="62.239" height="2.675"/><rect class="cls-8" x="334.956" y="200.428" width="62.239" height="2.675"/><rect class="cls-8" x="334.956" y="219.941" width="62.239" height="1.338"/><rect class="cls-8" x="336.051" y="212.887" width="28.93" height="4.013" transform="translate(565.409 -135.622) rotate(90)"/><rect class="cls-8" x="351.611" y="212.887" width="28.93" height="4.013" transform="translate(580.969 -151.182) rotate(90)"/><rect class="cls-8" x="367.17" y="212.887" width="28.93" height="4.013" transform="translate(596.529 -166.742) rotate(90)"/><rect class="cls-8" x="381.727" y="213.89" width="28.93" height="2.006" transform="translate(611.086 -181.299) rotate(90)"/><rect class="cls-8" x="321.494" y="213.89" width="28.93" height="2.006" transform="translate(550.853 -121.066) rotate(90)"/><rect class="cls-5" x="334.956" y="194.739" width="62.239" height="5.35"/><rect class="cls-7" x="334.956" y="95.574" width="62.239" height="30.268"/><rect class="cls-8" x="334.956" y="89.884" width="62.239" height="8.025"/><rect class="cls-8" x="334.956" y="123.166" width="62.239" height="2.675"/><rect class="cls-8" x="334.956" y="95.573" width="62.239" height="2.675"/><rect class="cls-8" x="334.956" y="115.087" width="62.239" height="1.338"/><rect class="cls-8" x="336.051" y="108.032" width="28.93" height="4.013" transform="translate(460.555 -240.477) rotate(90)"/><rect class="cls-8" x="351.611" y="108.032" width="28.93" height="4.013" transform="translate(476.114 -256.037) rotate(90)"/><rect class="cls-8" x="367.17" y="108.032" width="28.93" height="4.013" transform="translate(491.674 -271.597) rotate(90)"/><rect class="cls-8" x="381.727" y="109.036" width="28.93" height="2.006" transform="translate(506.231 -286.154) rotate(90)"/><rect class="cls-8" x="321.494" y="109.036" width="28.93" height="2.006" transform="translate(445.998 -225.92) rotate(90)"/><rect class="cls-5" x="334.956" y="89.884" width="62.239" height="5.35"/><rect class="cls-7" x="28.887" y="138.585" width="62.239" height="30.268"/><rect class="cls-8" x="28.887" y="132.896" width="62.239" height="8.025"/><rect class="cls-8" x="28.887" y="166.178" width="62.239" height="2.675"/><rect class="cls-8" x="28.887" y="138.585" width="62.239" height="2.675"/><rect class="cls-8" x="28.887" y="158.098" width="62.239" height="1.338"/><rect class="cls-8" x="29.981" y="151.044" width="28.93" height="4.013" transform="translate(197.497 108.604) rotate(90)"/><rect class="cls-8" x="45.541" y="151.044" width="28.93" height="4.013" transform="translate(213.057 93.044) rotate(90)"/><rect class="cls-8" x="61.101" y="151.044" width="28.93" height="4.013" transform="translate(228.617 77.484) rotate(90)"/><rect class="cls-8" x="75.658" y="152.047" width="28.93" height="2.006" transform="translate(243.173 62.927) rotate(90)"/><rect class="cls-8" x="15.425" y="152.047" width="28.93" height="2.006" transform="translate(182.94 123.16) rotate(90)"/><rect class="cls-5" x="28.887" y="132.896" width="62.239" height="5.35"/><rect class="cls-7" x="28.887" y="95.574" width="62.239" height="30.268"/><rect class="cls-8" x="28.887" y="89.884" width="62.239" height="8.025"/><rect class="cls-8" x="28.887" y="123.166" width="62.239" height="2.675"/><rect class="cls-8" x="28.887" y="95.573" width="62.239" height="2.675"/><rect class="cls-8" x="28.887" y="115.087" width="62.239" height="1.338"/><rect class="cls-8" x="29.981" y="108.032" width="28.93" height="4.013" transform="translate(154.485 65.592) rotate(90)"/><rect class="cls-8" x="45.541" y="108.032" width="28.93" height="4.013" transform="translate(170.045 50.032) rotate(90)"/><rect class="cls-8" x="61.101" y="108.032" width="28.93" height="4.013" transform="translate(185.605 34.472) rotate(90)"/><rect class="cls-8" x="75.658" y="109.036" width="28.93" height="2.006" transform="translate(200.162 19.916) rotate(90)"/><rect class="cls-8" x="15.425" y="109.036" width="28.93" height="2.006" transform="translate(139.929 80.149) rotate(90)"/><rect class="cls-5" x="28.887" y="89.884" width="62.239" height="5.35"/><rect class="cls-7" x="272.893" y="138.585" width="31.12" height="30.268"/><rect class="cls-8" x="272.893" y="132.896" width="31.12" height="8.025"/><rect class="cls-8" x="272.893" y="166.178" width="31.12" height="2.675"/><rect class="cls-8" x="272.893" y="138.585" width="31.12" height="2.675"/><rect class="cls-8" x="272.893" y="158.098" width="31.12" height="1.338"/><rect class="cls-8" x="273.988" y="151.044" width="28.93" height="4.013" transform="translate(441.503 -135.403) rotate(90)"/><rect class="cls-8" x="288.545" y="152.047" width="28.93" height="2.006" transform="translate(456.06 -149.959) rotate(90)"/><rect class="cls-8" x="259.431" y="152.047" width="28.93" height="2.006" transform="translate(426.947 -120.846) rotate(90)"/><rect class="cls-5" x="272.893" y="132.896" width="31.12" height="5.35"/><rect class="cls-7" x="122.678" y="138.585" width="31.12" height="30.268"/><rect class="cls-8" x="122.678" y="132.896" width="31.12" height="8.025"/><rect class="cls-8" x="122.678" y="166.178" width="31.12" height="2.675"/><rect class="cls-8" x="122.678" y="138.585" width="31.12" height="2.675"/><rect class="cls-8" x="122.678" y="158.098" width="31.12" height="1.338"/><rect class="cls-8" x="123.772" y="151.044" width="28.93" height="4.013" transform="translate(291.288 14.813) rotate(90)"/><rect class="cls-8" x="138.329" y="152.047" width="28.93" height="2.006" transform="translate(305.845 0.256) rotate(90)"/><rect class="cls-8" x="109.216" y="152.047" width="28.93" height="2.006" transform="translate(276.731 29.369) rotate(90)"/><rect class="cls-5" x="122.678" y="132.896" width="31.12" height="5.35"/><rect class="cls-7" x="122.678" y="200.428" width="31.12" height="30.268"/><rect class="cls-8" x="122.678" y="194.739" width="31.12" height="8.025"/><rect class="cls-8" x="122.678" y="228.021" width="31.12" height="2.675"/><rect class="cls-8" x="122.678" y="200.428" width="31.12" height="2.675"/><rect class="cls-8" x="122.678" y="219.941" width="31.12" height="1.338"/><rect class="cls-8" x="123.772" y="212.887" width="28.93" height="4.013" transform="translate(353.131 76.656) rotate(90)"/><rect class="cls-8" x="138.329" y="213.89" width="28.93" height="2.006" transform="translate(367.688 62.099) rotate(90)"/><rect class="cls-8" x="109.216" y="213.89" width="28.93" height="2.006" transform="translate(338.574 91.213) rotate(90)"/><rect class="cls-5" x="122.678" y="194.739" width="31.12" height="5.35"/><rect class="cls-7" x="122.678" y="94.208" width="31.12" height="30.268"/><rect class="cls-8" x="122.678" y="88.519" width="31.12" height="8.025"/><rect class="cls-8" x="122.678" y="121.801" width="31.12" height="2.675"/><rect class="cls-8" x="122.678" y="94.208" width="31.12" height="2.675"/><rect class="cls-8" x="122.678" y="113.721" width="31.12" height="1.338"/><rect class="cls-8" x="123.772" y="106.667" width="28.93" height="4.013" transform="translate(246.911 -29.564) rotate(90)"/><rect class="cls-8" x="138.329" y="107.67" width="28.93" height="2.006" transform="translate(261.468 -44.121) rotate(90)"/><rect class="cls-8" x="109.216" y="107.67" width="28.93" height="2.006" transform="translate(232.354 -15.007) rotate(90)"/><rect class="cls-5" x="122.678" y="88.519" width="31.12" height="5.35"/><rect class="cls-7" x="272.877" y="94.208" width="31.12" height="30.268"/><rect class="cls-8" x="272.877" y="88.519" width="31.12" height="8.025"/><rect class="cls-8" x="272.877" y="121.801" width="31.12" height="2.675"/><rect class="cls-8" x="272.877" y="94.208" width="31.12" height="2.675"/><rect class="cls-8" x="272.877" y="113.721" width="31.12" height="1.338"/><rect class="cls-8" x="273.972" y="106.667" width="28.93" height="4.013" transform="translate(397.111 -179.764) rotate(90)"/><rect class="cls-8" x="288.529" y="107.67" width="28.93" height="2.006" transform="translate(411.667 -194.32) rotate(90)"/><rect class="cls-8" x="259.415" y="107.67" width="28.93" height="2.006" transform="translate(382.554 -165.207) rotate(90)"/><rect class="cls-5" x="272.877" y="88.519" width="31.12" height="5.35"/><rect class="cls-7" x="181.535" y="188.021" width="62.239" height="30.268"/><rect class="cls-8" x="181.535" y="182.331" width="62.239" height="8.025"/><rect class="cls-8" x="181.535" y="215.613" width="62.239" height="2.675"/><rect class="cls-8" x="181.535" y="188.021" width="62.239" height="2.675"/><rect class="cls-8" x="181.535" y="207.534" width="62.239" height="1.338"/><rect class="cls-8" x="182.63" y="200.48" width="28.93" height="4.013" transform="translate(399.581 5.391) rotate(90)"/><rect class="cls-8" x="198.19" y="200.48" width="28.93" height="4.013" transform="translate(415.141 -10.169) rotate(90)"/><rect class="cls-8" x="213.749" y="200.48" width="28.93" height="4.013" transform="translate(430.7 -25.729) rotate(90)"/><rect class="cls-8" x="228.306" y="202.841" width="28.93" height="2.006" transform="translate(446.616 -38.927) rotate(90)"/><rect class="cls-8" x="168.073" y="201.483" width="28.93" height="2.006" transform="translate(385.024 19.948) rotate(90)"/><rect class="cls-5" x="181.535" y="182.331" width="62.239" height="5.35"/><rect class="cls-5" x="209.98" y="21.839" width="5.35" height="5.35" transform="translate(44.951 157.55) rotate(-45)"/><rect class="cls-5" x="209.98" y="29.405" width="5.35" height="5.35" transform="translate(39.601 159.766) rotate(-45)"/><rect class="cls-9" x="117.784" y="242.733" width="81.317" height="35.055"/><rect class="cls-8" x="117.784" y="239.192" width="81.317" height="3.541"/><rect class="cls-3" x="234.414" y="186.243" width="177.717" height="9.363"/><rect class="cls-7" x="253.645" y="199.518" width="63.802" height="64.483"/><rect class="cls-7" x="17.523" y="199.518" width="84.966" height="64.483"/><rect class="cls-9" x="243.775" y="195.606" width="9.539" height="68.395"/><rect class="cls-9" x="92.951" y="195.606" width="9.539" height="68.395"/><rect class="cls-9" x="17.523" y="195.606" width="9.539" height="68.395"/><rect class="cls-9" x="55.237" y="195.606" width="9.539" height="68.395"/><rect class="cls-9" x="317.447" y="195.606" width="9.539" height="68.395"/><polygon class="cls-5" points="412.131 195.606 234.414 195.606 237.236 199.579 409.31 199.579 412.131 195.606"/><rect class="cls-2" x="13.279" y="186.243" width="100.769" height="9.363"/><polygon class="cls-5" points="114.049 195.606 13.279 195.606 14.879 199.518 112.449 199.518 114.049 195.606"/><rect class="cls-10" x="30.662" y="204.969" width="58.688" height="12.093"/><rect class="cls-8" x="254.581" y="229.607" width="64.07" height="4.013" transform="translate(518.23 -55.003) rotate(90)"/><path class="cls-11" d="M17.523,266.127C.034,266.127-1.555,245.043.917,242.94s8.147,3.419,9.761-.029-6.73-12.028-7.437-14.306S3.607,223.965,9,226.5s4.939-3.574,3.089-6.611c-1.589-2.608-6.508-9.914-2.666-9.859,2.29.033,3.787,7.172,6,2.457,2.672-5.689-.276-14.975,2.1-15.092,2.372.117,3.958,5.125,2.6,11.5-1.082,5.094,3.653-.242,5.492,1.136,3.075,2.305-1.405,8.419-2.665,9.859s-2.308,7.775,3.089,5.244,6.469-.17,5.762,2.108-7.2,7.309-5.582,10.757,5.434-1.714,7.906.389S35.012,266.127,17.523,266.127Z"/><path class="cls-12" d="M36.62,213.748v-5.211a.1.1,0,0,1,.093-.1H38.5a1.488,1.488,0,0,1,1.625,1.426,1.074,1.074,0,0,1-.415.875,1.519,1.519,0,0,1,.907,1.359,1.711,1.711,0,0,1-1.891,1.746H36.713A.1.1,0,0,1,36.62,213.748Zm2.355-3.762a.472.472,0,0,0-.469-.477H37.8v.949h.711A.47.47,0,0,0,38.975,209.986Zm.359,2.1a.633.633,0,0,0-.687-.625H37.8v1.247h.852A.631.631,0,0,0,39.334,212.083Z"/><path class="cls-12" d="M41.065,211.142a2.809,2.809,0,1,1,2.809,2.785A2.8,2.8,0,0,1,41.065,211.142Zm4.348,0a1.542,1.542,0,1,0-1.539,1.59A1.54,1.54,0,0,0,45.413,211.142Z"/><path class="cls-12" d="M47.174,211.142a2.809,2.809,0,1,1,2.809,2.785A2.8,2.8,0,0,1,47.174,211.142Zm4.348,0a1.542,1.542,0,1,0-1.539,1.59A1.54,1.54,0,0,0,51.522,211.142Z"/><path class="cls-12" d="M53.706,213.736v-5.192c0-.14.293-.14.589-.14s.586,0,.586.14v1.993l1.684-2.032c.062-.1.418-.1.773-.1.3,0,.606,0,.606.117a.124.124,0,0,1-.027.07l-1.946,2.367,2.219,2.727a.127.127,0,0,1,.027.07c0,.121-.308.121-.617.121-.363,0-.723,0-.793-.1l-1.926-2.363v2.32c0,.144-.293.144-.586.144S53.706,213.876,53.706,213.736Z"/><path class="cls-12" d="M58.569,213.162a.109.109,0,0,1-.024-.071,1,1,0,0,1,.227-.429c.141-.188.3-.371.4-.371a.056.056,0,0,1,.043.015,2.174,2.174,0,0,0,1.254.492c.563,0,.84-.211.84-.48,0-.317-.4-.485-.852-.672-.7-.289-1.671-.691-1.671-1.688,0-.925.8-1.6,2.011-1.6a2.655,2.655,0,0,1,1.727.586.108.108,0,0,1,.027.078,1.06,1.06,0,0,1-.191.445c-.137.207-.293.418-.422.418a.129.129,0,0,1-.07-.023A1.835,1.835,0,0,0,60.8,209.5c-.5,0-.742.179-.742.433s.352.4.77.567c.718.289,1.761.71,1.761,1.82,0,.93-.925,1.609-2.117,1.609A2.64,2.64,0,0,1,58.569,213.162Z"/><path class="cls-12" d="M64.635,213.736v-4.16H63.124c-.137,0-.137-.285-.137-.571s0-.566.14-.566h4.192c.14,0,.14.281.14.566s0,.571-.14.571H65.811v4.156c0,.144-.3.144-.59.144S64.635,213.876,64.635,213.736Z"/><path class="cls-12" d="M67.432,211.142a2.809,2.809,0,1,1,2.809,2.785A2.8,2.8,0,0,1,67.432,211.142Zm4.348,0a1.542,1.542,0,1,0-1.539,1.59A1.54,1.54,0,0,0,71.78,211.142Z"/><path class="cls-12" d="M73.963,213.736v-5.2a.1.1,0,0,1,.094-.1H76.3a1.659,1.659,0,0,1,1.653,1.727,1.617,1.617,0,0,1-.844,1.472L78.2,213.7a.138.138,0,0,1,.015.058c0,.121-.273.121-.543.121-.312,0-.625,0-.675-.105l-.946-1.879h-.91v1.844c0,.14-.3.14-.59.14S73.963,213.876,73.963,213.736Zm2.75-3.567a.589.589,0,0,0-.589-.593h-.985v1.187h.985A.589.589,0,0,0,76.713,210.169Z"/><path class="cls-12" d="M78.975,213.744v-5.2a.094.094,0,0,1,.094-.1l3.539,0c.148,0,.152.281.152.566s0,.571-.152.571H80.151v.953l2.055,0c.14,0,.144.25.144.5s0,.5-.141.5H80.151v1.183l2.457,0c.148,0,.152.281.152.57s0,.57-.152.57H79.069A.1.1,0,0,1,78.975,213.744Z"/><rect class="cls-10" x="129.914" y="247.562" width="58.688" height="24.522"/><path class="cls-7" d="M137.478,259.474a.183.183,0,0,1-.051-.125v-9.462a.179.179,0,0,1,.051-.124.158.158,0,0,1,.119-.054h3.243a3.571,3.571,0,0,1,1.429.295,2.614,2.614,0,0,1,1.1.884,2.353,2.353,0,0,1,.422,1.411,2.235,2.235,0,0,1-.195.905,1.556,1.556,0,0,1-.557.684,2.451,2.451,0,0,1,.829.564,2.9,2.9,0,0,1,.6.875,2.513,2.513,0,0,1,.221,1.029,3.112,3.112,0,0,1-.483,1.784,2.879,2.879,0,0,1-1.262,1.05,4.222,4.222,0,0,1-1.688.336H137.6A.16.16,0,0,1,137.478,259.474Zm3.978-6.349a.833.833,0,0,0,.249-.607.846.846,0,0,0-.249-.613.817.817,0,0,0-.6-.251h-1.291v1.723h1.291A.81.81,0,0,0,141.456,253.125Zm.288,4.192a1.07,1.07,0,0,0,.449-.4,1.1,1.1,0,0,0-.449-1.585,1.41,1.41,0,0,0-.635-.142h-1.546v2.262h1.546A1.448,1.448,0,0,0,141.744,257.317Z"/><path class="cls-7" d="M145.248,259.544c-.177-.026-.266-.091-.266-.195a.236.236,0,0,1,.022-.091l4.525-9.583a.193.193,0,0,1,.131-.107,1.182,1.182,0,0,1,.245-.021,1.122,1.122,0,0,1,.24.021.194.194,0,0,1,.129.107l4.524,9.583a.329.329,0,0,1,.028.091c0,.1-.091.164-.276.192a5.614,5.614,0,0,1-.8.041c-.392,0-.693-.011-.908-.034s-.337-.081-.375-.171l-.624-1.517h-3.873l-.632,1.517c-.037.09-.164.147-.378.171s-.52.034-.911.034A6.032,6.032,0,0,1,145.248,259.544Zm5.841-3.423-1.171-2.73-1.176,2.73Z"/><path class="cls-7" d="M156.065,259.541c-.178-.028-.266-.1-.266-.214V249.9c0-.114.088-.185.266-.213a7.491,7.491,0,0,1,1.6,0c.177.028.266.1.266.213v3.617l3.057-3.688c.052-.081.19-.131.417-.153s.557-.032.987-.032a7.45,7.45,0,0,1,.823.035c.184.025.277.084.277.178a.234.234,0,0,1-.05.128l-3.533,4.3,4.029,4.951a.227.227,0,0,1,.049.127c0,.1-.093.161-.279.185a7.544,7.544,0,0,1-.84.034c-.441,0-.777-.009-1.009-.031s-.375-.071-.432-.152l-3.5-4.291v4.213c0,.118-.089.192-.266.22a7.855,7.855,0,0,1-1.6,0Z"/><path class="cls-7" d="M164.954,259.474a.188.188,0,0,1-.05-.131V249.9a.18.18,0,0,1,.05-.129.173.173,0,0,1,.12-.049l6.428-.008c.116,0,.192.089.227.264a4.658,4.658,0,0,1,.049.766,4.713,4.713,0,0,1-.049.773c-.035.175-.111.262-.227.262H167.04v1.731l3.73-.007c.114,0,.186.076.216.231a5,5,0,0,1,0,1.353c-.03.155-.1.232-.209.232H167.04v2.148l4.462-.007c.116,0,.192.088.227.263a6.1,6.1,0,0,1,0,1.543c-.035.176-.111.265-.227.265h-6.428A.164.164,0,0,1,164.954,259.474Z"/><path class="cls-7" d="M173.639,259.541c-.178-.028-.266-.1-.266-.214v-9.44a.173.173,0,0,1,.049-.124.162.162,0,0,1,.121-.054h4.071a2.949,2.949,0,0,1,2.588,1.5,3.225,3.225,0,0,1,.413,1.633,3.09,3.09,0,0,1-.419,1.606,2.769,2.769,0,0,1-1.113,1.067l1.978,3.739a.23.23,0,0,1,.028.105c0,.1-.083.161-.247.185a5.869,5.869,0,0,1-.738.034,8.587,8.587,0,0,1-.866-.031c-.2-.021-.319-.074-.361-.159l-1.717-3.413h-1.652v3.348c0,.113-.091.186-.271.214a5.5,5.5,0,0,1-.8.041A5.441,5.441,0,0,1,173.639,259.541Zm4.2-5.756a1.088,1.088,0,0,0,.389-1.472,1.081,1.081,0,0,0-.389-.394,1.065,1.065,0,0,0-.539-.145h-1.788v2.156H177.3A1.065,1.065,0,0,0,177.835,253.785Z"/><path class="cls-7" d="M137.346,270.759v-8.781c0-.231.5-.238,1-.238s.991.007.991.238v3.211h4.327v-3.211c0-.231.5-.238.991-.238s.991.007.991.238v8.775c0,.237-.5.244-.991.244s-.991-.007-.991-.238v-3.647h-4.327v3.641c0,.237-.5.244-.991.244S137.346,270.99,137.346,270.759Z"/><path class="cls-7" d="M147,266.372a4.751,4.751,0,1,1,4.751,4.711A4.729,4.729,0,0,1,147,266.372Zm7.355,0a2.608,2.608,0,1,0-2.6,2.689A2.606,2.606,0,0,0,154.35,266.372Z"/><path class="cls-7" d="M157.808,268.182v-6.2c0-.238.5-.238.991-.238s.991,0,.991.245v5.622a1.716,1.716,0,0,0,3.389,0v-5.629c0-.238.5-.238,1-.238s.991,0,.991.245v6.2c0,1.619-1.481,2.894-3.681,2.894C159.155,271.076,157.808,269.709,157.808,268.182Z"/><path class="cls-7" d="M166.267,269.788a.182.182,0,0,1-.04-.119,1.685,1.685,0,0,1,.383-.727c.239-.317.509-.628.681-.628a.1.1,0,0,1,.072.027,3.682,3.682,0,0,0,2.121.833c.951,0,1.421-.358,1.421-.814,0-.535-.674-.819-1.44-1.136-1.19-.489-2.828-1.17-2.828-2.854,0-1.566,1.361-2.709,3.4-2.709a4.489,4.489,0,0,1,2.921.991.179.179,0,0,1,.046.132,1.782,1.782,0,0,1-.323.753c-.232.35-.5.707-.714.707a.216.216,0,0,1-.119-.039,3.1,3.1,0,0,0-1.811-.614c-.846,0-1.255.3-1.255.733s.595.674,1.3.958c1.216.488,2.979,1.2,2.979,3.078,0,1.573-1.565,2.723-3.581,2.723A4.468,4.468,0,0,1,166.267,269.788Z"/><path class="cls-7" d="M174.421,270.772v-8.8a.159.159,0,0,1,.159-.165l5.985-.006c.251,0,.258.475.258.958s-.007.964-.258.964H176.41v1.613l3.475-.007c.238,0,.245.423.245.846s-.007.845-.238.845H176.41v2l4.155-.007c.251,0,.258.476.258.965s-.007.965-.258.965H174.58A.168.168,0,0,1,174.421,270.772Z"/></g><path id="Hover" class="cls-13" d="M408.559,186.243V64.594H323.593v9.111h-70.28V28.3H240.394L212.326,0,184.258,28.3H172V73.705H102.49V64.594H17.523V186.243H13.279v9.363l1.6,3.912h1.662c-.145,3.1.782,8.93-1.114,12.966-2.213,4.715-3.71-2.424-6-2.457-3.843-.055,1.076,7.251,2.665,9.859,1.85,3.037,2.307,9.142-3.089,6.611s-6.469-.17-5.763,2.108,9.05,10.859,7.437,14.306-7.289-2.074-9.761.029-.883,23.187,16.606,23.187A14.662,14.662,0,0,0,25.334,264h92.45v13.787H199.1V264H326.986v-.352h81.573v-64.07h.751l2.821-3.973v-9.363Z"/></g></g></svg>