<svg xmlns="http://www.w3.org/2000/svg" width="591.763" height="160.696" viewBox="0 0 591.763 160.696"><defs><style>.cls-1{isolation:isolate;}.cls-2{fill:#e2c751;}.cls-11,.cls-12,.cls-13,.cls-3{fill:none;stroke-miterlimit:10;}.cls-3{stroke:#71604b;stroke-width:3.5px;}.cls-4{fill:#cfd4d6;}.cls-5{fill:#933;}.cls-6{fill:#69a394;}.cls-7{fill:#1f3c49;}.cls-8{fill:#848b8b;}.cls-9{fill:#676b6b;}.cls-10{fill:#98d2c2;}.cls-11{stroke:#b3b9bb;stroke-width:0.399px;}.cls-12,.cls-13{stroke:#bed7e0;}.cls-12{stroke-width:1.25px;}.cls-13{stroke-width:1.875px;}.cls-14{fill:#bed7e0;}.cls-15{fill:#c5c2b5;}.cls-16{fill:#8e4e2c;}.cls-17{fill:#1f5e30;mix-blend-mode:hue;}</style></defs><g class="cls-1"><g id="Building_E" data-name="Building E"><g id="Building"><path class="cls-2" d="M510.508.559c9.459.2,31.9,1.081,28.654,15.138s4.865,22.166,17.84,20c9.191-2.162,29.059,3.109,15.679,28.248s-10.543,25.14-5.271,28.383-17.3,29.194-56.9,19.869S454.688,82.2,472.934,76.923s10.948-22.3-.811-34.87,10.948-21.085,23.112-15.814S489.559,16.1,492.4,9.209,505.946.464,510.508.559Z"/><line class="cls-3" x1="520.225" y1="15.97" x2="520.225" y2="143.293"/><line class="cls-3" x1="492.703" y1="41.107" x2="519.863" y2="76.788"/><line class="cls-3" x1="549.943" y1="69.694" x2="520.951" y2="95.777"/><polygon class="cls-4" points="468.749 71.51 494.27 74.768 494.27 68.456 578.432 68.456 578.432 156.759 468.749 156.759 468.749 71.51"/><polygon class="cls-5" points="99.747 4.695 99.747 160.695 476.964 157.845 474.761 51.28 99.747 4.695"/><polygon class="cls-6" points="343.727 35.673 343.727 101.239 410.921 101.239 410.921 43.411 343.727 35.673"/><polygon class="cls-7" points="106.307 104.496 106.307 160.695 476.964 157.845 476.964 101.398 106.307 104.496"/><rect class="cls-8" y="89.225" width="591.763" height="6.471"/><polygon class="cls-9" points="0 94.475 26.444 108.321 565.628 108.321 588.433 94.475 0 94.475"/><polygon class="cls-10" points="410.714 71.16 400.751 70.146 398.402 40.714 397.156 40.814 398.428 56.741 388.169 55.697 386.972 40.714 385.727 40.814 387.965 68.843 377.289 67.756 375.13 40.714 373.885 40.814 374.966 54.352 363.741 53.209 362.744 40.714 361.498 40.814 363.538 66.357 352.62 65.244 350.661 40.714 349.416 40.814 350.296 51.84 344.062 51.206 343.935 52.448 350.397 53.106 352.704 81.988 344.062 81.108 343.935 82.351 352.805 83.254 353.286 89.274 354.531 89.174 352.721 66.51 363.639 67.623 365.368 89.274 366.613 89.174 363.842 54.475 375.067 55.618 377.755 89.274 379 89.174 377.39 69.022 388.066 70.109 389.597 89.274 390.842 89.174 388.27 56.963 398.529 58.007 401.025 89.274 402.27 89.174 400.852 71.412 410.587 72.403 410.714 71.16"/><polygon class="cls-7" points="96.261 0 96.261 11.403 479.293 57.013 479.293 51.584 96.261 0"/><line class="cls-11" x1="293.939" y1="116.205" x2="353.996" y2="116.205"/><line class="cls-12" x1="106.307" y1="123.026" x2="155.175" y2="123.026"/><line class="cls-12" x1="106.307" y1="137.279" x2="155.175" y2="137.279"/><line class="cls-12" x1="192.234" y1="123.026" x2="229.904" y2="123.026"/><line class="cls-12" x1="192.234" y1="137.279" x2="229.904" y2="137.279"/><line class="cls-12" x1="267.777" y1="123.026" x2="293.939" y2="123.026"/><line class="cls-12" x1="267.777" y1="137.279" x2="293.939" y2="137.279"/><line class="cls-12" x1="229.904" y1="116.205" x2="267.777" y2="116.205"/><line class="cls-12" x1="229.904" y1="130.458" x2="267.777" y2="130.458"/><line class="cls-12" x1="229.904" y1="144.711" x2="267.777" y2="144.711"/><line class="cls-12" x1="155.175" y1="116.205" x2="193.048" y2="116.205"/><line class="cls-12" x1="155.175" y1="130.458" x2="193.048" y2="130.458"/><line class="cls-12" x1="155.175" y1="144.711" x2="193.048" y2="144.711"/><line class="cls-12" x1="353.996" y1="123.026" x2="381.396" y2="123.026"/><line class="cls-12" x1="353.996" y1="137.279" x2="381.396" y2="137.279"/><line class="cls-12" x1="353.996" y1="152.347" x2="381.396" y2="152.347"/><line class="cls-12" x1="267.157" y1="152.347" x2="294.558" y2="152.347"/><line class="cls-12" x1="420.288" y1="123.026" x2="458.568" y2="123.026"/><line class="cls-12" x1="420.288" y1="137.279" x2="458.568" y2="137.279"/><line class="cls-12" x1="381.702" y1="116.205" x2="419.982" y2="116.205"/><line class="cls-12" x1="381.702" y1="130.458" x2="419.982" y2="130.458"/><line class="cls-12" x1="381.702" y1="144.711" x2="419.982" y2="144.711"/><line class="cls-13" x1="106.307" y1="109.383" x2="481.571" y2="109.383"/><line class="cls-13" x1="267.777" y1="109.383" x2="267.777" y2="160.695"/><line class="cls-13" x1="229.904" y1="109.383" x2="229.904" y2="160.695"/><line class="cls-13" x1="192.234" y1="109.383" x2="192.234" y2="160.695"/><line class="cls-13" x1="155.175" y1="109.383" x2="155.175" y2="160.695"/><line class="cls-13" x1="117.709" y1="109.383" x2="117.709" y2="160.695"/><line class="cls-13" x1="293.939" y1="109.383" x2="293.939" y2="160.695"/><line class="cls-13" x1="324.383" y1="109.383" x2="324.383" y2="160.695"/><line class="cls-13" x1="353.996" y1="109.064" x2="353.996" y2="160.376"/><line class="cls-13" x1="381.396" y1="109.064" x2="381.396" y2="160.376"/><line class="cls-13" x1="420.288" y1="109.064" x2="420.288" y2="160.376"/><line class="cls-13" x1="458.568" y1="109.064" x2="458.568" y2="160.376"/><rect class="cls-14" x="294.196" y="116.205" width="59.779" height="44.491"/><rect class="cls-7" x="295.902" y="120.343" width="56.366" height="40.353"/><rect class="cls-14" x="322.321" y="120.343" width="4.123" height="40.353"/><rect class="cls-14" x="307.877" y="120.343" width="2.062" height="40.353"/><rect class="cls-14" x="338.42" y="120.343" width="2.062" height="40.353"/><rect class="cls-15" x="99.747" y="152.347" width="188.451" height="8.348"/><rect class="cls-15" x="360.108" y="152.347" width="188.451" height="8.348"/><rect class="cls-16" x="36.76" y="113.048" width="62.987" height="3.517"/><rect class="cls-16" x="55.427" y="143.823" width="30.215" height="3.517" transform="translate(216.116 75.047) rotate(90)"/><rect class="cls-16" x="50.864" y="143.823" width="30.215" height="3.517" transform="translate(211.553 79.61) rotate(90)"/><rect class="cls-16" x="61.032" y="124.119" width="30.215" height="3.517" transform="translate(218.987 161.048) rotate(135)"/><rect class="cls-16" x="45.26" y="124.119" width="30.215" height="3.517" transform="translate(106.69 -5.817) rotate(45)"/><rect class="cls-16" x="476.964" y="113.048" width="62.987" height="3.517"/><rect class="cls-16" x="495.631" y="143.823" width="30.215" height="3.517" transform="translate(656.32 -365.157) rotate(90)"/><rect class="cls-16" x="491.069" y="143.823" width="30.215" height="3.517" transform="translate(651.757 -360.595) rotate(90)"/><rect class="cls-16" x="501.236" y="124.119" width="30.215" height="3.517" transform="translate(970.462 -150.223) rotate(135)"/><rect class="cls-16" x="485.464" y="124.119" width="30.215" height="3.517" transform="translate(235.623 -317.089) rotate(45)"/></g><path id="Hover" class="cls-17" d="M591.763,95.7V89.225H578.432V68.456h-8.115q1.088-2.109,2.364-4.508C586.061,38.809,566.193,33.538,557,35.7c-12.975,2.163-21.084-5.947-17.841-20S519.967.756,510.508.559c-4.562-.1-15.273,1.757-18.111,8.65s15,22.3,2.838,17.03-34.87,3.244-23.112,15.814c9.633,10.3,16.262,23.582,8.317,30.949l-5.244-.669-.327-15.846,4.424.526V51.584L96.261,0V11.4l3.486.415V89.225H0V95.7H2.333l24.111,12.624h73.3v4.727H36.76v3.517H48.568l15.645,15.646v28.478H67.73V136.773l.523-.522.523.522v23.916h3.517V132.211l15.645-15.646H99.747V160.7H288.2v-1.4l4.8-.037V160.7h60.973v-.319h.958v-1.593l5.175-.04V160.7H548.559v-3.936h29.873V100.547l7.989-4.85ZM69.056,130.474h-.28v.28l-.523.523-.523-.523v-.28h-.279L53.542,116.565H82.964Z"/></g></g></svg>