<svg xmlns="http://www.w3.org/2000/svg" width="413.313" height="270.833" viewBox="0 0 413.313 270.833"><defs><style>.cls-1{isolation:isolate;}.cls-2{fill:#b6b9ba;}.cls-3{fill:#618493;}.cls-4{fill:#496d80;}.cls-5{fill:#b9c6c9;}.cls-6{fill:#bfcdd1;}.cls-15,.cls-7{fill:none;stroke-miterlimit:10;}.cls-7{stroke:#bfcdd1;stroke-width:1.35px;}.cls-8{fill:#8e4e2c;}.cls-9{fill:#cfd4d6;}.cls-10{fill:#213038;}.cls-11{fill:#1f3c49;}.cls-12{mix-blend-mode:multiply;}.cls-13{fill:#4f6769;opacity:0.69;}.cls-14{fill:#e2c751;}.cls-15{stroke:#71604b;stroke-width:2.7px;}.cls-16{fill:#1f5e30;mix-blend-mode:hue;}</style></defs><g class="cls-1"><g id="Building_C" data-name="Building C"><g id="Building"><polygon class="cls-2" points="14.954 225.228 0 230.81 227.826 270.833 356.48 225.228 132.825 200.023 14.954 225.228"/><polygon class="cls-3" points="18.472 79.574 227.826 6.032 227.826 244.884 18.472 225.228 18.472 79.574"/><polygon class="cls-4" points="18.472 225.228 227.355 6.032 18.472 79.574 18.472 225.228"/><polygon class="cls-4" points="335.141 79.574 227.826 6.032 227.826 244.884 335.141 225.228 335.141 79.574"/><polygon class="cls-5" points="277.965 32.892 277.965 237.316 335.141 225.001 335.141 79.931 277.965 32.892"/><polygon class="cls-6" points="14.954 91.041 170.649 43.857 170.649 72.475 14.954 111.179 14.954 91.041"/><line class="cls-7" x1="92.802" y1="52.227" x2="92.802" y2="128.772"/><line class="cls-7" x1="195.279" y1="15.989" x2="195.279" y2="190.424"/><line class="cls-7" x1="255.974" y1="22.527" x2="255.974" y2="241.366"/><line class="cls-7" x1="74.329" y1="60.327" x2="74.329" y2="136.872"/><line class="cls-7" x1="58.056" y1="65.862" x2="58.056" y2="142.406"/><line class="cls-7" x1="42.662" y1="70.7" x2="42.662" y2="147.244"/><line class="cls-7" x1="28.148" y1="75.098" x2="28.148" y2="151.643"/><line class="cls-7" x1="194.986" y1="92.707" x2="14.954" y2="130.531"/><line class="cls-7" x1="194.693" y1="132.584" x2="14.954" y2="156.736"/><line class="cls-7" x1="194.4" y1="64.852" x2="14.954" y2="111.552"/><line class="cls-7" x1="14.954" y1="91.041" x2="193.813" y2="37.29"/><polygon class="cls-6" points="227.826 6.032 14.954 82.274 14.954 77.798 227.826 0 227.826 6.032"/><polygon class="cls-8" points="14.954 138.144 119.631 117.913 119.631 234.616 14.954 225.228 14.954 138.144"/><polygon class="cls-9" points="111.714 40.277 111.714 236.967 170.649 242.716 170.649 18.695 111.714 40.277"/><polygon class="cls-10" points="87.084 172.821 87.084 180.671 241.02 172.821 241.02 158.68 87.084 172.821"/><polygon class="cls-11" points="328.691 172.821 328.691 180.67 241.02 172.821 241.02 158.68 328.691 172.821"/><polygon class="cls-6" points="176.367 185.362 176.367 240.053 220.055 244.155 220.055 182.87 176.367 185.362"/><polygon class="cls-6" points="227.355 6.032 335.141 79.574 335.141 74.674 227.355 0 227.355 6.032"/><line class="cls-7" x1="227.826" y1="208.819" x2="281.484" y2="208.819"/><g class="cls-12"><polygon class="cls-13" points="199.561 242.313 213.603 243.591 213.015 189.817 199.561 190.424 199.561 242.313"/><polygon class="cls-13" points="195.194 190.621 181.792 191.226 181.792 240.695 195.194 241.915 195.194 190.621"/></g><path class="cls-14" d="M356.152,50.861c12.743.349,33.866,4.4,27.708,40.023s9.895,31.069,13.708,29.028c4.516-2.416,30.274-30.347,4.325,55.418s-85.325.879-85.325-20.672,14.566-22.245,20.347-23.072c13.959-2,5.6-34.1,2.964-43.78S324.045,49.981,356.152,50.861Z"/><line class="cls-15" x1="365.333" y1="95.864" x2="365.333" y2="233.972"/><line class="cls-15" x1="335.48" y1="155.391" x2="364.941" y2="194.095"/><line class="cls-15" x1="397.568" y1="136.626" x2="366.121" y2="164.918"/><polygon class="cls-9" points="193.813 37.29 179.446 32.599 232.517 15.885 297.317 46.673 278.845 51.071 226.36 27.027 193.813 37.29"/><polygon class="cls-9" points="179.446 60.747 194.4 64.852 226.067 56.349 278.845 76.287 297.317 72.652 232.81 46.966 179.446 60.747"/><polygon class="cls-9" points="179.446 89.482 194.986 92.707 225.773 85.963 278.845 102.09 297.317 98.864 233.397 78.34 179.446 89.482"/><polygon class="cls-9" points="179.446 130.238 234.276 123.201 297.317 136.689 279.724 138.741 226.946 127.892 194.693 132.584 179.446 130.238"/></g><path id="Hover" class="cls-16" d="M397.568,119.912c-3.813,2.041-19.865,6.6-13.708-29.027S368.9,51.21,356.152,50.861c-32.107-.88-18.912,27.269-16.273,36.945s11,41.783-2.964,43.78c-.524.075-1.122.149-1.774.237V74.674L295.387,47.132l1.93-.459-6.157-2.925-13.2-10.856v2.17L227.826.326V0l-.308.113L227.355,0V.172L170.649,20.9V18.7L111.714,40.277v2.158L14.954,77.8v4.476l3.518-1.261v8.266L14.759,90.4l.2.647v19.813l-.17.044.34,1.307,3.348-.872V129.1l-3.657.769.277,1.321,3.38-.71v6.982l-3.518.68v17.911l-.09.012.09.67v68.491L0,230.81l227.826,40.023L356.48,225.228l-21.339-2.405v-31.4c8.307,10.014,18.538,18.52,28.842,20.853v21.7h2.7V212.74c13.177,1.558,26.206-7.65,35.21-37.41C427.842,89.565,402.084,117.5,397.568,119.912Z"/></g></g></svg>