<svg xmlns="http://www.w3.org/2000/svg" width="378.932" height="337.292" viewBox="0 0 378.932 337.292"><defs><style>.cls-1{fill:#b3c9df;}.cls-2{fill:#513740;}.cls-3{fill:#496d80;}.cls-4{fill:#658096;}.cls-5{fill:#744b51;}.cls-6{fill:#789c4a;}.cls-7,.cls-9{fill:none;stroke-miterlimit:10;}.cls-7{stroke:#273918;stroke-width:3px;}.cls-8{fill:#d3afa3;}.cls-9{stroke:#71604b;stroke-width:3.15px;}</style></defs><g id="Building_A" data-name="Building A"><g id="Building"><rect class="cls-1" x="144.316" y="167.106" width="234.616" height="113.229"/><rect class="cls-2" x="144.316" y="193.33" width="81.586" height="27.709"/><rect class="cls-3" x="143.037" y="197.457" width="78.415" height="19.453"/><rect class="cls-2" x="144.316" y="228.879" width="81.586" height="27.709"/><rect class="cls-3" x="143.037" y="233.007" width="78.415" height="19.453"/><rect class="cls-2" x="238.731" y="193.33" width="81.586" height="27.709"/><rect class="cls-3" x="237.451" y="197.457" width="78.415" height="19.453"/><rect class="cls-2" x="238.731" y="228.879" width="81.586" height="27.709"/><rect class="cls-3" x="237.451" y="233.007" width="78.415" height="19.453"/><polygon class="cls-1" points="59.351 61.455 65.508 305.124 135.635 305.124 131.188 54.562 59.351 61.455"/><polygon class="cls-4" points="154.792 64.532 154.792 305.124 135.635 305.124 131.188 54.562 154.792 64.532"/><polygon class="cls-5" points="106.216 0 59.351 49.773 131.316 41.05 106.216 0"/><polyline class="cls-2" points="155.476 54.562 106.216 0 131.316 41.05 155.476 54.562"/><polygon class="cls-2" points="57.94 52.76 131.316 44.978 131.316 51.207 57.94 58.305 57.94 52.76"/><path class="cls-6" d="M46.181,123.662c14.867.408,39.51,5.131,32.327,46.694S90.051,206.6,94.5,204.222c5.268-2.819,35.32-35.4,5.045,64.653S0,269.9,0,244.759s16.993-25.953,23.738-26.918c16.285-2.33,6.536-39.788,3.457-51.077S8.723,122.636,46.181,123.662Z"/><line class="cls-7" x1="56.892" y1="176.166" x2="56.892" y2="337.292"/><line class="cls-7" x1="22.064" y1="245.614" x2="56.434" y2="290.769"/><line class="cls-7" x1="94.5" y1="223.721" x2="57.812" y2="256.729"/><circle class="cls-8" cx="94.5" cy="89.1" r="21.893"/><line class="cls-9" x1="94.5" y1="67.207" x2="94.5" y2="71.837"/><line class="cls-9" x1="94.5" y1="106.364" x2="94.5" y2="110.993"/><line class="cls-9" x1="116.393" y1="89.1" x2="111.763" y2="89.1"/><line class="cls-9" x1="77.236" y1="89.1" x2="72.607" y2="89.1"/><polygon class="cls-2" points="131.188 44.932 131.188 51.207 154.886 61.412 154.886 56.766 131.188 44.932"/></g></g></svg>