<?xml version="1.0" encoding="UTF-8"?>
<svg width="32px" height="31px" viewBox="0 0 32 31" version="1.1" xmlns="http://www.w3.org/2000/svg" xmlns:xlink="http://www.w3.org/1999/xlink">
    <title>icons/sound</title>
    <g id="icons/sound" stroke="none" stroke-width="1" fill="none" fill-rule="evenodd">
        <g id="volume_up_black_36dp" fill="#FFFFFF" fill-rule="nonzero">
            <path d="M0,10.1978335 L0,20.8021665 L7.11111111,20.8021665 L16,29.6391106 L16,1.3608894 L7.11111111,10.1978335 L0,10.1978335 Z M24,15.5 C24,12.3717218 22.1866667,9.68529076 19.5555556,8.37742303 L19.5555556,22.6049031 C22.1866667,21.3147092 24,18.6282782 24,15.5 Z M19.5555556,0 L19.5555556,3.64082098 C24.6933333,5.16077537 28.4444444,9.89737742 28.4444444,15.5 C28.4444444,21.1026226 24.6933333,25.8392246 19.5555556,27.359179 L19.5555556,31 C26.6844444,29.3916762 32,23.0644242 32,15.5 C32,7.93557583 26.6844444,1.60832383 19.5555556,0 Z" id="Shape"></path>
        </g>
    </g>
</svg>