<?xml version="1.0" encoding="UTF-8"?>
<svg width="32px" height="32px" viewBox="0 0 32 32" version="1.1" xmlns="http://www.w3.org/2000/svg" xmlns:xlink="http://www.w3.org/1999/xlink">
    <title>icons/sound-mute</title>
    <g id="icons/sound-mute" stroke="none" stroke-width="1" fill="none" fill-rule="evenodd">
        <g id="volume_off_black_36dp" fill="#FFFFFF" fill-rule="nonzero">
            <path d="M24,16 C24,12.8533333 22.1866667,10.1511111 19.5555556,8.83555556 L19.5555556,12.7644444 L23.9111111,17.12 C23.9644444,16.7644444 24,16.3911111 24,16 L24,16 Z M28.4444444,16 C28.4444444,17.6711111 28.0888889,19.2355556 27.4844444,20.6933333 L30.1688889,23.3777778 C31.3422222,21.1733333 32,18.6666667 32,16 C32,8.39111111 26.6844444,2.02666667 19.5555556,0.408888889 L19.5555556,4.07111111 C24.6933333,5.6 28.4444444,10.3644444 28.4444444,16 Z M2.25777778,0 L0,2.25777778 L8.40888889,10.6666667 L0,10.6666667 L0,21.3333333 L7.11111111,21.3333333 L16,30.2222222 L16,18.2577778 L23.5555556,25.8133333 C22.3644444,26.7377778 21.0311111,27.4666667 19.5555556,27.9111111 L19.5555556,31.5733333 C22.0088889,31.0222222 24.2311111,29.8844444 26.1155556,28.3555556 L29.7422222,32 L32,29.7422222 L16,13.7422222 L2.25777778,0 Z M16,1.77777778 L12.2844444,5.49333333 L16,9.20888889 L16,1.77777778 Z" id="Shape"></path>
        </g>
    </g>
</svg>