<?xml version="1.0" encoding="UTF-8"?>
<svg width="32px" height="29px" viewBox="0 0 32 29" version="1.1" xmlns="http://www.w3.org/2000/svg" xmlns:xlink="http://www.w3.org/1999/xlink">
    <title>icons/thumbs</title>
    <g id="icons/thumbs" stroke="none" stroke-width="1" fill="none" fill-rule="evenodd">
        <g id="Group-3" transform="translate(16.000000, 14.588235) scale(-1, 1) translate(-16.000000, -14.588235) " fill="#FFFFFF">
            <path d="M32,11.0286501 L32,27.0398902 C32,27.32495 31.7765067,27.515598 31.5513227,27.515598 L23.9780847,27.5138147 C23.7092251,27.5138147 23.5294118,27.2768593 23.5294118,27.0381069 L23.5310938,11.028235 C23.5310938,10.7431752 23.7545828,10.5525272 23.9797667,10.5525272 L31.5530047,10.5525272 C31.8201824,10.5525272 32,10.7431615 32,11.028235 L32,11.0286501 Z" id="Fill-1"></path>
            <path d="M0,15.9211888 L0,15.9211888 L0.19220875,20.0545563 C0.19220875,20.1026607 1.24667358,24.3304536 1.24667358,24.3304536 L1.91669331,27.2291699 C2.1556057,28.3694092 3.21005673,29.1764706 4.35971311,29.1764706 L14.3240148,29.1764706 C14.5162236,29.1764706 14.7066343,29.1283662 14.8503275,28.9858363 L18.7304178,26.0408262 C18.8256231,25.9927218 18.8741248,25.9464007 18.9693302,25.9464007 L21.0764204,25.9464007 C21.3153328,25.9464007 21.5075415,25.7557664 21.5075415,25.518811 L21.5093396,12.9761788 C21.5093396,12.7392234 21.3171308,12.5485891 21.0782185,12.5485891 L20.4081987,12.5485891 C20.21599,12.5485891 20.0722829,12.4060592 20.0255793,12.2635292 C19.01963,8.79469328 17.1514383,7.56027022 15.1395397,6.32516303 C15.091038,6.27705861 15.0443343,6.23073753 14.9958326,6.18263311 C12.6965199,2.76191524 11.7857621,0.575848478 11.7857621,0.529326715 C11.5935534,0.149841396 11.2594494,-0.04079293 10.8283283,0.00732516807 C9.53496486,0.292384991 8.62420708,0.910622734 8.19308594,1.86021401 C7.23565211,3.80751467 8.33679298,6.61181918 9.72534795,9.65124103 C9.869055,9.88819644 9.67684625,10.2213607 9.38943216,10.2694788 L8.57570538,10.3639043 C8.52720367,10.3639043 8.62420708,10.3639043 8.57570538,10.3639043 L3.21002914,9.93631454 C1.72444317,9.88821012 0.528110751,10.982142 0.335888205,12.4074411 L0,15.9211888 Z" id="Fill-2"></path>
        </g>
    </g>
</svg>